<svg width="80" height="81" viewBox="0 0 80 81" fill="none" xmlns="http://www.w3.org/2000/svg">
<path d="M35.8673 62.2884C34.6539 62.2884 33.5429 62.2843 32.4333 62.2884C29.5602 62.3019 26.7693 61.7073 23.973 61.1478C23.0737 60.9684 22.4724 60.4359 21.9695 59.6903C20.539 57.5681 19.5925 55.2114 18.6784 52.8506C17.4083 49.5689 16.2623 46.2401 15.0246 42.9463C14.6174 41.865 14.0876 40.8295 13.7276 39.6781C14.5366 40.8107 15.514 41.8609 16.1221 43.0919C17.8519 46.592 19.4105 50.1756 21.0783 53.7081C21.8252 55.2896 22.6692 56.8252 23.4715 58.3811C23.8773 59.1699 24.5433 59.6067 25.3792 59.8642C29.3741 61.0925 33.4755 61.5293 37.6268 61.3352C42.8526 61.0911 48.0691 60.6732 53.2935 60.4089C54.6041 60.3429 55.928 60.5963 57.2466 60.6637C58.3832 60.7204 59.5225 60.7271 60.6604 60.7419C61.6231 60.7541 62.5898 60.7001 63.5484 60.7635C64.1349 60.8026 64.5178 60.5289 65.0059 60.2916C67.2224 59.2117 68.5423 57.0356 70.6308 55.8181C70.7171 55.7682 70.7683 55.655 70.8586 55.5444C70.3773 54.9835 69.7719 54.9026 69.2192 55.2154C68.4062 55.6752 67.6687 56.2698 66.8907 56.7942C66.0642 57.3511 65.227 57.8944 64.3937 58.4432C64.3371 58.3811 64.2805 58.3178 64.2239 58.2557C64.4045 58.0346 64.5488 57.765 64.7699 57.5991C66.0427 56.6473 67.3383 55.7278 68.6111 54.7759C68.7594 54.6653 68.9212 54.3863 68.8767 54.2541C68.8255 54.1045 68.5248 53.9171 68.3725 53.9467C67.8102 54.0573 67.2534 54.2231 66.7168 54.4254C66.4296 54.5332 66.1451 54.7179 65.9321 54.9377C64.2859 56.6365 62.1583 56.4922 60.0685 56.4936C59.9701 56.4936 59.8717 56.4289 59.7032 56.3682C59.9849 55.7871 60.5216 55.8168 60.957 55.6779C61.6999 55.4419 62.4792 55.2855 63.1749 54.9525C63.4999 54.7975 63.725 54.335 63.8801 53.9642C63.961 53.7688 63.8315 53.4492 63.7115 53.2321C63.6805 53.1769 63.3232 53.2928 63.1196 53.3441C61.6433 53.7121 60.1845 54.1813 58.6879 54.424C57.2089 54.664 55.7487 54.9633 54.747 56.1026C52.8513 58.2571 50.477 58.187 48.003 57.7825C42.0235 56.805 36.052 55.775 30.0698 54.8217C29.0991 54.6667 28.6501 54.1854 28.4681 53.3076C28.1135 51.5954 27.7171 49.8898 27.4084 48.1681C26.8057 44.8136 26.2502 41.4497 25.6812 38.0899C25.6368 37.827 25.6435 37.556 25.626 37.289C25.6839 37.2755 25.7419 37.2607 25.7999 37.2472C27.2371 42.407 28.6744 47.5668 30.1116 52.7252C30.1548 52.7292 30.1966 52.7319 30.2397 52.736C30.4514 51.6911 30.6873 50.6502 30.8693 49.6013C31.3385 46.8953 31.5907 44.1719 31.4383 41.4214C31.1956 37.0355 29.6006 33.1606 26.8623 29.7765C25.4763 28.0642 23.5025 27.0274 21.6944 25.818C20.4581 24.9916 19.1125 24.4698 17.5971 24.494C17.5081 24.4954 17.4178 24.4806 17.3315 24.459C17.2978 24.4509 17.2762 24.3997 17.1926 24.3039C20.5228 24.1368 23.0966 25.6239 25.3806 27.7299C25.4696 27.6813 25.5356 27.6625 25.537 27.6422C25.5936 26.4072 26.265 25.4203 26.7787 24.3511C27.2466 23.3763 27.4812 22.291 27.8398 21.1895C28.4223 21.3162 29.1112 21.4942 29.811 21.6074C30.2721 21.6816 30.7507 21.7018 31.2172 21.6735C31.8617 21.633 32.3093 21.2596 32.4926 20.6434C32.6935 19.9653 32.4239 19.128 33.1897 18.6467C32.9484 17.8943 33.9366 17.2876 33.4459 16.4948C33.3865 16.3991 33.4378 16.2346 33.4378 16.1402C33.8301 15.9421 34.1982 15.7857 34.5326 15.578C34.9707 15.3057 35.0584 14.9673 34.7051 14.5196C34.1645 13.832 33.6872 13.0945 33.1439 12.4083C32.7394 11.8986 32.6639 11.3458 32.827 10.758C33.2018 9.40705 32.9861 8.13025 32.3632 6.91143C32.1664 6.52448 32.1745 6.27101 32.4832 5.92046C33.7519 4.48726 32.8095 2.20197 31.0082 1.93501C29.0222 1.64109 27.0915 0.984492 25.115 0.597543C22.7178 0.128349 20.3543 0.224076 18.2537 1.6721C17.6348 2.09815 17.1346 2.69948 16.5738 3.22664C16.6897 2.83295 16.8259 2.36915 16.9621 1.90805C16.2192 2.5606 16.1841 2.7615 16.6506 3.83336C14.5366 5.1169 13.76 7.10423 13.7856 9.47312C13.8004 10.8106 14.3168 12.0159 15.0004 13.139C15.4439 13.8671 15.9536 14.5534 16.4416 15.2531C18.5557 18.2813 18.2092 21.6533 15.5262 24.188C10.1615 29.2534 8.03121 35.5376 8.78624 42.7764C9.13004 46.0702 9.9363 49.3141 10.4284 52.5958C10.814 55.1669 11.1349 57.7569 11.3129 60.3496C11.5205 63.394 11.5084 66.4531 11.6675 69.5029C11.712 70.359 11.9209 71.2422 12.2337 72.043C12.978 73.9454 14.3572 74.5953 16.2246 73.7823C18.5651 72.7616 20.9044 71.6898 23.0912 70.3833C25.0651 69.2036 26.8987 67.7569 28.6717 66.2806C30.6617 64.6249 32.8877 63.491 35.3186 62.6929C35.4467 62.6511 35.5707 62.6012 35.6934 62.5459C35.7231 62.5324 35.7365 62.4839 35.8646 62.287L35.8673 62.2884Z" fill="#AAAAAA"/>
<path d="M31.0135 70.1231C31.5259 68.9879 32.0733 67.7731 32.622 66.5597C32.5505 66.5084 32.4804 66.4559 32.409 66.4046C30.0266 68.3636 27.6456 70.3213 25.185 72.345C26.3122 70.8916 27.3813 69.5124 28.4518 68.1331C28.4087 68.0899 28.3669 68.0455 28.3238 68.0023C28.0177 68.2126 27.7143 68.4284 27.4042 68.6333C24.0538 70.8525 20.7048 73.0812 16.9135 74.5076C15.9832 74.8582 14.9936 75.0523 13.9473 75.3422C14.0767 76.1013 14.5716 76.7862 15.2484 77.3565C16.9377 78.7776 18.9871 79.3668 21.0863 79.7928C24.1455 80.4144 27.2479 80.4144 30.3475 80.2607C33.4431 80.107 36.5333 79.8508 39.6289 79.6998C48.6237 79.6998 51.6857 80.6891 68.0879 78.059C70.5349 76.8927 71.8158 74.3256 71.2131 71.8367C70.93 70.6678 70.2639 69.8238 69.3013 69.4503C69.1112 69.9195 68.909 70.386 68.7337 70.8633C68.247 72.1886 67.3328 73.154 66.1652 73.8888C62.6234 76.1134 58.7714 77.5224 54.6471 78.1938C54.0377 78.2922 53.4269 78.3772 52.9227 78.4527C54.941 77.7947 57.0672 77.1678 59.1435 76.4047C60.7412 75.8168 62.3119 75.1292 63.8287 74.358C65.8875 73.3104 67.62 71.861 68.6514 69.7254C69.7287 67.4927 68.704 64.5899 66.4538 63.1769C65.1473 62.3558 63.7748 62.5405 62.4023 62.7171C53.6858 63.8362 45.127 65.7291 36.6721 68.0913C34.7374 68.6319 32.8782 69.4503 31.0189 70.1272L31.0135 70.1231Z" fill="#AAAAAA"/>
<path d="M33.9999 67.4468C41.1187 64.6168 48.4667 63.0124 56.0857 61.6682C54.5635 61.1168 53.2382 60.87 51.7659 61.0844C48.0487 61.6251 44.4192 62.5001 40.841 63.6164C40.721 63.6542 40.5942 63.6717 40.4163 63.576C41.2373 63.1607 42.0584 62.7468 42.9442 62.2992C41.3546 62.3787 39.8392 62.4515 38.3238 62.5365C38.2011 62.5432 38.046 62.5985 37.9705 62.6861C36.66 64.1908 35.3576 65.7035 34.0565 67.2176C34.0309 67.2473 34.0336 67.3012 33.9999 67.4455V67.4468Z" fill="#AAAAAA"/>
<path d="M49.4753 57.107C43.3812 55.6698 37.2871 54.2326 31.193 52.7953C31.166 52.9126 31.1377 53.0313 31.1107 53.1486C37.1644 54.7301 43.1979 56.4006 49.4147 57.281C49.4349 57.223 49.4551 57.165 49.474 57.107H49.4753Z" fill="#AAAAAA"/>
</svg>
