<svg width="57" height="14" viewBox="0 0 57 14" fill="none" xmlns="http://www.w3.org/2000/svg">
<path d="M9.01645 5.07953C9.22657 5.14775 9.34161 5.37338 9.27339 5.5835C9.20518 5.79362 8.97955 5.90865 8.76943 5.84044L9.01645 5.07953ZM8.89294 1.00723L8.98372 0.617662L8.89294 1.00723ZM0.783936 6.35089L0.386737 6.30363L0.783936 6.35089ZM21.7839 10.7572L21.9426 11.1244L21.7839 10.7572ZM53.3791 12.4461C53.2228 12.6023 52.9696 12.6023 52.8134 12.4461L50.2678 9.90054C50.1116 9.74433 50.1116 9.49107 50.2678 9.33486C50.424 9.17865 50.6773 9.17865 50.8335 9.33486L53.0962 11.5976L55.3589 9.33486C55.5152 9.17865 55.7684 9.17865 55.9246 9.33486C56.0808 9.49107 56.0808 9.74433 55.9246 9.90054L53.3791 12.4461ZM50.612 3.35077L50.4151 3.69897L50.612 3.35077ZM8.76943 5.84044C7.94797 5.57376 7.36446 5.67528 7.00216 5.89924C6.63987 6.12321 6.44197 6.50231 6.43974 6.9213C6.43551 7.72012 7.20345 8.8571 9.40894 8.8571V9.6571C6.92692 9.6571 5.63237 8.3097 5.63975 6.91706C5.64334 6.24032 5.96979 5.59692 6.58151 5.21877C7.19323 4.84061 8.0334 4.7604 9.01645 5.07953L8.76943 5.84044ZM9.40894 8.8571C11.5752 8.8571 13.1787 7.36893 13.3952 5.75089C13.5022 4.95135 13.2776 4.09283 12.5793 3.32025C11.8751 2.54111 10.6717 1.83244 8.80216 1.39679L8.98372 0.617662C10.9581 1.07773 12.3271 1.84815 13.1728 2.78381C14.0244 3.72603 14.3272 4.81801 14.1882 5.85701C13.9126 7.91605 11.9302 9.6571 9.40894 9.6571V8.8571ZM8.80216 1.39679C7.0069 0.978455 5.2179 1.22336 3.82658 2.06606C2.44358 2.90372 1.42501 4.34825 1.18113 6.39814L0.386737 6.30363C0.658712 4.01757 1.81128 2.3514 3.41213 1.38179C5.00467 0.417212 7.01224 0.158265 8.98372 0.617662L8.80216 1.39679ZM1.18113 6.39814C0.958761 8.26728 1.43541 9.70623 2.40458 10.7661C3.38405 11.8372 4.90536 12.563 6.84205 12.9117C10.7193 13.6098 16.1211 12.7684 21.6253 10.39L21.9426 11.1244C16.3496 13.5411 10.783 14.4341 6.7003 13.6991C4.65701 13.3312 2.95048 12.5486 1.8142 11.3059C0.667635 10.0521 0.140651 8.37208 0.386737 6.30363L1.18113 6.39814ZM50.8089 3.00257C52.5053 3.9617 53.1768 5.38594 53.4204 7.00108C53.5408 7.79882 53.5582 8.64782 53.5471 9.51168C53.5357 10.3934 53.4962 11.2545 53.4962 12.1633H52.6962C52.6962 11.2611 52.7364 10.3357 52.7471 9.5014C52.7581 8.64917 52.7398 7.8524 52.6294 7.12042C52.4115 5.6761 51.8409 4.50508 50.4151 3.69897L50.8089 3.00257ZM21.6253 10.39C23.6812 9.50169 25.9055 8.26371 28.2588 6.97546C30.604 5.69168 33.0699 4.36235 35.5794 3.3144C40.5922 1.22104 45.8721 0.211351 50.8089 3.00257L50.4151 3.69897C45.8048 1.09231 40.8249 1.99081 35.8876 4.05262C33.422 5.08226 30.9903 6.39227 28.643 7.67719C26.3039 8.95764 24.0409 10.2177 21.9426 11.1244L21.6253 10.39Z" fill="#AAAAAA"/>
</svg>
