<svg width="57" height="14" viewBox="0 0 57 14" fill="none" xmlns="http://www.w3.org/2000/svg">
<path d="M47.6107 5.07953C47.4006 5.14775 47.2856 5.37338 47.3538 5.5835C47.422 5.79362 47.6477 5.90865 47.8578 5.84044L47.6107 5.07953ZM47.7343 1.00723L47.6435 0.617662L47.7343 1.00723ZM55.8433 6.35089L56.2405 6.30363L55.8433 6.35089ZM34.8433 10.7572L34.6846 11.1244L34.8433 10.7572ZM3.24815 12.4461C3.40436 12.6023 3.65762 12.6023 3.81383 12.4461L6.35942 9.90054C6.51563 9.74433 6.51563 9.49107 6.35942 9.33486C6.20321 9.17865 5.94994 9.17865 5.79373 9.33486L3.53099 11.5976L1.26825 9.33486C1.11204 9.17865 0.858772 9.17865 0.702562 9.33486C0.546353 9.49107 0.546353 9.74433 0.702562 9.90054L3.24815 12.4461ZM6.01518 3.35077L6.21205 3.69897L6.01518 3.35077ZM47.8578 5.84044C48.6792 5.57376 49.2627 5.67528 49.625 5.89924C49.9873 6.12321 50.1852 6.50231 50.1875 6.9213C50.1917 7.72012 49.4237 8.8571 47.2183 8.8571V9.6571C49.7003 9.6571 50.9948 8.3097 50.9874 6.91706C50.9839 6.24032 50.6574 5.59692 50.0457 5.21877C49.434 4.84061 48.5938 4.7604 47.6107 5.07953L47.8578 5.84044ZM47.2183 8.8571C45.052 8.8571 43.4485 7.36893 43.232 5.75089C43.125 4.95135 43.3496 4.09283 44.0479 3.32025C44.7521 2.54111 45.9555 1.83244 47.825 1.39679L47.6435 0.617662C45.6691 1.07773 44.3001 1.84815 43.4544 2.78381C42.6028 3.72603 42.3 4.81801 42.439 5.85701C42.7146 7.91605 44.697 9.6571 47.2183 9.6571V8.8571ZM47.825 1.39679C49.6203 0.978455 51.4093 1.22336 52.8006 2.06606C54.1836 2.90372 55.2022 4.34825 55.4461 6.39814L56.2405 6.30363C55.9685 4.01757 54.8159 2.3514 53.2151 1.38179C51.6225 0.417212 49.615 0.158265 47.6435 0.617662L47.825 1.39679ZM55.4461 6.39814C55.6684 8.26728 55.1918 9.70623 54.2226 10.7661C53.2432 11.8372 51.7218 12.563 49.7851 12.9117C45.9079 13.6098 40.5061 12.7684 35.0019 10.39L34.6846 11.1244C40.2776 13.5411 45.8442 14.4341 49.9269 13.6991C51.9702 13.3312 53.6767 12.5486 54.813 11.3059C55.9596 10.0521 56.4865 8.37208 56.2405 6.30363L55.4461 6.39814ZM5.81831 3.00257C4.12192 3.9617 3.45041 5.38594 3.20675 7.00108C3.0864 7.79882 3.06902 8.64782 3.08012 9.51168C3.09145 10.3934 3.13099 11.2545 3.13099 12.1633H3.93099C3.93099 11.2611 3.89078 10.3357 3.88006 9.5014C3.86911 8.64917 3.88737 7.8524 3.9978 7.12042C4.21569 5.6761 4.78629 4.50508 6.21205 3.69897L5.81831 3.00257ZM35.0019 10.39C32.946 9.50169 30.7217 8.26371 28.3684 6.97546C26.0232 5.69168 23.5573 4.36235 21.0478 3.3144C16.035 1.22104 10.7551 0.211351 5.81831 3.00257L6.21205 3.69897C10.8224 1.09231 15.8023 1.99081 20.7396 4.05262C23.2052 5.08226 25.6369 6.39227 27.9842 7.67719C30.3233 8.95764 32.5863 10.2177 34.6846 11.1244L35.0019 10.39Z" fill="#AAAAAA"/>
</svg>
