<?xml version="1.0" encoding="UTF-8"?>
<svg fill="none" viewBox="0 0 420 595" xmlns="http://www.w3.org/2000/svg">
<rect width="420" height="595" fill="#fff"/>
<path d="m136.71 257h-3.954l6.025-17.455h4.756l6.017 17.455h-3.955l-4.372-13.466h-0.136l-4.381 13.466zm-0.247-6.861h9.341v2.881h-9.341v-2.881zm15.123 6.861v-13.091h3.461v2.31h0.153c0.273-0.767 0.727-1.372 1.364-1.816 0.636-0.443 1.397-0.664 2.284-0.664 0.898 0 1.662 0.224 2.292 0.673 0.631 0.443 1.052 1.045 1.262 1.807h0.136c0.267-0.75 0.75-1.35 1.449-1.799 0.705-0.454 1.537-0.681 2.497-0.681 1.222 0 2.213 0.389 2.975 1.167 0.767 0.773 1.15 1.87 1.15 3.29v8.804h-3.622v-8.088c0-0.727-0.193-1.273-0.579-1.636-0.387-0.364-0.87-0.546-1.449-0.546-0.659 0-1.174 0.21-1.543 0.631-0.369 0.415-0.554 0.963-0.554 1.645v7.994h-3.52v-8.165c0-0.642-0.184-1.153-0.554-1.534-0.363-0.381-0.844-0.571-1.44-0.571-0.404 0-0.767 0.102-1.091 0.307-0.318 0.199-0.571 0.48-0.759 0.844-0.187 0.358-0.281 0.778-0.281 1.261v7.858h-3.631zm27.806 0.256c-1.324 0-2.469-0.282-3.435-0.844-0.96-0.568-1.701-1.358-2.224-2.369-0.523-1.017-0.784-2.196-0.784-3.537 0-1.353 0.261-2.534 0.784-3.546 0.523-1.017 1.264-1.807 2.224-2.369 0.966-0.568 2.111-0.852 3.435-0.852s2.466 0.284 3.426 0.852c0.966 0.562 1.71 1.352 2.233 2.369 0.523 1.012 0.784 2.193 0.784 3.546 0 1.341-0.261 2.52-0.784 3.537-0.523 1.011-1.267 1.801-2.233 2.369-0.96 0.562-2.102 0.844-3.426 0.844zm0.017-2.813c0.602 0 1.105-0.17 1.508-0.511 0.404-0.347 0.708-0.818 0.912-1.415 0.211-0.597 0.316-1.276 0.316-2.037s-0.105-1.44-0.316-2.037c-0.204-0.596-0.508-1.068-0.912-1.415-0.403-0.346-0.906-0.519-1.508-0.519-0.608 0-1.119 0.173-1.534 0.519-0.409 0.347-0.719 0.819-0.929 1.415-0.205 0.597-0.307 1.276-0.307 2.037s0.102 1.44 0.307 2.037c0.21 0.597 0.52 1.068 0.929 1.415 0.415 0.341 0.926 0.511 1.534 0.511zm8.787 2.557v-13.091h3.52v2.284h0.136c0.239-0.812 0.639-1.426 1.202-1.841 0.562-0.42 1.21-0.63 1.943-0.63 0.182 0 0.378 0.011 0.588 0.034 0.21 0.022 0.395 0.054 0.554 0.093v3.222c-0.17-0.051-0.406-0.097-0.707-0.136-0.301-0.04-0.577-0.06-0.827-0.06-0.534 0-1.011 0.116-1.432 0.349-0.415 0.228-0.744 0.546-0.988 0.955-0.239 0.409-0.358 0.881-0.358 1.415v7.406h-3.631zm19.108 0.247c-0.835 0-1.58-0.145-2.233-0.435-0.654-0.295-1.171-0.73-1.551-1.303-0.375-0.58-0.563-1.302-0.563-2.165 0-0.728 0.134-1.338 0.401-1.833 0.267-0.494 0.63-0.892 1.091-1.193 0.46-0.301 0.983-0.528 1.568-0.682 0.591-0.153 1.21-0.261 1.858-0.324 0.761-0.079 1.375-0.153 1.841-0.221 0.466-0.074 0.804-0.182 1.014-0.324s0.315-0.352 0.315-0.631v-0.051c0-0.54-0.17-0.957-0.511-1.253-0.335-0.295-0.813-0.443-1.432-0.443-0.653 0-1.173 0.145-1.56 0.435-0.386 0.284-0.642 0.642-0.767 1.074l-3.358-0.273c0.171-0.795 0.506-1.483 1.006-2.063 0.5-0.585 1.145-1.034 1.935-1.346 0.795-0.318 1.716-0.477 2.761-0.477 0.727 0 1.423 0.085 2.088 0.255 0.671 0.171 1.264 0.435 1.781 0.793 0.523 0.358 0.935 0.818 1.236 1.381 0.301 0.556 0.452 1.224 0.452 2.002v8.83h-3.443v-1.815h-0.102c-0.211 0.409-0.492 0.77-0.844 1.082-0.352 0.307-0.776 0.548-1.27 0.724-0.494 0.171-1.065 0.256-1.713 0.256zm1.04-2.506c0.534 0 1.005-0.105 1.414-0.315 0.409-0.216 0.73-0.506 0.963-0.869 0.233-0.364 0.35-0.776 0.35-1.236v-1.389c-0.114 0.074-0.27 0.142-0.469 0.204-0.193 0.057-0.412 0.111-0.656 0.162-0.244 0.046-0.489 0.088-0.733 0.128-0.244 0.034-0.466 0.065-0.665 0.094-0.426 0.062-0.798 0.162-1.116 0.298-0.319 0.137-0.566 0.321-0.742 0.554-0.176 0.227-0.264 0.512-0.264 0.852 0 0.495 0.179 0.873 0.537 1.134 0.364 0.256 0.824 0.383 1.381 0.383zm15.064 2.515c-1.324 0-2.469-0.282-3.435-0.844-0.96-0.568-1.702-1.358-2.225-2.369-0.522-1.017-0.784-2.196-0.784-3.537 0-1.353 0.262-2.534 0.784-3.546 0.523-1.017 1.265-1.807 2.225-2.369 0.966-0.568 2.111-0.852 3.435-0.852 1.323 0 2.465 0.284 3.426 0.852 0.966 0.562 1.71 1.352 2.233 2.369 0.522 1.012 0.784 2.193 0.784 3.546 0 1.341-0.262 2.52-0.784 3.537-0.523 1.011-1.267 1.801-2.233 2.369-0.961 0.562-2.103 0.844-3.426 0.844zm0.017-2.813c0.602 0 1.105-0.17 1.508-0.511 0.403-0.347 0.707-0.818 0.912-1.415 0.21-0.597 0.315-1.276 0.315-2.037s-0.105-1.44-0.315-2.037c-0.205-0.596-0.509-1.068-0.912-1.415-0.403-0.346-0.906-0.519-1.508-0.519-0.608 0-1.12 0.173-1.535 0.519-0.409 0.347-0.718 0.819-0.929 1.415-0.204 0.597-0.306 1.276-0.306 2.037s0.102 1.44 0.306 2.037c0.211 0.597 0.52 1.068 0.929 1.415 0.415 0.341 0.927 0.511 1.535 0.511zm14.409 2.557v-17.455h3.631v6.563h0.111c0.159-0.352 0.389-0.71 0.69-1.074 0.307-0.369 0.705-0.676 1.193-0.92 0.495-0.25 1.108-0.375 1.841-0.375 0.955 0 1.835 0.25 2.642 0.75 0.807 0.494 1.452 1.241 1.935 2.241 0.483 0.994 0.724 2.242 0.724 3.742 0 1.46-0.235 2.693-0.707 3.698-0.466 1-1.102 1.759-1.909 2.276-0.801 0.511-1.699 0.767-2.693 0.767-0.705 0-1.304-0.116-1.799-0.349-0.488-0.233-0.889-0.526-1.201-0.878-0.313-0.358-0.551-0.719-0.716-1.083h-0.162v2.097h-3.58zm3.554-6.545c0 0.778 0.108 1.457 0.324 2.036 0.216 0.58 0.529 1.032 0.938 1.356 0.409 0.318 0.906 0.477 1.491 0.477 0.591 0 1.091-0.162 1.5-0.486 0.409-0.329 0.719-0.784 0.929-1.364 0.216-0.585 0.324-1.258 0.324-2.019 0-0.756-0.105-1.421-0.315-1.995-0.211-0.574-0.52-1.023-0.929-1.346-0.409-0.324-0.912-0.486-1.509-0.486-0.591 0-1.091 0.156-1.5 0.469-0.403 0.312-0.713 0.755-0.929 1.329s-0.324 1.25-0.324 2.029zm17.602 6.801c-1.347 0-2.506-0.273-3.477-0.818-0.966-0.552-1.711-1.33-2.233-2.336-0.523-1.011-0.784-2.207-0.784-3.588 0-1.346 0.261-2.528 0.784-3.545 0.522-1.017 1.258-1.81 2.207-2.378 0.955-0.568 2.074-0.852 3.358-0.852 0.864 0 1.668 0.139 2.412 0.417 0.75 0.273 1.403 0.685 1.96 1.236 0.563 0.551 1 1.244 1.313 2.08 0.312 0.829 0.468 1.801 0.468 2.914v0.998h-11.054v-2.25h7.637c0-0.523-0.114-0.986-0.341-1.39-0.227-0.403-0.543-0.718-0.946-0.946-0.398-0.233-0.861-0.349-1.389-0.349-0.551 0-1.04 0.128-1.466 0.383-0.421 0.25-0.75 0.588-0.989 1.015-0.239 0.42-0.361 0.889-0.366 1.406v2.139c0 0.648 0.119 1.207 0.358 1.679 0.244 0.472 0.588 0.835 1.031 1.091s0.969 0.383 1.577 0.383c0.403 0 0.772-0.056 1.108-0.17 0.335-0.114 0.622-0.284 0.86-0.511 0.239-0.228 0.421-0.506 0.546-0.836l3.358 0.222c-0.171 0.807-0.52 1.511-1.049 2.114-0.522 0.596-1.198 1.062-2.028 1.397-0.824 0.33-1.776 0.495-2.855 0.495zm8.378-0.256v-13.091h3.46v2.31h0.153c0.273-0.767 0.728-1.372 1.364-1.816 0.636-0.443 1.398-0.664 2.284-0.664 0.898 0 1.662 0.224 2.293 0.673 0.63 0.443 1.051 1.045 1.261 1.807h0.136c0.267-0.75 0.75-1.35 1.449-1.799 0.705-0.454 1.537-0.681 2.497-0.681 1.222 0 2.214 0.389 2.975 1.167 0.767 0.773 1.15 1.87 1.15 3.29v8.804h-3.622v-8.088c0-0.727-0.193-1.273-0.579-1.636-0.387-0.364-0.87-0.546-1.449-0.546-0.659 0-1.173 0.21-1.543 0.631-0.369 0.415-0.554 0.963-0.554 1.645v7.994h-3.52v-8.165c0-0.642-0.184-1.153-0.554-1.534-0.363-0.381-0.843-0.571-1.44-0.571-0.403 0-0.767 0.102-1.091 0.307-0.318 0.199-0.571 0.48-0.758 0.844-0.188 0.358-0.282 0.778-0.282 1.261v7.858h-3.63z" fill="#000"/>
<path d="m139.58 285.46v-9h0.971v1.039h0.12c0.073-0.113 0.176-0.258 0.306-0.434 0.134-0.179 0.324-0.338 0.571-0.478 0.25-0.142 0.589-0.213 1.015-0.213 0.551 0 1.037 0.138 1.457 0.414 0.421 0.275 0.749 0.666 0.984 1.172 0.236 0.505 0.354 1.102 0.354 1.789 0 0.694-0.118 1.294-0.354 1.803-0.235 0.506-0.562 0.898-0.98 1.176-0.417 0.276-0.899 0.413-1.444 0.413-0.421 0-0.757-0.069-1.01-0.208-0.253-0.142-0.448-0.303-0.584-0.482-0.136-0.182-0.242-0.332-0.315-0.452h-0.086v3.461h-1.005zm0.988-5.728c0 0.495 0.073 0.931 0.218 1.309 0.145 0.375 0.356 0.669 0.635 0.882 0.278 0.21 0.619 0.315 1.022 0.315 0.421 0 0.772-0.111 1.053-0.332 0.284-0.225 0.497-0.526 0.639-0.904 0.145-0.381 0.217-0.804 0.217-1.27 0-0.46-0.071-0.875-0.213-1.244-0.139-0.372-0.35-0.666-0.635-0.882-0.281-0.219-0.635-0.328-1.061-0.328-0.409 0-0.752 0.103-1.031 0.311-0.278 0.204-0.489 0.491-0.631 0.861-0.142 0.366-0.213 0.794-0.213 1.282zm7.33-5.454v8.727h-1.006v-8.727h1.006zm3.768 8.88c-0.415 0-0.791-0.078-1.129-0.234-0.338-0.159-0.607-0.388-0.806-0.686-0.199-0.301-0.298-0.665-0.298-1.091 0-0.375 0.074-0.679 0.222-0.912 0.147-0.236 0.345-0.42 0.592-0.554 0.247-0.133 0.52-0.233 0.818-0.298 0.301-0.068 0.604-0.122 0.908-0.162 0.398-0.051 0.72-0.09 0.967-0.115 0.25-0.029 0.432-0.075 0.546-0.141 0.116-0.065 0.174-0.179 0.174-0.341v-0.034c0-0.42-0.115-0.747-0.345-0.98-0.227-0.233-0.572-0.349-1.035-0.349-0.48 0-0.857 0.105-1.13 0.315-0.272 0.21-0.464 0.435-0.575 0.673l-0.954-0.341c0.17-0.397 0.397-0.707 0.681-0.929 0.287-0.224 0.6-0.38 0.938-0.468 0.341-0.091 0.676-0.137 1.006-0.137 0.21 0 0.451 0.026 0.724 0.077 0.276 0.048 0.541 0.149 0.797 0.303 0.258 0.153 0.473 0.385 0.643 0.694 0.171 0.31 0.256 0.725 0.256 1.245v4.312h-1.006v-0.886h-0.051c-0.068 0.142-0.182 0.294-0.341 0.456s-0.37 0.299-0.635 0.413c-0.264 0.114-0.586 0.17-0.967 0.17zm0.153-0.903c0.398 0 0.733-0.078 1.006-0.234 0.276-0.157 0.483-0.358 0.622-0.605 0.142-0.248 0.213-0.508 0.213-0.78v-0.921c-0.042 0.051-0.136 0.098-0.281 0.141-0.142 0.04-0.307 0.075-0.494 0.106-0.185 0.029-0.365 0.054-0.541 0.077-0.174 0.02-0.314 0.037-0.422 0.051-0.262 0.034-0.506 0.09-0.733 0.166-0.225 0.074-0.407 0.186-0.546 0.337-0.136 0.148-0.204 0.349-0.204 0.605 0 0.35 0.129 0.614 0.388 0.793 0.261 0.176 0.592 0.264 0.992 0.264zm7.342 0.886c-0.614 0-1.142-0.145-1.586-0.434-0.443-0.29-0.784-0.689-1.022-1.198-0.239-0.508-0.358-1.089-0.358-1.743 0-0.664 0.122-1.251 0.366-1.76 0.247-0.511 0.591-0.91 1.031-1.197 0.444-0.29 0.961-0.435 1.552-0.435 0.46 0 0.875 0.086 1.244 0.256s0.672 0.409 0.908 0.716c0.235 0.307 0.382 0.665 0.439 1.074h-1.006c-0.077-0.299-0.247-0.563-0.512-0.793-0.261-0.233-0.613-0.349-1.056-0.349-0.392 0-0.736 0.102-1.032 0.307-0.292 0.201-0.521 0.487-0.686 0.856-0.162 0.367-0.243 0.797-0.243 1.291 0 0.506 0.08 0.946 0.239 1.321 0.162 0.375 0.389 0.666 0.682 0.874 0.295 0.207 0.642 0.311 1.04 0.311 0.261 0 0.498-0.045 0.711-0.136s0.394-0.222 0.542-0.392c0.147-0.171 0.252-0.375 0.315-0.614h1.006c-0.057 0.386-0.198 0.734-0.422 1.044-0.222 0.307-0.516 0.551-0.882 0.733-0.364 0.179-0.787 0.268-1.27 0.268zm6.788 0c-0.631 0-1.175-0.139-1.632-0.417-0.455-0.281-0.805-0.674-1.053-1.176-0.244-0.506-0.366-1.094-0.366-1.765 0-0.67 0.122-1.261 0.366-1.772 0.248-0.515 0.591-0.915 1.032-1.202 0.443-0.29 0.96-0.435 1.551-0.435 0.341 0 0.677 0.057 1.01 0.171 0.332 0.113 0.635 0.298 0.907 0.554 0.273 0.253 0.49 0.588 0.652 1.005 0.162 0.418 0.243 0.932 0.243 1.543v0.426h-5.045v-0.869h4.023c0-0.369-0.074-0.699-0.222-0.989-0.145-0.29-0.352-0.518-0.622-0.686-0.267-0.167-0.583-0.251-0.946-0.251-0.401 0-0.747 0.099-1.04 0.298-0.29 0.196-0.513 0.452-0.669 0.767s-0.234 0.653-0.234 1.014v0.58c0 0.494 0.085 0.913 0.255 1.257 0.174 0.341 0.414 0.601 0.72 0.78 0.307 0.176 0.664 0.264 1.07 0.264 0.264 0 0.503-0.037 0.716-0.111 0.216-0.077 0.402-0.19 0.558-0.341 0.156-0.153 0.277-0.344 0.362-0.571l0.972 0.273c-0.102 0.329-0.274 0.619-0.516 0.869-0.241 0.247-0.539 0.441-0.895 0.58-0.355 0.136-0.754 0.204-1.197 0.204zm5.246-4.074v3.938h-1.006v-8.727h1.006v3.204h0.085c0.153-0.338 0.384-0.606 0.69-0.805 0.31-0.202 0.722-0.303 1.236-0.303 0.446 0 0.837 0.09 1.172 0.269 0.335 0.176 0.595 0.447 0.78 0.814 0.187 0.363 0.281 0.826 0.281 1.389v4.159h-1.006v-4.091c0-0.52-0.135-0.922-0.404-1.206-0.267-0.287-0.638-0.43-1.113-0.43-0.329 0-0.625 0.069-0.886 0.209-0.259 0.139-0.463 0.342-0.614 0.609-0.147 0.267-0.221 0.591-0.221 0.971zm8.743 4.074c-0.591 0-1.109-0.14-1.555-0.422-0.444-0.281-0.79-0.674-1.04-1.18-0.247-0.506-0.371-1.097-0.371-1.773 0-0.681 0.124-1.277 0.371-1.785 0.25-0.509 0.596-0.904 1.04-1.185 0.446-0.281 0.964-0.422 1.555-0.422s1.108 0.141 1.551 0.422c0.446 0.281 0.793 0.676 1.04 1.185 0.25 0.508 0.375 1.104 0.375 1.785 0 0.676-0.125 1.267-0.375 1.773-0.247 0.506-0.594 0.899-1.04 1.18-0.443 0.282-0.96 0.422-1.551 0.422zm0-0.903c0.449 0 0.818-0.115 1.108-0.345s0.504-0.533 0.643-0.908c0.14-0.375 0.209-0.781 0.209-1.219 0-0.437-0.069-0.845-0.209-1.223-0.139-0.377-0.353-0.683-0.643-0.916s-0.659-0.349-1.108-0.349-0.818 0.116-1.108 0.349-0.504 0.539-0.643 0.916c-0.14 0.378-0.209 0.786-0.209 1.223 0 0.438 0.069 0.844 0.209 1.219 0.139 0.375 0.353 0.678 0.643 0.908s0.659 0.345 1.108 0.345zm5.507-7.96v8.727h-1.006v-8.727h1.006zm4.313 8.863c-0.545 0-1.027-0.137-1.444-0.413-0.418-0.278-0.745-0.67-0.98-1.176-0.236-0.509-0.354-1.109-0.354-1.803 0-0.687 0.118-1.284 0.354-1.789 0.235-0.506 0.564-0.897 0.984-1.172 0.42-0.276 0.906-0.414 1.457-0.414 0.427 0 0.763 0.071 1.01 0.213 0.25 0.14 0.441 0.299 0.571 0.478 0.134 0.176 0.238 0.321 0.311 0.434h0.086v-3.221h1.005v8.727h-0.971v-1.006h-0.12c-0.073 0.12-0.179 0.27-0.315 0.452-0.136 0.179-0.331 0.34-0.584 0.482-0.253 0.139-0.589 0.208-1.01 0.208zm0.137-0.903c0.403 0 0.744-0.105 1.022-0.315 0.279-0.213 0.49-0.507 0.635-0.882 0.145-0.378 0.218-0.814 0.218-1.309 0-0.488-0.071-0.916-0.213-1.282-0.142-0.37-0.353-0.657-0.631-0.861-0.278-0.208-0.622-0.311-1.031-0.311-0.426 0-0.782 0.109-1.066 0.328-0.281 0.216-0.493 0.51-0.635 0.882-0.139 0.369-0.208 0.784-0.208 1.244 0 0.466 0.071 0.889 0.213 1.27 0.145 0.378 0.358 0.679 0.639 0.904 0.284 0.221 0.636 0.332 1.057 0.332zm7.589 0.903c-0.631 0-1.175-0.139-1.632-0.417-0.454-0.281-0.805-0.674-1.052-1.176-0.245-0.506-0.367-1.094-0.367-1.765 0-0.67 0.122-1.261 0.367-1.772 0.247-0.515 0.59-0.915 1.031-1.202 0.443-0.29 0.96-0.435 1.551-0.435 0.341 0 0.677 0.057 1.01 0.171 0.332 0.113 0.635 0.298 0.908 0.554 0.272 0.253 0.49 0.588 0.652 1.005 0.161 0.418 0.242 0.932 0.242 1.543v0.426h-5.045v-0.869h4.023c0-0.369-0.074-0.699-0.222-0.989-0.145-0.29-0.352-0.518-0.622-0.686-0.267-0.167-0.582-0.251-0.946-0.251-0.401 0-0.747 0.099-1.04 0.298-0.29 0.196-0.513 0.452-0.669 0.767s-0.234 0.653-0.234 1.014v0.58c0 0.494 0.085 0.913 0.255 1.257 0.174 0.341 0.414 0.601 0.721 0.78 0.306 0.176 0.663 0.264 1.069 0.264 0.264 0 0.503-0.037 0.716-0.111 0.216-0.077 0.402-0.19 0.558-0.341 0.157-0.153 0.277-0.344 0.363-0.571l0.971 0.273c-0.102 0.329-0.274 0.619-0.515 0.869-0.242 0.247-0.54 0.441-0.895 0.58-0.355 0.136-0.755 0.204-1.198 0.204zm4.24-0.136v-6.545h0.972v0.988h0.068c0.119-0.324 0.335-0.586 0.648-0.788 0.312-0.202 0.665-0.303 1.057-0.303 0.073 0 0.166 2e-3 0.277 5e-3 0.11 2e-3 0.194 7e-3 0.251 0.012v1.023c-0.034-8e-3 -0.112-0.021-0.234-0.038-0.12-0.02-0.246-0.03-0.38-0.03-0.318 0-0.602 0.067-0.852 0.2-0.247 0.131-0.443 0.313-0.588 0.546-0.142 0.23-0.213 0.492-0.213 0.788v4.142h-1.006zm10.499 0.136c-0.613 0-1.142-0.145-1.585-0.434-0.443-0.29-0.784-0.689-1.023-1.198-0.238-0.508-0.358-1.089-0.358-1.743 0-0.664 0.122-1.251 0.367-1.76 0.247-0.511 0.591-0.91 1.031-1.197 0.443-0.29 0.96-0.435 1.551-0.435 0.46 0 0.875 0.086 1.244 0.256 0.37 0.17 0.672 0.409 0.908 0.716s0.382 0.665 0.439 1.074h-1.006c-0.076-0.299-0.247-0.563-0.511-0.793-0.261-0.233-0.614-0.349-1.057-0.349-0.392 0-0.736 0.102-1.031 0.307-0.293 0.201-0.521 0.487-0.686 0.856-0.162 0.367-0.243 0.797-0.243 1.291 0 0.506 0.079 0.946 0.239 1.321 0.162 0.375 0.389 0.666 0.681 0.874 0.296 0.207 0.642 0.311 1.04 0.311 0.262 0 0.499-0.045 0.712-0.136s0.393-0.222 0.541-0.392c0.148-0.171 0.253-0.375 0.315-0.614h1.006c-0.057 0.386-0.197 0.734-0.422 1.044-0.221 0.307-0.515 0.551-0.882 0.733-0.364 0.179-0.787 0.268-1.27 0.268zm5.97 0.017c-0.414 0-0.791-0.078-1.129-0.234-0.338-0.159-0.606-0.388-0.805-0.686-0.199-0.301-0.299-0.665-0.299-1.091 0-0.375 0.074-0.679 0.222-0.912 0.148-0.236 0.345-0.42 0.592-0.554 0.247-0.133 0.52-0.233 0.818-0.298 0.302-0.068 0.604-0.122 0.908-0.162 0.398-0.051 0.72-0.09 0.967-0.115 0.25-0.029 0.432-0.075 0.546-0.141 0.116-0.065 0.175-0.179 0.175-0.341v-0.034c0-0.42-0.115-0.747-0.346-0.98-0.227-0.233-0.572-0.349-1.035-0.349-0.48 0-0.857 0.105-1.129 0.315-0.273 0.21-0.465 0.435-0.576 0.673l-0.954-0.341c0.17-0.397 0.398-0.707 0.682-0.929 0.287-0.224 0.599-0.38 0.937-0.468 0.341-0.091 0.676-0.137 1.006-0.137 0.21 0 0.452 0.026 0.724 0.077 0.276 0.048 0.542 0.149 0.797 0.303 0.259 0.153 0.473 0.385 0.644 0.694 0.17 0.31 0.255 0.725 0.255 1.245v4.312h-1.005v-0.886h-0.051c-0.069 0.142-0.182 0.294-0.341 0.456s-0.371 0.299-0.635 0.413c-0.265 0.114-0.587 0.17-0.968 0.17zm0.154-0.903c0.397 0 0.733-0.078 1.005-0.234 0.276-0.157 0.483-0.358 0.623-0.605 0.142-0.248 0.213-0.508 0.213-0.78v-0.921c-0.043 0.051-0.137 0.098-0.282 0.141-0.142 0.04-0.306 0.075-0.494 0.106-0.185 0.029-0.365 0.054-0.541 0.077-0.173 0.02-0.314 0.037-0.422 0.051-0.261 0.034-0.506 0.09-0.733 0.166-0.224 0.074-0.406 0.186-0.545 0.337-0.137 0.148-0.205 0.349-0.205 0.605 0 0.35 0.129 0.614 0.388 0.793 0.261 0.176 0.592 0.264 0.993 0.264zm4.682 3.205v-9h0.972v1.039h0.119c0.074-0.113 0.176-0.258 0.307-0.434 0.133-0.179 0.324-0.338 0.571-0.478 0.25-0.142 0.588-0.213 1.014-0.213 0.551 0 1.037 0.138 1.457 0.414 0.421 0.275 0.749 0.666 0.985 1.172 0.235 0.505 0.353 1.102 0.353 1.789 0 0.694-0.118 1.294-0.353 1.803-0.236 0.506-0.563 0.898-0.98 1.176-0.418 0.276-0.9 0.413-1.445 0.413-0.421 0-0.757-0.069-1.01-0.208-0.253-0.142-0.447-0.303-0.584-0.482-0.136-0.182-0.241-0.332-0.315-0.452h-0.085v3.461h-1.006zm0.989-5.728c0 0.495 0.072 0.931 0.217 1.309 0.145 0.375 0.356 0.669 0.635 0.882 0.278 0.21 0.619 0.315 1.023 0.315 0.42 0 0.771-0.111 1.052-0.332 0.284-0.225 0.497-0.526 0.639-0.904 0.145-0.381 0.218-0.804 0.218-1.27 0-0.46-0.071-0.875-0.213-1.244-0.14-0.372-0.351-0.666-0.635-0.882-0.282-0.219-0.635-0.328-1.061-0.328-0.41 0-0.753 0.103-1.032 0.311-0.278 0.204-0.488 0.491-0.63 0.861-0.142 0.366-0.213 0.794-0.213 1.282zm8.25 3.426c-0.415 0-0.792-0.078-1.13-0.234-0.338-0.159-0.606-0.388-0.805-0.686-0.199-0.301-0.298-0.665-0.298-1.091 0-0.375 0.073-0.679 0.221-0.912 0.148-0.236 0.345-0.42 0.593-0.554 0.247-0.133 0.519-0.233 0.818-0.298 0.301-0.068 0.603-0.122 0.907-0.162 0.398-0.051 0.721-0.09 0.968-0.115 0.25-0.029 0.432-0.075 0.545-0.141 0.117-0.065 0.175-0.179 0.175-0.341v-0.034c0-0.42-0.115-0.747-0.345-0.98-0.228-0.233-0.573-0.349-1.036-0.349-0.48 0-0.856 0.105-1.129 0.315s-0.465 0.435-0.575 0.673l-0.955-0.341c0.171-0.397 0.398-0.707 0.682-0.929 0.287-0.224 0.599-0.38 0.937-0.468 0.341-0.091 0.677-0.137 1.006-0.137 0.21 0 0.452 0.026 0.725 0.077 0.275 0.048 0.541 0.149 0.796 0.303 0.259 0.153 0.473 0.385 0.644 0.694 0.17 0.31 0.256 0.725 0.256 1.245v4.312h-1.006v-0.886h-0.051c-0.068 0.142-0.182 0.294-0.341 0.456s-0.371 0.299-0.635 0.413-0.587 0.17-0.967 0.17zm0.153-0.903c0.398 0 0.733-0.078 1.006-0.234 0.275-0.157 0.483-0.358 0.622-0.605 0.142-0.248 0.213-0.508 0.213-0.78v-0.921c-0.043 0.051-0.136 0.098-0.281 0.141-0.142 0.04-0.307 0.075-0.495 0.106-0.184 0.029-0.365 0.054-0.541 0.077-0.173 0.02-0.314 0.037-0.422 0.051-0.261 0.034-0.505 0.09-0.733 0.166-0.224 0.074-0.406 0.186-0.545 0.337-0.137 0.148-0.205 0.349-0.205 0.605 0 0.35 0.13 0.614 0.388 0.793 0.261 0.176 0.592 0.264 0.993 0.264zm10.529 0.886c-0.546 0-1.027-0.137-1.445-0.413-0.417-0.278-0.744-0.67-0.98-1.176-0.236-0.509-0.354-1.109-0.354-1.803 0-0.687 0.118-1.284 0.354-1.789 0.236-0.506 0.564-0.897 0.984-1.172 0.421-0.276 0.907-0.414 1.458-0.414 0.426 0 0.763 0.071 1.01 0.213 0.25 0.14 0.44 0.299 0.571 0.478 0.133 0.176 0.237 0.321 0.311 0.434h0.085v-3.221h1.006v8.727h-0.972v-1.006h-0.119c-0.074 0.12-0.179 0.27-0.316 0.452-0.136 0.179-0.33 0.34-0.583 0.482-0.253 0.139-0.59 0.208-1.01 0.208zm0.136-0.903c0.404 0 0.744-0.105 1.023-0.315 0.278-0.213 0.49-0.507 0.635-0.882 0.145-0.378 0.217-0.814 0.217-1.309 0-0.488-0.071-0.916-0.213-1.282-0.142-0.37-0.352-0.657-0.631-0.861-0.278-0.208-0.622-0.311-1.031-0.311-0.426 0-0.781 0.109-1.065 0.328-0.281 0.216-0.493 0.51-0.635 0.882-0.139 0.369-0.209 0.784-0.209 1.244 0 0.466 0.071 0.889 0.213 1.27 0.145 0.378 0.358 0.679 0.639 0.904 0.284 0.221 0.637 0.332 1.057 0.332zm7.504 0.903c-0.591 0-1.109-0.14-1.555-0.422-0.443-0.281-0.79-0.674-1.04-1.18-0.247-0.506-0.371-1.097-0.371-1.773 0-0.681 0.124-1.277 0.371-1.785 0.25-0.509 0.597-0.904 1.04-1.185 0.446-0.281 0.964-0.422 1.555-0.422s1.108 0.141 1.551 0.422c0.447 0.281 0.793 0.676 1.04 1.185 0.25 0.508 0.375 1.104 0.375 1.785 0 0.676-0.125 1.267-0.375 1.773-0.247 0.506-0.593 0.899-1.04 1.18-0.443 0.282-0.96 0.422-1.551 0.422zm0-0.903c0.449 0 0.819-0.115 1.108-0.345 0.29-0.23 0.505-0.533 0.644-0.908s0.209-0.781 0.209-1.219c0-0.437-0.07-0.845-0.209-1.223-0.139-0.377-0.354-0.683-0.644-0.916-0.289-0.233-0.659-0.349-1.108-0.349s-0.818 0.116-1.108 0.349c-0.289 0.233-0.504 0.539-0.643 0.916-0.139 0.378-0.209 0.786-0.209 1.223 0 0.438 0.07 0.844 0.209 1.219s0.354 0.678 0.643 0.908c0.29 0.23 0.659 0.345 1.108 0.345zm8.882-7.96v8.727h-1.006v-8.727h1.006zm1.842 8.727v-6.545h1.006v6.545h-1.006zm0.511-7.636c-0.196 0-0.365-0.067-0.507-0.201-0.139-0.133-0.208-0.294-0.208-0.481 0-0.188 0.069-0.348 0.208-0.482 0.142-0.133 0.311-0.2 0.507-0.2s0.364 0.067 0.503 0.2c0.142 0.134 0.213 0.294 0.213 0.482 0 0.187-0.071 0.348-0.213 0.481-0.139 0.134-0.307 0.201-0.503 0.201zm7.689 1.091-2.42 6.545h-1.023l-2.421-6.545h1.091l1.807 5.215h0.068l1.807-5.215h1.091zm1.327 6.545v-6.545h0.972v0.988h0.068c0.12-0.324 0.335-0.586 0.648-0.788 0.312-0.202 0.665-0.303 1.057-0.303 0.074 0 0.166 2e-3 0.277 5e-3 0.111 2e-3 0.194 7e-3 0.251 0.012v1.023c-0.034-8e-3 -0.112-0.021-0.234-0.038-0.12-0.02-0.246-0.03-0.379-0.03-0.319 0-0.603 0.067-0.853 0.2-0.247 0.131-0.443 0.313-0.588 0.546-0.142 0.23-0.213 0.492-0.213 0.788v4.142h-1.006zm6.925 0.136c-0.591 0-1.109-0.14-1.555-0.422-0.443-0.281-0.79-0.674-1.04-1.18-0.247-0.506-0.371-1.097-0.371-1.773 0-0.681 0.124-1.277 0.371-1.785 0.25-0.509 0.597-0.904 1.04-1.185 0.446-0.281 0.964-0.422 1.555-0.422s1.108 0.141 1.551 0.422c0.446 0.281 0.793 0.676 1.04 1.185 0.25 0.508 0.375 1.104 0.375 1.785 0 0.676-0.125 1.267-0.375 1.773-0.247 0.506-0.594 0.899-1.04 1.18-0.443 0.282-0.96 0.422-1.551 0.422zm0-0.903c0.449 0 0.818-0.115 1.108-0.345s0.504-0.533 0.644-0.908c0.139-0.375 0.208-0.781 0.208-1.219 0-0.437-0.069-0.845-0.208-1.223-0.14-0.377-0.354-0.683-0.644-0.916s-0.659-0.349-1.108-0.349-0.818 0.116-1.108 0.349-0.504 0.539-0.643 0.916c-0.139 0.378-0.209 0.786-0.209 1.223 0 0.438 0.07 0.844 0.209 1.219s0.353 0.678 0.643 0.908 0.659 0.345 1.108 0.345z" fill="#000"/>
<rect x="5.5" y="5.5" width="409" height="584" stroke="#BFBFBF" stroke-dasharray="2 2"/>
</svg>
