<svg width="68" height="20" viewBox="0 0 68 20" fill="none" xmlns="http://www.w3.org/2000/svg">
<path d="M18.1694 13.432C18.1694 13.432 17.23 14.6091 13.9735 12.6624C12.4498 11.7507 12.0726 11.1811 11.8606 10.2405C11.8606 10.2405 11.2978 9.89158 10.5913 10.2652L10.4135 10.3911L10.2457 10.1026C10.2457 10.1026 10.581 9.77908 10.2367 8.80167C9.89228 7.82425 8.76543 6.90427 8.3446 6.29253C7.92377 5.68079 7.64165 5.14049 7.8486 4.66475C8.05903 4.18837 8.49788 4.23345 8.51988 4.37294C8.54472 4.50833 8.37519 4.89467 8.79784 5.26207C9.22048 5.62948 9.84169 5.39709 10.0166 5.02053C10.1915 4.64396 10.0701 4.13876 9.54843 3.81823C9.0261 3.49423 8.19767 3.4381 7.35042 4.04208C6.50316 4.64606 6.25975 6.01838 6.74073 6.93844C7.22108 7.85503 6.75402 8.14525 6.50459 8.11566C6.25863 8.08543 4.69911 7.64314 3.36564 8.00261C2.03216 8.36209 1.05243 9.63267 1.10009 10.8116C1.1416 11.8985 1.89481 12.8942 3.02462 12.5003C4.37371 12.0303 3.65431 10.4758 2.75897 10.6221C2.0795 10.7324 2.0603 11.1558 2.0223 11.2812C1.98055 11.4252 1.43414 11.0482 1.78645 10.2695C2.17179 9.41654 3.53982 9.14761 4.70149 9.92484C5.86379 10.7056 8.85916 11.8353 10.0227 10.4126L10.3095 10.5286C10.3095 10.5286 9.89773 11.0419 10.0737 11.7273C10.0737 11.7273 11.2908 11.6332 12.3993 12.3161C13.5078 12.9991 17.7667 15.6373 17.7667 15.6373C17.7667 15.6373 16.8766 15.5387 14.6133 14.6047C12.35 13.6708 10.5313 12.6373 7.04322 13.3203C3.12248 14.0899 3.20884 17.3573 4.33311 18.4392C5.59238 19.6507 7.37595 18.8498 7.72142 17.936C8.03733 17.0958 7.53141 16.1767 6.69894 16.1572C5.81249 16.1369 5.39756 16.8481 5.50414 17.3704C5.65015 18.0684 6.10851 18.0633 6.05058 18.3538C6.01363 18.5436 5.56755 18.7331 4.90774 18.3051C4.24445 17.8778 3.81469 16.611 4.56103 15.8677C5.30737 15.1243 6.41095 15.1156 7.35205 15.3556C8.29315 15.5956 9.62376 15.4161 10.3316 14.6977C10.3316 14.6977 10.8316 14.6455 10.7847 15.1528C10.7643 15.3934 10.2756 15.6051 10.1037 16.0959C9.99628 16.4099 10.0232 16.8499 10.3077 17.501C10.5916 18.1486 10.5396 18.1976 10.5396 18.1976C10.5396 18.1976 12.2272 17.9885 13.0418 17.3438C13.8565 16.6992 13.9543 15.6478 13.6606 14.9661C13.6606 14.9661 16.0403 15.85 16.9714 16.1923C17.5412 16.4035 18.3474 16.7293 19.3731 15.7875C19.3731 15.7875 19.361 16.328 20.0043 16.4899C20.0043 16.4899 20.3517 15.9776 21.098 15.8407C21.7194 15.7266 25.2731 15.2254 27.0383 13.9721C27.0383 13.9721 25.5688 14.5683 24.3048 14.5634L23.0409 14.5584C23.0409 14.5584 21.0484 14.436 20.6096 13.4328C20.6096 13.4328 19.9486 13.4285 19.7634 13.8859C19.7634 13.8859 19.6134 13.2927 19.1699 13.1613C18.7219 13.0285 18.3613 13.1496 18.1694 13.432Z" fill="#AAAAAA"/>
<path d="M49.8069 13.432C49.8069 13.432 50.7464 14.6091 54.0028 12.6624C55.5265 11.7507 55.9037 11.1811 56.1157 10.2405C56.1157 10.2405 56.6785 9.89158 57.385 10.2652L57.5629 10.3911L57.7306 10.1026C57.7306 10.1026 57.3953 9.77908 57.7397 8.80167C58.084 7.82425 59.2109 6.90427 59.6317 6.29253C60.0525 5.68079 60.3347 5.14049 60.1277 4.66475C59.9173 4.18837 59.4784 4.23345 59.4564 4.37294C59.4316 4.50833 59.6011 4.89467 59.1785 5.26207C58.7558 5.62948 58.1346 5.39709 57.9597 5.02053C57.7848 4.64396 57.9062 4.13876 58.4279 3.81823C58.9502 3.49423 59.7786 3.4381 60.6259 4.04208C61.4732 4.64606 61.7166 6.01838 61.2356 6.93844C60.7552 7.85503 61.2223 8.14525 61.4717 8.11566C61.7177 8.08543 63.2772 7.64314 64.6107 8.00261C65.9442 8.36209 66.9239 9.63267 66.8762 10.8116C66.8347 11.8985 66.0815 12.8942 64.9517 12.5003C63.6026 12.0303 64.322 10.4758 65.2173 10.6221C65.8968 10.7324 65.916 11.1558 65.954 11.2812C65.9958 11.4252 66.5422 11.0482 66.1899 10.2695C65.8045 9.41654 64.4365 9.14761 63.2748 9.92484C62.1125 10.7056 59.1172 11.8353 57.9536 10.4126L57.6668 10.5286C57.6668 10.5286 58.0786 11.0419 57.9026 11.7273C57.9026 11.7273 56.6855 11.6332 55.577 12.3161C54.4685 12.9991 50.2096 15.6373 50.2096 15.6373C50.2096 15.6373 51.0997 15.5387 53.363 14.6047C55.6263 13.6708 57.445 12.6373 60.9331 13.3203C64.8538 14.0899 64.7675 17.3573 63.6432 18.4392C62.3839 19.6507 60.6004 18.8498 60.2549 17.936C59.939 17.0958 60.4449 16.1767 61.2774 16.1572C62.1638 16.1369 62.5788 16.8481 62.4722 17.3704C62.3262 18.0684 61.8678 18.0633 61.9257 18.3538C61.9627 18.5436 62.4088 18.7331 63.0686 18.3051C63.7319 17.8778 64.1616 16.611 63.4153 15.8677C62.669 15.1243 61.5654 15.1156 60.6243 15.3556C59.6832 15.5956 58.3526 15.4161 57.6447 14.6977C57.6447 14.6977 57.1447 14.6455 57.1916 15.1528C57.212 15.3934 57.7007 15.6051 57.8726 16.0959C57.98 16.4099 57.9531 16.8499 57.6686 17.501C57.3847 18.1486 57.4368 18.1976 57.4368 18.1976C57.4368 18.1976 55.7492 17.9885 54.9345 17.3438C54.1198 16.6992 54.022 15.6478 54.3158 14.9661C54.3158 14.9661 51.9361 15.85 51.0049 16.1923C50.4351 16.4035 49.6289 16.7293 48.6032 15.7875C48.6032 15.7875 48.6153 16.328 47.972 16.4899C47.972 16.4899 47.6247 15.9776 46.8783 15.8407C46.2569 15.7266 42.7032 15.2254 40.938 13.9721C40.938 13.9721 42.4075 14.5683 43.6715 14.5634L44.9355 14.5584C44.9355 14.5584 46.9279 14.436 47.3667 13.4328C47.3667 13.4328 48.0277 13.4285 48.2129 13.8859C48.2129 13.8859 48.3629 13.2927 48.8064 13.1613C49.2544 13.0285 49.615 13.1496 49.8069 13.432Z" fill="#AAAAAA"/>
<path d="M35.0607 11.8106C35.0607 12.4048 34.5801 12.8855 33.9858 12.8855C33.3916 12.8855 32.9109 12.4048 32.9109 11.8106C32.9109 11.2163 33.3916 10.7357 33.9858 10.7357C34.5801 10.7357 35.0607 11.2163 35.0607 11.8106ZM42.5762 10.3643C42.585 10.7575 42.4932 11.3343 42.0825 12.029C41.3003 13.3355 39.3253 13.3705 38.4296 12.9554C37.5338 12.5403 36.6512 12.147 36.4196 12.5971C36.341 13.0996 37.2848 13.3006 38.2548 13.4884C39.2248 13.6807 40.8022 14.8692 40.6667 16.3854C40.5925 17.1894 40.3259 17.7094 40.09 18.024C39.9458 18.2119 39.653 18.2075 39.5219 18.0065C39.1899 17.4909 38.5519 17.3117 38.1849 17.5783C37.8178 17.8448 37.7916 18.509 38.1761 18.9809C38.3247 19.1644 38.2417 19.4441 38.0145 19.5227C37.6431 19.6494 37.0663 19.7456 36.2798 19.5664C34.7942 19.2256 34.1518 17.3598 34.2698 16.3767C34.3878 15.3979 34.4883 14.4366 33.9858 14.3536C33.4833 14.4323 33.5838 15.3935 33.7062 16.3767C33.8241 17.3554 33.1818 19.2256 31.6962 19.5664C30.9097 19.7456 30.3285 19.6494 29.9615 19.5227C29.7387 19.4441 29.6513 19.1644 29.7998 18.9809C30.1843 18.5046 30.1581 17.8405 29.7911 17.5783C29.4241 17.3117 28.7861 17.4909 28.454 18.0065C28.3229 18.2075 28.0302 18.2119 27.886 18.024C27.65 17.7137 27.3791 17.1894 27.3092 16.3854C27.1738 14.8692 28.7512 13.6807 29.7212 13.4884C30.6912 13.2962 31.635 13.0996 31.5564 12.5971C31.3248 12.1426 30.4421 12.5403 29.5464 12.9554C28.6507 13.3705 26.6756 13.3355 25.8935 12.029C25.4784 11.3343 25.391 10.7575 25.3997 10.3643C25.4041 10.1283 25.6444 9.9579 25.8673 10.0453C26.4397 10.2681 27.0602 10.0322 27.2 9.60397C27.3398 9.17139 26.9728 8.62083 26.3829 8.46353C26.1513 8.40236 26.0552 8.12708 26.1906 7.93045C26.4135 7.60711 26.8286 7.19201 27.5714 6.87303C28.9696 6.27441 30.5907 7.41048 31.0713 8.27127C31.552 9.13206 32.0326 9.971 32.4871 9.73942C32.8454 9.38112 32.1987 8.66016 31.5258 7.93919C30.8529 7.21386 30.2761 5.32624 31.2767 4.17706C31.8098 3.5697 32.3341 3.30316 32.7055 3.18955C32.9327 3.11964 33.1687 3.29879 33.1556 3.53474C33.1206 4.14647 33.5357 4.66644 33.9858 4.66644C34.4359 4.66644 34.8509 4.14647 34.816 3.53474C34.8029 3.29879 35.0345 3.11964 35.2661 3.18955C35.6418 3.30316 36.1662 3.56533 36.6949 4.17706C37.6955 5.32187 37.1187 7.21386 36.4458 7.93919C35.7729 8.66453 35.1262 9.38112 35.4845 9.73942C35.939 9.971 36.4196 9.13206 36.9002 8.27127C37.3809 7.41048 39.002 6.27441 40.4002 6.87303C41.143 7.19201 41.5537 7.60711 41.781 7.93045C41.9164 8.12708 41.8203 8.40236 41.5887 8.46353C40.9945 8.62083 40.6274 9.17576 40.7716 9.60397C40.9114 10.0322 41.5319 10.2681 42.1043 10.0453C42.3272 9.9579 42.5675 10.1283 42.5718 10.3643H42.5762ZM35.7511 11.8106C35.7511 10.8362 34.9602 10.0453 33.9858 10.0453C33.0114 10.0453 32.2205 10.8362 32.2205 11.8106C32.2205 12.785 33.0114 13.5758 33.9858 13.5758C34.9602 13.5758 35.7511 12.785 35.7511 11.8106Z" fill="#AAAAAA"/>
</svg>
