<svg width="80" height="81" viewBox="0 0 80 81" fill="none" xmlns="http://www.w3.org/2000/svg">
<path d="M44.6982 67.008C44.1253 67.3164 43.5655 67.6523 42.9771 67.9275C41.1096 68.8005 39.1456 68.5706 37.1839 68.4229C36.137 68.3443 35.1544 68.1168 34.2408 67.582C33.425 67.1044 32.5091 66.996 31.592 67.0473C30.3426 67.1163 29.4386 66.6447 28.8859 65.5215C27.5484 62.8024 26.2144 60.0809 24.8804 57.3593C24.8114 57.2176 24.7804 57.052 24.6922 56.9234C23.662 55.4263 23.5893 53.7921 23.9359 52.0735C24.3195 50.1702 24.6791 48.2609 25.0031 46.3457C25.1972 45.1952 25.3009 44.0292 25.5141 42.8703C25.5272 43.0656 25.5427 43.2598 25.5534 43.4551C25.6177 44.7033 25.8297 44.8962 27.0386 44.6938C27.6615 44.589 28.2952 44.4687 28.8859 44.2519C31.8183 43.1764 34.6684 41.8686 36.6456 39.3698C38.126 37.4999 39.373 35.4251 40.5569 33.3467C41.3764 31.9091 41.91 30.3095 42.5734 28.7838C42.7616 28.3515 42.9593 27.9239 43.238 27.3057C42.3876 27.6916 41.6741 28.0156 40.8904 28.3717C40.8904 27.6285 41.4276 27.3557 41.854 27.0211C42.0529 26.865 42.3102 26.784 42.5353 26.659C43.8954 25.9051 44.3957 24.5735 44.0098 23.0775C43.7204 21.9567 43.5691 20.8002 43.3535 19.6426C42.5746 20.4679 41.804 21.2874 41.031 22.1044C40.5403 22.6225 40.0412 23.1335 39.5541 23.6552C39.3933 23.8279 39.1456 24.0149 39.1313 24.209C39.1051 24.5735 39.1753 24.9653 39.3111 25.3036C39.3409 25.3786 39.809 25.2881 40.0734 25.2559C40.1818 25.2428 40.2854 25.1809 40.3962 25.1392C40.6236 26.3767 39.4159 27.9048 38.2427 27.8441C37.4543 27.8036 36.6718 27.6559 35.8857 27.5547C35.657 27.5249 35.4295 27.4903 35.1496 27.5868C35.7547 27.9274 36.3597 28.2693 37.0505 28.6588C36.2799 28.8469 35.6129 29.0101 34.9459 29.1733C34.1015 29.3805 33.3059 29.7081 32.7508 30.3965C32.5436 30.6537 32.3709 31.0956 32.44 31.3934C33.0855 34.209 33.7871 37.0115 34.516 40.0022C33.5274 40.587 32.4114 41.3493 31.2084 41.9305C30.0758 42.4772 28.8704 42.9024 27.6591 43.2526C26.6289 43.5504 26.4693 43.3979 26.2894 42.32C26.1036 41.2076 25.9726 40.0868 25.8083 38.9077C25.7427 39.1018 25.6713 39.2698 25.6296 39.4436C24.6303 43.6838 23.126 47.7512 21.4478 51.7626C21.2025 52.3474 21.1155 52.9989 20.9143 53.7767C20.0912 54.3245 19.9829 54.6318 20.4271 55.8229C21.2073 57.912 22.5186 59.6866 23.8299 61.4553C24.9054 62.9048 26.0286 64.3198 27.0946 65.7764C27.9629 66.9627 28.9919 67.7655 30.5355 67.9608C31.5098 68.0847 32.4721 68.5015 33.3761 68.9255C34.8161 69.6009 36.3013 70.0225 37.8842 70.1273C38.3702 70.1595 38.8454 70.1952 38.8013 69.4317C38.9991 70.163 38.7287 70.5346 38.0284 70.5966C37.4805 70.6442 36.9314 70.6752 36.268 70.7204C36.6729 71.2076 37.0243 71.5923 37.3304 72.0115C37.6008 72.382 37.9438 72.5213 38.3869 72.563C39.2754 72.6452 40.1615 72.7631 41.0453 72.8881C41.2728 72.9203 41.4895 73.0335 41.6539 73.0906C39.7875 73.4682 37.8902 73.8517 35.9929 74.2352C35.9952 74.2674 35.9964 74.3007 35.9988 74.3329C37.1756 74.2686 38.3535 74.2102 39.5303 74.1387C39.9662 74.1125 40.4081 74.1018 40.8321 74.0101C42.0553 73.7469 43.2773 73.4694 44.485 73.1406C44.728 73.0751 44.9555 72.7881 45.0924 72.5475C45.2306 72.3045 45.127 72.1163 44.7792 72.089C42.9438 71.9448 41.112 71.765 39.2766 71.6292C38.631 71.5816 37.9783 71.6221 37.2482 71.6221C37.172 71.4827 37.0636 71.2862 36.9457 71.0694C38.5798 70.8193 40.1579 70.6144 41.7206 70.325C42.5317 70.1749 43.3356 69.9296 44.1039 69.6283C44.8578 69.3329 45.5498 68.8862 46.2918 68.5539C46.7206 68.3622 47.1827 68.193 47.6448 68.1395C48.8061 68.0025 49.5231 68.7707 49.3111 69.9177C49.036 71.4005 48.3011 72.6773 47.0851 73.5289C45.9917 74.2936 44.7589 74.8843 43.5322 75.4251C42.989 75.6645 42.3078 75.593 41.6968 75.7097C42.9438 75.8169 44.117 75.5275 45.2127 74.9677C47.2125 73.9446 49.1479 72.8226 50.651 71.0897C50.9845 70.705 51.4121 70.4024 51.8302 70.0916C50.863 72.1199 49.6482 73.9529 47.7937 75.2941L47.889 75.4274C48.3083 75.1595 48.762 74.9344 49.1408 74.6163C50.3044 73.6397 51.1191 72.3784 51.7123 71.0111C52.2006 69.8879 52.9212 69.1471 54.0336 68.6314C56.2072 67.6237 58.288 66.4077 60.4831 65.4548C62.9819 64.3698 65.6534 63.9363 68.3809 63.9589C69.1086 63.9648 69.8483 64.0649 70.5581 64.2304C73.8657 64.9987 74.273 68.7052 73.1653 70.6013C73.0069 70.8717 72.8354 71.1337 72.7294 71.4291C74.0253 70.5203 74.1682 69.0768 74.4385 67.7238C75.1234 69.0196 75.2461 71.9353 72.9176 73.6945C74.8483 72.7571 75.9738 71.1361 76.2692 69.0804C76.7432 65.7919 74.56 64.1828 72.016 62.8393C72.2327 62.8965 72.4543 62.9358 72.6639 63.012C75.8726 64.1721 77.9045 67.5678 77.5424 70.9753C77.2363 73.8517 75.8392 76.0432 73.5893 77.7547C69.4279 80.9216 63.7508 80.2851 58.7132 80.3167C54.965 80.3405 51.2156 80.1416 47.465 80.0725C46.7563 80.0594 46.0465 80.2405 45.3366 80.2536C42.6984 80.3024 40.0591 80.3607 37.4209 80.3393C31.5265 80.2929 25.632 80.1857 19.7363 80.1297C7.89736 80.0173 3.99353 76.0361 2.5841 71.634C2.04098 69.3353 2.86161 67.3164 4.33493 65.5775C6.25847 63.3074 8.81445 62.3188 11.7349 62.1723C12.2101 62.1485 12.6889 62.1402 13.1629 62.1664C13.7644 62.1997 14.2694 62.0258 14.7792 61.6959C15.7856 61.0432 16.91 61.2076 18.0153 61.3731C18.3071 61.416 18.5941 61.4887 18.9967 61.5709C18.818 61.2469 18.7108 60.9801 18.5441 60.7586C17.3399 59.1495 16.9135 57.3105 16.8576 55.3405C16.7575 51.8317 17.178 48.3705 17.7425 44.9201C18.076 42.8846 18.3642 40.8538 18.3178 38.7719C18.2832 37.2331 18.5262 35.6895 18.5977 34.1459C18.6191 33.6826 18.5346 33.1966 18.4035 32.7488C18.1987 32.0544 18.2785 31.4279 18.6144 30.8002C19.5303 29.0851 20.7904 27.6642 22.5853 26.9198C25.3092 25.7919 28.101 24.826 30.8666 23.7969C31.2906 23.6385 31.7599 23.5682 32.147 23.3491C32.9486 22.8953 33.4083 22.2235 33.4691 21.2397C33.5334 20.2071 33.581 19.265 32.7949 18.411C32.3685 17.9477 32.1768 17.2688 31.8623 16.6542C31.6849 16.709 31.5038 16.8293 31.3621 16.7936C31.1239 16.734 30.7987 16.6304 30.707 16.447C30.202 15.4394 29.7494 14.4043 29.2944 13.3729C28.9455 12.5832 28.7918 11.7757 29.2516 10.9729C29.5993 10.3643 30.0424 10.3286 30.601 10.9622C30.57 10.3893 30.5534 9.92959 30.5188 9.47104C30.4021 7.88814 30.5033 6.34217 31.1858 4.87242C32.9378 1.10158 37.7354 -0.705235 41.5979 0.982474C43.9181 1.99605 45.6272 3.60039 46.193 6.15518C46.3788 6.99605 46.3311 7.88814 46.3966 8.75641C46.4252 9.13517 46.5229 9.51868 46.4895 9.89029C46.4621 10.1928 46.2704 10.4787 46.181 10.78C46.1453 10.8991 46.193 11.0432 46.2025 11.1766L46.2215 11.1564C46.1787 10.8669 45.9775 10.5431 46.0156 10.2656C46.0942 8.73037 46.3285 6.84901 45.5781 5.1875C44.3466 2.4612 42.1958 1.1834 39.3409 0.734375C38.282 0.567629 37.1506 1.83883 37.409 2.99891C37.5591 3.67185 37.8878 4.34598 38.288 4.91173C38.8907 5.76332 39.323 6.54465 38.8931 7.64636C38.5524 8.52059 39.2015 9.23164 40.1413 9.13636C40.7523 9.07442 41.3561 8.94579 41.9659 8.86837C42.833 8.7576 43.4428 9.13874 43.8144 10.1071C42.7461 9.53655 41.8278 9.40672 41.5181 10.8086C41.449 11.1194 41.2942 11.5661 41.7647 11.7257C42.0874 11.8353 42.4507 11.8198 42.8211 11.9996C42.4733 12.1676 42.1267 12.3343 41.7432 12.5189C41.8719 13.1811 42.4924 13.012 43.0272 13.2264C42.8163 13.4825 42.6448 13.7004 42.465 13.9112C42.0565 14.3912 41.6467 14.8688 41.2335 15.3441C41.1215 15.4727 41 15.5918 40.8821 15.7157C40.7558 15.5775 40.5867 15.4608 40.5105 15.2988C39.8745 13.9613 39.2563 12.6154 38.5417 11.2505C38.5417 11.547 38.5453 11.8436 38.5417 12.1414C38.5298 12.856 38.4988 13.5706 38.5036 14.284C38.5095 15.119 38.6644 15.2678 39.4921 15.35C39.6803 15.3691 39.8638 15.4286 40.146 15.4918C39.5374 16.0063 39.0014 16.4589 38.4655 16.9115C38.4881 16.9782 38.5119 17.0449 38.5345 17.1116C39.1634 17.2855 39.7904 17.4102 40.4545 17.4609C40.0092 17.6719 39.4147 17.8107 38.9062 17.8965C38.9109 17.9489 38.9157 18.0025 38.9216 18.0549C39.0265 18.068 39.1479 18.0501 39.2325 18.099C39.4457 18.2216 39.641 18.3741 39.8435 18.5146C39.678 18.6885 39.5422 18.9184 39.3409 19.0232C38.8966 19.2543 38.4774 19.4651 38.5822 20.0749C38.6691 20.5811 39.2087 21.1016 39.778 21.0373C40.2612 20.9827 41.0476 20.7804 41.5859 20.4922C43.3308 19.5548 44.2578 17.5391 45.0603 16.2314C45.1186 16.0849 45.1675 15.9348 45.2223 15.7848C45.8595 16.1778 45.9881 16.0837 46.4467 14.9058C46.4324 15.7514 46.181 16.0778 45.4176 16.3088C45.2913 16.3469 45.1722 16.4875 45.0984 16.6102C44.6506 17.3546 44.2015 18.099 43.7882 18.8612C43.6763 19.0685 43.6429 19.3436 43.6477 19.5866C43.6584 20.1595 43.712 20.7312 43.7466 21.2612C43.8252 21.3255 43.8526 21.3672 43.8847 21.3719C45.1496 21.5542 45.5105 21.921 45.7951 23.2371C46.0203 24.2805 45.844 25.2964 45.5962 26.2981C44.8054 29.4877 44.1837 32.7309 42.7318 35.7204C42.7092 35.7669 42.7234 35.8312 42.7139 36.0015C44.1896 33.5182 44.9173 30.8515 45.7928 28.2466C46.2215 26.9708 46.4895 26.2981 46.9707 29.8081C47.1005 33.5635 46.3895 37.1104 44.6315 40.412C42.8402 43.7755 40.1317 46.1456 36.5979 47.5916C38.1606 47.3391 39.5279 46.6471 40.8047 45.7562C43.7096 43.729 45.52 40.942 46.4848 37.563C47.6032 33.6504 47.9855 29.6664 47.6913 25.6133C47.6841 25.5156 47.6496 25.4191 47.6341 25.3214C47.6186 25.225 47.6127 25.1285 47.602 25.0308C47.6627 25.0165 47.7234 25.0034 47.7842 24.9891C47.9867 25.9074 48.2273 26.821 48.3821 27.7476C48.5417 28.704 48.6191 29.6735 48.7811 30.6299C48.7668 28.3431 49.1634 25.992 47.7508 24.0911C48.1248 24.1459 48.5989 24.2507 49.0777 24.2757C49.8042 24.3138 50.2246 24.583 50.5188 25.2857C50.6046 25.5466 50.7237 25.8026 50.7642 26.0718C50.9869 27.5404 51.2049 29.0101 51.3966 30.4834C51.5396 31.5792 51.6396 32.6809 51.7599 33.7802C51.7849 33.7755 51.8099 33.7719 51.8349 33.7671C51.9993 31.9436 52.1648 30.1202 52.3292 28.2967L52.4698 28.2788C52.6174 29.3519 52.7639 30.4251 52.9259 31.6102C53.2237 30.0427 53.3261 28.5837 52.8926 27.1259C52.5174 25.8646 51.8945 25.3929 50.5033 25.3012C50.8607 25.2583 51.2358 25.1249 51.5729 25.1892C53.444 25.5466 55.0269 26.5458 56.5967 27.5558C57.9402 28.4194 59.1384 29.4556 60.1341 30.7085C60.2425 30.8455 60.2687 31.1468 60.196 31.31C59.7982 32.195 59.3718 33.0692 58.924 33.9315C58.6989 34.3638 58.6596 34.7509 58.8299 35.2262C60.6236 40.2285 62.1541 45.3131 63.4583 50.4644C63.6286 51.1349 63.7096 51.8281 63.8525 52.507C63.9585 53.0132 63.8144 53.4217 63.3964 53.7028C62.328 54.421 61.2465 55.1178 60.1746 55.83C60.04 55.9194 59.8494 56.0385 59.8292 56.1659C59.5719 57.806 58.7585 59.2257 58.0688 60.6942C58.0117 60.8157 57.9759 60.9479 57.9009 61.1611C58.1891 61.1159 58.413 61.0873 58.6358 61.0432C59.8733 60.7991 61.0238 61.0277 62.1541 61.5744C62.4686 61.7269 62.9069 61.6495 63.2868 61.6328C64.51 61.578 65.732 61.466 66.9564 61.4506C67.7139 61.441 68.4571 61.5887 68.9919 62.2438C69.0824 62.3546 69.3087 62.3677 69.4767 62.401C69.7828 62.4606 70.0924 62.5011 70.4009 62.5892C64.2527 62.3224 58.5524 63.6754 53.425 67.2021C53.6215 65.8979 54.5922 64.508 56.1548 63.6861C57.4924 62.9834 58.9395 62.4903 60.1865 61.9687C59.0884 61.6816 57.1339 62.3831 54.9995 64.0089C55.227 63.5694 55.3687 63.2502 55.5486 62.9548C56.2525 61.8055 56.9874 60.674 57.6746 59.5151C58.369 58.3467 58.8764 57.0925 59.0264 55.7336C59.1932 54.2233 58.5345 53.6885 57.0529 54.028C55.6296 54.3543 54.4969 55.1225 53.9276 56.4529C52.97 58.6909 52.1446 60.9849 51.2644 63.255C50.9929 63.9565 50.757 64.6747 50.439 65.356C50.1353 66.0075 49.6434 66.4529 48.8418 66.3195C47.3507 66.0694 46.0119 66.4136 44.8113 67.326C44.6315 67.4629 44.4195 67.5594 44.161 67.5844C44.3576 67.4165 44.5553 67.2486 44.7518 67.0806C45.1889 66.8531 45.6082 66.5732 46.0679 66.4101C46.7337 66.1742 47.0422 65.7145 47.2399 65.0666C47.4459 64.3924 47.7675 63.7528 48.0379 63.099C47.0708 64.5461 46.1155 65.9765 44.6982 67.0223V67.008ZM50.7201 33.5944C50.6677 33.5968 50.6153 33.5992 50.5629 33.6004C50.5629 34.0673 50.5558 34.5342 50.5629 34.9999C50.632 38.9112 50.6415 42.8167 49.7232 46.6578C49.2396 48.6814 48.5917 50.624 47.1506 52.2021C45.3426 54.1828 43.0534 55.3012 40.47 55.8205C39.273 56.0611 38.0379 56.1171 36.8206 56.2576C38.1451 56.3017 39.485 56.3481 40.7773 56.1194C44.1217 55.5275 46.8278 53.6171 49.4159 51.5744C50.9524 50.3619 51.885 48.6325 52.6996 46.8817C55.0746 41.7852 57.652 36.7745 59.3063 31.366C59.5219 30.6609 59.4397 30.2035 58.9359 29.7307C57.4019 28.2907 55.6725 27.1545 53.7394 26.3267C53.55 26.2457 53.3452 26.2028 53.0081 26.1004C54.142 27.563 54.2956 29.1316 54.1455 30.7395C53.9514 32.825 53.6834 34.9034 53.4643 36.8448C54.3826 35.094 54.859 33.0418 55.1925 30.9384C55.6022 32.2283 55.6963 33.5337 55.3485 34.8069C54.3456 38.486 52.9283 42.0151 51.3228 45.4691C51.2096 45.7121 51.0655 45.9408 50.9047 46.229C50.9869 44.0566 51.1001 41.9687 51.1358 39.8784C51.1727 37.7726 51.0095 35.6752 50.7177 33.5921L50.7201 33.5944ZM31.1298 76.79C31.1739 76.7364 31.2192 76.6828 31.2632 76.6304C31.1036 76.4327 30.9428 76.2362 30.7868 76.0361C29.4243 74.2888 27.9676 72.6094 26.9314 70.6275C26.4633 69.7319 26.0024 68.8243 25.4343 67.9941C24.6387 66.8317 23.7823 65.6776 22.3673 65.194C19.7411 64.2983 17.0993 63.4455 14.3445 63.0263C14.0717 62.9846 13.7871 63.0203 13.3499 63.0203C18.1296 65.1916 22.7997 67.2438 26.0596 71.4625C22.9402 74.1125 15.1894 73.5647 15.439 74.2578C15.5938 74.6875 18.1302 74.8281 19.1719 74.8281C21.3125 74.8281 24.9062 74.3329 26.2513 73.5647C26.6515 73.3586 27.0493 72.8834 27.4031 72.9251C27.7568 72.9668 28.0534 73.4991 28.3726 73.8183C28.394 73.8398 28.3988 73.8767 28.4178 73.9208C27.0493 75.2702 25.4629 76.2576 23.5798 76.6876C21.8814 77.0758 20.1651 77.3879 18.4548 77.7238C17.6562 78 16.8295 77.8825 17.0938 78.1719C17.358 78.4613 20.8916 78.1609 22.6782 77.9155C25.1139 77.582 27.4686 76.9865 29.4028 75.3453C30.0007 75.8467 30.5641 76.3183 31.1286 76.7912L31.1298 76.79ZM57.191 50.7871C58.3404 50.4334 59.0896 49.8307 59.5553 48.9089C60.1698 47.6916 60.4962 46.3958 60.5796 45.0273C60.7284 42.5785 59.7875 40.4263 58.793 38.28C58.787 38.498 58.8132 38.71 58.8347 38.9232C59.0705 41.3481 59.4635 43.7695 59.0205 46.2123C58.7322 47.8 58.4142 49.3722 57.191 50.786V50.7871ZM28.8549 58.2121C28.8228 58.3086 28.7918 58.4039 28.7597 58.5003C30.819 59.4615 32.8223 60.5751 34.9507 61.3481C38.6703 62.7012 42.1291 62.0878 45.1472 59.4282C45.2508 59.3376 45.3378 59.2281 45.4319 59.128C45.0936 59.2221 44.8233 59.3865 44.5446 59.533C42.2006 60.7705 39.7351 61.6387 37.0708 61.0432C35.3068 60.649 33.6144 59.9248 31.8969 59.3305C30.8761 58.9768 29.8685 58.5873 28.8549 58.2133V58.2121ZM16.6872 62.4951C18.3487 62.9775 20.0103 63.4598 21.6718 63.941C20.2544 62.5916 18.4738 62.4832 16.6872 62.4951Z" fill="#888888"/>
<path d="M46.2037 11.1707C46.4776 10.9551 46.7516 10.7395 47.0255 10.5239C47.091 10.8765 47.2971 11.2755 47.197 11.5732C46.8409 12.6356 46.3907 13.6671 45.95 14.6985C45.8809 14.8593 45.6784 14.9641 45.5641 15.0701C45.6963 13.8827 45.8202 12.7 45.9679 11.5208C45.9845 11.3886 46.1334 11.2731 46.2227 11.1504L46.2049 11.1707H46.2037Z" fill="#888888"/>
<path d="M42.0231 68.8767C42.1255 68.8541 42.4042 68.8362 42.6377 68.7231C42.8544 68.6183 43.0224 68.4122 43.2808 68.1919C43.4035 68.461 43.5381 68.6433 43.5643 68.841C43.5964 69.0792 43.6298 69.4436 43.4976 69.5532C43.1867 69.8105 42.8425 69.6914 42.565 69.3781C42.3756 69.1638 42.1446 68.9863 42.0231 68.8767Z" fill="#888888"/>
</svg>
