<svg width="81" height="81" viewBox="0 0 81 81" fill="none" xmlns="http://www.w3.org/2000/svg">
<path fill-rule="evenodd" clip-rule="evenodd" d="M37.9456 20.2144C40.4807 21.4403 43.1085 21.3986 45.3146 20.1891C45.685 22.4587 47.2044 23.5349 49.0466 24.0034L48.5428 24.5138C46.5325 26.5504 44.5543 28.5544 42.5734 30.5558C40.6077 32.5436 38.6293 34.5189 36.1729 35.9243C35.581 36.263 34.9827 36.5954 34.3623 36.8771C32.71 37.6304 31.045 38.3712 29.3515 36.4086C29.294 36.9034 29.2432 37.3672 29.1947 37.8096L29.1947 37.8098C29.0937 38.7317 29.0028 39.5609 28.883 40.3844C28.7053 41.6049 28.5162 42.824 28.3272 44.0431L28.3272 44.0432C28.1053 45.4735 27.8835 46.9038 27.6802 48.3358C27.3288 50.7985 26.0088 52.6345 24.002 53.9734C23.4687 54.3293 22.9377 54.6904 22.4064 55.0516C20.3672 56.438 18.3245 57.8268 16.1423 58.9368C13.9107 60.07 13.0101 61.7305 12.722 63.9337C12.6017 64.8453 12.5552 66.2903 13.306 67.9171C13.306 66.7283 13.419 65.7156 13.6814 64.7674C14.2796 62.5928 15.0882 60.8582 17.1932 59.6648C19.5989 58.3005 22.1724 57.6136 24.9136 58.0536C26.4045 58.291 27.8827 58.7532 29.2882 59.3071C31.9503 60.3612 34.5681 60.4941 37.284 59.5129C40.136 58.4841 43.0229 58.3987 45.9414 59.3578C48.2205 60.108 50.5565 60.3865 52.9464 59.8674C53.3231 59.7851 53.7346 59.8547 54.1492 59.9909C42.6019 63.6912 30.8835 66.3786 18.6144 65.888C21.2702 67.0402 24.0494 67.4675 26.911 67.515C31.792 67.5973 36.5623 66.7395 41.2819 65.6791C44.1707 65.0302 47.0205 64.2037 49.8695 63.3773C50.648 63.1515 51.4265 62.9257 52.2057 62.7036C54.4595 62.061 56.498 61.0133 58.1282 59.2565C59.1601 58.1423 60.5497 57.7687 61.9994 57.7497C65.3389 57.7054 69.1469 58.6774 73.4594 61.5216C76.0675 63.2417 78.1539 65.888 77.6323 68.7199C77.0003 72.1512 70.5694 75.6444 66.2611 76.9289C61.2536 78.4219 47.2139 79.1457 36.842 79.6738C25.8253 80.2347 15.4858 79.3157 9.0486 76.9289C6.91829 76.1407 5.12351 74.9157 3.88267 72.969C1.82516 69.7435 2.53421 65.5145 5.59516 63.2417C7.79347 61.6064 9.68542 59.6546 11.577 57.703C12.4719 56.7799 13.3666 55.8568 14.2937 54.9674C15.455 53.8535 16.5858 52.7075 17.7168 51.5613C18.7715 50.4924 19.8263 49.4234 20.9062 48.3801C21.533 47.7724 21.7799 47.1267 21.8337 46.3005C22.0584 42.8312 22.2863 39.3619 22.5585 35.8958C22.739 33.6262 23.2581 31.4389 24.3248 29.4004C25.4232 27.2954 27.0914 25.8235 29.2977 25.0163C30.9215 24.4212 32.5707 23.8483 34.2547 23.5001C36.1413 23.1108 37.7525 22.5758 37.9456 20.2144ZM10.166 62.1718C7.50816 64.7674 7.09728 69.0961 8.6135 71.4416C8.52487 68.4187 9.15575 65.0397 10.166 62.1718ZM6.79801 64.7674C5.3894 66.1317 4.83866 68.3759 5.88143 70.7534C5.88143 68.8973 6.3194 66.2903 6.79801 64.7674ZM51.1795 52.7551C53.1047 50.753 55.1421 50.3776 60.0223 49.9396C57.7073 49.168 55.2508 48.8008 52.6488 49.168C54.0924 47.5081 56.0888 46.5357 58.1432 45.535C58.2827 45.4671 58.4225 45.399 58.5624 45.3306C56.6698 44.8428 54.72 45.6831 53.1469 46.3611C53.0384 46.4078 52.9318 46.4538 52.8271 46.4985C53.1197 44.4035 54.6505 42.9892 56.1679 41.5871C56.2921 41.4724 56.4161 41.3578 56.5394 41.2429C54.8744 41.398 53.7757 42.1904 52.6488 43.2033C52.6488 41.4306 52.8704 39.3334 53.1047 37.3361C52.0221 38.7858 51.5948 40.397 51.3732 42.0652C51.1326 43.8915 50.9712 45.7274 50.8098 47.5632L50.8097 47.5635C50.5533 50.4757 49.0466 52.6693 46.6093 54.0589C44.8332 55.0717 42.8648 55.7723 40.9212 56.4642L40.538 56.6007C39.6881 56.9049 38.8103 57.1306 37.9322 57.3563C37.0836 57.5745 36.2346 57.7928 35.4101 58.0821C32.7828 59.0064 30.4942 58.3385 28.041 56.8603C29.8921 56.2928 30.466 54.8905 31.0291 53.515L31.102 53.3372C36.7933 51.4031 40.8609 47.6078 43.7477 42.4735C44.4479 41.2284 45.1166 39.9657 45.7853 38.703L45.7853 38.703C46.616 37.1344 47.4467 35.5659 48.3376 34.0314C50.2558 30.7204 52.633 27.7861 55.9915 25.7001C58.2959 27.5582 59.657 30.0272 60.2015 32.876C60.8441 36.2314 61.3252 39.6215 61.7494 43.0148C62.0992 45.8066 62.3745 48.6069 62.6495 51.4058C62.7503 52.4308 62.851 53.4557 62.9554 54.4799C62.9791 54.7214 62.9734 54.9674 62.9674 55.2288C62.9646 55.351 62.9617 55.4766 62.9617 55.6068C62.4852 55.641 62.0095 55.6623 61.5362 55.6834C60.4784 55.7306 59.4321 55.7774 58.413 55.9676C56.4632 56.3348 54.5038 56.7906 52.6488 57.4807C50.3729 58.3259 48.1635 58.4588 45.8591 57.7751C45.2564 57.5975 44.6382 57.4735 43.9724 57.34L43.9723 57.34C43.6414 57.2737 43.2988 57.205 42.9406 57.1262C43.5084 56.9326 44.0798 56.7318 44.6572 56.529L44.6573 56.5289C48.583 55.1498 52.7873 53.6728 58.0458 53.6728C56.1827 52.4399 53.8578 52.587 51.7892 52.7179C51.5832 52.7309 51.3797 52.7438 51.1795 52.7551ZM31.2834 48.876C31.2696 49.7188 31.4881 51.0264 31.4881 51.0264C31.6214 50.9784 31.7442 50.9374 31.8591 50.8991C32.0771 50.8265 32.2669 50.7632 32.4472 50.6783C36.021 49.0133 38.892 46.5158 40.9653 43.1731C42.2062 41.1694 43.3204 39.0802 44.4061 36.9847C45.8812 34.1327 47.4417 31.3313 49.4771 28.8433C50.3156 27.819 51.2367 26.8654 52.177 25.892C52.614 25.4397 53.0551 24.9831 53.494 24.513C53.3485 24.1414 52.7228 23.8286 52.0346 23.8286C49.8916 25.0314 48.2331 26.2603 46.7105 28.0361C46.1924 28.6394 45.6785 29.2467 45.1645 29.8541C43.6718 31.6182 42.1788 33.3828 40.5823 35.0475C37.9582 37.7887 35.1062 40.2736 31.1431 40.9193C30.9914 42.3065 31.27 43.8286 31.4881 44.9135C31.6105 44.8682 31.7319 44.824 31.8518 44.7804C32.4602 44.559 33.027 44.3529 33.4633 44.0911C34.4534 43.5007 35.425 42.8771 36.396 42.2539C36.9243 41.9147 37.4525 41.5757 37.9835 41.2422C38.1871 41.1144 38.404 41.0089 38.6211 40.9032C38.7213 40.8545 38.8215 40.8057 38.9205 40.7547C37.0561 43.7017 34.5934 45.8384 31.4881 47.0729C31.4881 47.0729 31.295 48.1683 31.2834 48.876Z" fill="#AAAAAA"/>
<path fill-rule="evenodd" clip-rule="evenodd" d="M35.798 4.89805C36.8751 2.96682 38.9728 1.85138 41.6512 1.85137C44.5551 1.85137 46.5103 3.09066 47.5518 4.89805C48.6839 6.86257 48.5766 11.0876 48.1346 13.366C47.4191 17.0546 45.9466 20.3178 41.6512 20.2408C37.3557 20.3178 35.7376 17.0546 35.022 13.366C34.5531 10.9485 34.6475 6.96088 35.798 4.89805ZM39.9402 15.6163C39.8359 15.4789 39.6403 15.4502 39.5008 15.5526C39.3599 15.6561 39.3295 15.8542 39.433 15.9951L39.6882 15.8078C39.433 15.9951 39.433 15.9951 39.433 15.9951L39.4336 15.9959L39.4342 15.9967L39.4355 15.9984L39.4387 16.0026C39.4411 16.0058 39.444 16.0094 39.4474 16.0137C39.4542 16.0221 39.4632 16.0328 39.4743 16.0453C39.4966 16.0703 39.5277 16.1026 39.5686 16.1398C39.6505 16.2141 39.7713 16.3073 39.9382 16.3982C40.2739 16.5811 40.7853 16.7492 41.5234 16.7492C42.2617 16.7492 42.7773 16.5811 43.117 16.3993C43.286 16.3089 43.4089 16.2165 43.4924 16.1429C43.5341 16.1061 43.5659 16.0742 43.5887 16.0496C43.6 16.0373 43.6092 16.0268 43.6161 16.0185C43.6196 16.0144 43.6226 16.0108 43.625 16.0078L43.6282 16.0037L43.6296 16.002L43.6301 16.0012C43.6301 16.0012 43.6307 16.0005 43.3796 15.8078L43.6307 16.0005C43.7371 15.8618 43.711 15.6631 43.5723 15.5567C43.4349 15.4512 43.2386 15.4759 43.1314 15.6113C43.1305 15.6123 43.128 15.6152 43.1239 15.6197C43.1151 15.6293 43.0986 15.6461 43.0738 15.6679C43.0244 15.7115 42.9414 15.7753 42.8184 15.8411C42.5741 15.9718 42.1617 16.1162 41.5234 16.1162C40.8852 16.1162 40.4789 15.9718 40.2411 15.8423C40.1212 15.777 40.0413 15.7139 39.9942 15.6711C39.9705 15.6496 39.955 15.6332 39.9468 15.624C39.9433 15.62 39.9411 15.6173 39.9402 15.6163ZM43.5783 10.0427C43.7139 10.1481 43.9081 10.126 44.0167 9.99448C44.0189 9.99212 44.0256 9.98533 44.0371 9.97549C44.06 9.95591 44.1031 9.92352 44.171 9.88886C44.3053 9.82032 44.5474 9.73756 44.9406 9.73756C45.3337 9.73756 45.5824 9.82032 45.7238 9.89047C45.7952 9.92592 45.8417 9.95934 45.8673 9.98015C45.8801 9.9906 45.8878 9.99797 45.8908 10.001L45.8915 10.0017C46.0044 10.1303 46.1999 10.1461 46.3321 10.0359C46.4663 9.92398 46.4844 9.72437 46.3725 9.5901L46.1355 9.78768C46.3725 9.5901 46.3725 9.5901 46.3725 9.5901L46.3719 9.58942L46.3713 9.58871L46.37 9.58718L46.367 9.58372L46.3616 9.57764L46.3595 9.57526C46.3537 9.56897 46.3465 9.56139 46.3378 9.55272C46.3205 9.53538 46.297 9.5137 46.2671 9.48929C46.207 9.44039 46.1211 9.38086 46.0052 9.32336C45.7719 9.20762 45.4262 9.10448 44.9406 9.10448C44.455 9.10448 44.1132 9.20761 43.8832 9.32497C43.769 9.38326 43.6848 9.44382 43.6261 9.49396C43.5968 9.51897 43.5739 9.54127 43.5569 9.55924C43.5484 9.56823 43.5414 9.57612 43.5357 9.58273C43.5329 9.58603 43.5304 9.58902 43.5283 9.59165L43.5253 9.59534L43.524 9.59698L43.5234 9.59776C43.5234 9.59776 43.5228 9.59849 43.7727 9.79282L43.5228 9.59849C43.4155 9.73649 43.4403 9.93537 43.5783 10.0427ZM37.2657 9.99448C37.1571 10.126 36.9629 10.1481 36.8273 10.0427C36.6893 9.93537 36.6645 9.73649 36.7718 9.59849L37.0217 9.79282C36.7718 9.59849 36.7718 9.59849 36.7718 9.59849L36.7724 9.59776L36.773 9.59698L36.7743 9.59534L36.7772 9.59165C36.7794 9.58902 36.7819 9.58603 36.7847 9.58273C36.7904 9.57612 36.7974 9.56823 36.8059 9.55924C36.8229 9.54127 36.8458 9.51897 36.8751 9.49396C36.9338 9.44382 37.018 9.38326 37.1322 9.32497C37.3621 9.20761 37.704 9.10448 38.1896 9.10448C38.6752 9.10448 39.0209 9.20762 39.2542 9.32336C39.3701 9.38086 39.456 9.44039 39.5161 9.48929C39.546 9.5137 39.5694 9.53538 39.5868 9.55272C39.5955 9.56139 39.6027 9.56897 39.6084 9.57526C39.6113 9.57841 39.6138 9.58124 39.616 9.58372L39.619 9.58718L39.6203 9.58871L39.6209 9.58942C39.6209 9.58942 39.6214 9.5901 39.3845 9.78768L39.6214 9.5901C39.7334 9.72437 39.7153 9.92398 39.581 10.0359C39.4488 10.1461 39.2533 10.1303 39.1405 10.0017L39.1398 10.001C39.1368 9.99797 39.1291 9.9906 39.1162 9.98015C39.0907 9.95934 39.0442 9.92592 38.9728 9.89047C38.8314 9.82032 38.5827 9.73756 38.1896 9.73756C37.7964 9.73756 37.5543 9.82032 37.42 9.88886C37.3521 9.92352 37.309 9.95591 37.2861 9.97549C37.2745 9.98533 37.2679 9.99212 37.2657 9.99448Z" fill="#AAAAAA"/>
</svg>
