<svg width="80" height="81" viewBox="0 0 80 81" fill="none" xmlns="http://www.w3.org/2000/svg">
<path fill-rule="evenodd" clip-rule="evenodd" d="M37.7328 20.2144C40.2679 21.4403 42.8957 21.3986 45.1018 20.1891C45.4722 22.4587 46.9916 23.5349 48.8339 24.0034L48.33 24.5138C46.3197 26.5504 44.3415 28.5544 42.3606 30.5558C40.3949 32.5436 38.4165 34.5189 35.9602 35.9243C35.3682 36.263 34.77 36.5954 34.1496 36.8771C32.4972 37.6304 30.8322 38.3712 29.1387 36.4086C29.0812 36.9034 29.0304 37.3672 28.9819 37.8096L28.9819 37.8098C28.8809 38.7317 28.79 39.5609 28.6702 40.3844C28.4926 41.6049 28.3035 42.824 28.1144 44.0431L28.1144 44.0432C27.8926 45.4735 27.6708 46.9038 27.4674 48.3358C27.116 50.7985 25.7961 52.6345 23.7892 53.9734C23.256 54.3293 22.7249 54.6904 22.1936 55.0516C20.1544 56.438 18.1117 57.8268 15.9295 58.9368C13.6979 60.07 12.7973 61.7305 12.5093 63.9337C12.389 64.8453 12.3424 66.2903 13.0932 67.9171C13.0932 66.7283 13.2062 65.7156 13.4686 64.7674C14.0669 62.5928 14.8754 60.8582 16.9804 59.6648C19.3861 58.3005 21.9596 57.6136 24.7008 58.0536C26.1917 58.291 27.67 58.7532 29.0754 59.3071C31.7375 60.3612 34.3553 60.4941 37.0712 59.5129C39.9232 58.4841 42.8101 58.3987 45.7286 59.3578C48.0077 60.108 50.3438 60.3865 52.7336 59.8674C53.1103 59.7851 53.5218 59.8547 53.9365 59.9909C42.3891 63.6912 30.6708 66.3786 18.4017 65.888C21.0574 67.0402 23.8367 67.4675 26.6982 67.515C31.5793 67.5973 36.3495 66.7395 41.0691 65.6791C43.9579 65.0302 46.8077 64.2037 49.6567 63.3773C50.4352 63.1515 51.2137 62.9257 51.9929 62.7036C54.2467 62.061 56.2852 61.0133 57.9154 59.2565C58.9473 58.1423 60.3369 57.7687 61.7867 57.7497C65.1262 57.7054 68.9342 58.6774 73.2466 61.5216C75.8547 63.2417 77.9412 65.888 77.4195 68.7199C76.7875 72.1512 70.3567 75.6444 66.0483 76.9289C61.0408 78.4219 47.0011 79.1457 36.6293 79.6738C25.6125 80.2347 15.2731 79.3157 8.83583 76.9289C6.70552 76.1407 4.91074 74.9157 3.6699 72.969C1.61239 69.7435 2.32144 65.5145 5.38239 63.2417C7.5807 61.6064 9.47265 59.6546 11.3643 57.703C12.2591 56.7799 13.1538 55.8568 14.0809 54.9674C15.2422 53.8535 16.373 52.7075 17.504 51.5613C18.5587 50.4924 19.6135 49.4234 20.6934 48.3801C21.3202 47.7724 21.5671 47.1267 21.6209 46.3005C21.8456 42.8312 22.0735 39.3619 22.3458 35.8958C22.5262 33.6262 23.0453 31.4389 24.1121 29.4004C25.2105 27.2954 26.8786 25.8235 29.0849 25.0163C30.7088 24.4212 32.3579 23.8483 34.0419 23.5001C35.9285 23.1108 37.5397 22.5758 37.7328 20.2144ZM9.95322 62.1718C7.29539 64.7674 6.88451 69.0961 8.40073 71.4416C8.3121 68.4187 8.94298 65.0397 9.95322 62.1718ZM6.58524 64.7674C5.17663 66.1317 4.62589 68.3759 5.66867 70.7534C5.66867 68.8973 6.10663 66.2903 6.58524 64.7674ZM50.9668 52.7551C52.8919 50.753 54.9293 50.3776 59.8095 49.9396C57.4945 49.168 55.038 48.8008 52.4361 49.168C53.8796 47.5081 55.876 46.5357 57.9305 45.535C58.07 45.4671 58.2097 45.399 58.3496 45.3306C56.4571 44.8428 54.5072 45.6831 52.9341 46.3611C52.8257 46.4078 52.7191 46.4538 52.6144 46.4985C52.907 44.4035 54.4377 42.9892 55.9551 41.5871C56.0793 41.4724 56.2034 41.3578 56.3266 41.2429C54.6616 41.398 53.563 42.1904 52.4361 43.2033C52.4361 41.4306 52.6577 39.3334 52.8919 37.3361C51.8093 38.7858 51.382 40.397 51.1604 42.0652C50.9199 43.8915 50.7584 45.7274 50.597 47.5632L50.597 47.5635C50.3406 50.4757 48.8338 52.6693 46.3965 54.0589C44.6204 55.0717 42.652 55.7723 40.7084 56.4642L40.3252 56.6007C39.4753 56.9049 38.5976 57.1306 37.7195 57.3563C36.8708 57.5745 36.0218 57.7928 35.1973 58.0821C32.57 59.0064 30.2814 58.3385 27.8282 56.8603C29.6793 56.2928 30.2533 54.8905 30.8163 53.515L30.8892 53.3372C36.5806 51.4031 40.6481 47.6078 43.535 42.4735C44.2352 41.2284 44.9039 39.9657 45.5726 38.703L45.5726 38.703C46.4033 37.1344 47.2339 35.5659 48.1248 34.0314C50.043 30.7204 52.4202 27.7861 55.7787 25.7001C58.0832 27.5582 59.4443 30.0272 59.9887 32.876C60.6313 36.2314 61.1124 39.6215 61.5366 43.0148C61.8865 45.8066 62.1617 48.6069 62.4368 51.4058C62.5375 52.4308 62.6383 53.4557 62.7426 54.4799C62.7663 54.7214 62.7607 54.9674 62.7547 55.2288C62.7518 55.351 62.749 55.4766 62.749 55.6068C62.2724 55.641 61.7968 55.6623 61.3235 55.6834C60.2656 55.7306 59.2194 55.7774 58.2003 55.9676C56.2504 56.3348 54.291 56.7906 52.4361 57.4807C50.1602 58.3259 47.9507 58.4588 45.6463 57.7751C45.0436 57.5975 44.4254 57.4735 43.7596 57.34L43.7595 57.34C43.4287 57.2737 43.0861 57.205 42.7278 57.1262C43.2956 56.9326 43.867 56.7318 44.4445 56.529L44.4446 56.5289C48.3702 55.1498 52.5745 53.6728 57.8331 53.6728C55.9699 52.4399 53.6451 52.587 51.5764 52.7179C51.3704 52.7309 51.167 52.7438 50.9668 52.7551ZM31.0706 48.876C31.0569 49.7188 31.2753 51.0264 31.2753 51.0264C31.4087 50.9784 31.5314 50.9374 31.6464 50.8991C31.8643 50.8265 32.0541 50.7632 32.2345 50.6783C35.8082 49.0133 38.6792 46.5158 40.7526 43.1731C41.9934 41.1694 43.1076 39.0802 44.1933 36.9847C45.6684 34.1327 47.229 31.3313 49.2643 28.8433C50.1028 27.819 51.024 26.8654 51.9642 25.892C52.4012 25.4397 52.8423 24.9831 53.2812 24.513C53.1357 24.1414 52.5101 23.8286 51.8218 23.8286C49.6788 25.0314 48.0203 26.2603 46.4978 28.0361C45.9797 28.6394 45.4657 29.2467 44.9518 29.8541C43.4591 31.6182 41.966 33.3828 40.3695 35.0475C37.7454 37.7887 34.8934 40.2736 30.9303 40.9193C30.7787 42.3065 31.0572 43.8286 31.2753 44.9135C31.3977 44.8682 31.5192 44.824 31.639 44.7804C32.2475 44.559 32.8142 44.3529 33.2506 44.0911C34.2407 43.5007 35.2122 42.8771 36.1832 42.2539C36.7116 41.9147 37.2398 41.5757 37.7707 41.2422C37.9743 41.1144 38.1912 41.0089 38.4083 40.9032C38.5085 40.8545 38.6087 40.8057 38.7077 40.7547C36.8433 43.7017 34.3806 45.8384 31.2753 47.0729C31.2753 47.0729 31.0822 48.1683 31.0706 48.876Z" fill="#AAAAAA"/>
<path fill-rule="evenodd" clip-rule="evenodd" d="M35.5852 4.89805C36.6623 2.96682 38.76 1.85138 41.4384 1.85137C44.3423 1.85137 46.2975 3.09066 47.339 4.89805C48.4711 6.86257 48.3639 11.0876 47.9219 13.366C47.2063 17.0546 45.7339 20.3178 41.4384 20.2408C37.1429 20.3178 35.5248 17.0546 34.8093 13.366C34.3403 10.9485 34.4347 6.96088 35.5852 4.89805Z" fill="#AAAAAA"/>
</svg>
