<svg width="80" height="81" viewBox="0 0 80 81" fill="none" xmlns="http://www.w3.org/2000/svg">
<path d="M36.4239 56.4223C36.7835 58.0076 37.1416 59.5929 37.4982 61.1674C38.781 60.57 39.9078 60.0452 40.9991 59.5358C39.6176 59.7858 38.6019 59.1499 37.8394 57.969C37.4735 57.4025 37.0475 56.8746 36.6492 56.3297C36.5736 56.3606 36.498 56.3914 36.4223 56.4223H36.4239Z" fill="#AAAAAA"/>
<path fill-rule="evenodd" clip-rule="evenodd" d="M38.8227 34.6403C39.0821 34.4503 39.3424 34.261 39.6142 34.0634L39.9649 33.8083C39.3459 32.9438 38.4723 32.4314 37.526 32.0377C36.8886 31.7721 36.2469 31.5163 35.6053 31.2605L35.6051 31.2604L35.605 31.2604C34.7441 30.9172 33.8833 30.574 33.0325 30.207C32.253 29.8705 32.2175 28.8363 32.96 28.3855C33.1267 28.2837 33.4555 28.367 33.6778 28.4519C33.9143 28.543 34.1443 28.6529 34.3741 28.7627C34.6782 28.908 34.9819 29.0532 35.3001 29.1543C36.4872 29.534 37.2358 29.1095 37.5908 27.9255C37.5973 27.9039 37.6035 27.8814 37.6097 27.8587L37.6098 27.8584C37.6378 27.7566 37.6673 27.6491 37.7329 27.5798C38.3194 26.9577 38.8273 26.3202 38.8582 25.3878C38.8643 25.1779 39.2317 24.9093 39.488 24.7889C40.1579 24.4771 40.3663 24.0804 39.9865 23.3904C39.7658 22.9906 39.5435 22.5368 39.5204 22.0953C39.4941 21.6013 39.6423 21.078 39.8106 20.6026C39.8997 20.3482 40.0612 20.1199 40.2141 19.9038C40.2811 19.8091 40.3464 19.7167 40.4033 19.6255C40.4353 19.7866 40.4703 19.9616 40.5092 20.1558C40.5568 20.3935 40.6101 20.6597 40.6704 20.9638L40.7331 20.7781C40.7824 20.6323 40.821 20.5182 40.8757 20.3541C40.9041 20.4642 40.9279 20.5557 40.9492 20.6372C40.974 20.7326 40.9953 20.8143 41.0161 20.8959L41.1335 20.8866V19.7706L41.3962 20.1181C41.5378 20.3055 41.6935 20.5116 41.8898 20.7709C41.9125 20.3975 41.9339 20.0434 41.9548 19.6961C41.9895 19.1215 42.0231 18.5653 42.0596 17.9707C42.1986 18.2532 42.3066 18.4724 42.4162 18.6916C42.1692 16.5506 41.5657 14.5624 40.0822 12.9046C40.3122 13.1006 40.5422 13.2967 40.7722 13.4912C39.508 11.6265 37.6186 10.6123 35.5965 9.71701C35.6882 9.68218 35.7575 9.65605 35.8175 9.63346L35.8182 9.63319L35.9315 9.59044L35.9569 9.50168L35.9824 9.41292C35.6692 9.31915 35.3569 9.20716 35.0445 9.09515C34.3284 8.83837 33.612 8.58148 32.8844 8.54386C32.1519 8.50633 31.409 8.68634 30.6676 8.86599C30.3419 8.94494 30.0163 9.02381 29.6921 9.08413C29.7213 9.00003 29.7648 8.87205 29.8149 8.72458L29.8154 8.72305L29.8163 8.72051C29.856 8.60378 29.8997 8.47503 29.9438 8.34628C29.9086 8.32946 29.8738 8.31265 29.839 8.29583L29.838 8.29534C29.8029 8.27836 29.7678 8.26138 29.7323 8.2444C29.5761 8.57332 29.4194 8.90224 29.2587 9.2398L29.2579 9.24148C29.1344 9.50062 29.0086 9.76485 28.8787 10.0381C28.0204 9.78493 27.1282 9.56265 26.2128 10.089C26.8625 10.052 27.4658 10.018 28.0692 9.98409L28.0698 9.98406L28.0953 10.089L28.1207 10.194C26.5216 10.5784 25.4364 11.5802 24.6353 12.9571C23.8511 14.3093 23.3757 15.734 23.4451 17.3162L23.7924 15.4546C23.5779 17.6095 24.2987 19.5313 25.2141 21.3976C26.2283 23.466 25.6309 26.4761 23.7909 27.8484C23.5107 28.0575 23.0844 28.0746 22.6609 28.0917H22.6609H22.6609C22.4779 28.0991 22.2953 28.1065 22.1253 28.1293C21.9677 28.1506 21.8044 28.1577 21.6414 28.1649H21.6414C21.3189 28.179 20.9975 28.193 20.7237 28.3161C20.0602 28.6144 19.4094 28.9426 18.7589 29.2706L18.7589 29.2706C17.8038 29.7522 16.8493 30.2335 15.8567 30.6192C13.6169 31.4898 12.5904 33.1507 12.2678 35.3936C12.2515 35.5059 12.2338 35.6186 12.216 35.7315C12.1413 36.2069 12.0659 36.6862 12.0933 37.1564C12.2133 39.2116 11.9716 41.2397 11.7299 43.2677C11.5641 44.6592 11.3983 46.0507 11.3493 47.4508C11.346 47.5465 11.3409 47.6423 11.3359 47.7379C11.2947 48.5192 11.2547 49.2785 12.1474 49.7461C12.2755 49.8141 12.3326 50.1027 12.3434 50.2941C12.3779 50.8602 12.4203 51.4266 12.4628 51.993C12.5764 53.5068 12.6899 55.021 12.6506 56.5319C12.6345 57.1367 12.7153 58.2952 12.8019 59.5359C12.9142 61.1451 13.0362 62.8925 12.9688 63.75C12.9513 63.9721 12.945 64.2317 12.938 64.5223C12.9138 65.5276 12.8806 66.9045 12.3434 68.3873C11.0728 70.497 12.2447 72.9511 12.6506 73.5148C12.8942 73.6997 13.4334 73.3399 13.9075 73.0235C14.3567 72.7236 14.7475 72.4628 14.7731 72.7414C14.7828 72.8489 14.7921 72.9564 14.8013 73.0637C14.9089 74.3147 15.0154 75.5533 15.9323 76.6977C18.08 79.8361 21.0444 80.9133 37.9227 80.069C41.9446 77.961 44.6027 74.5201 47.2518 71.0907L47.252 71.0905C48.1645 69.9093 49.0759 68.7294 50.0417 67.6058C50.0671 67.7878 50.095 67.9666 50.1225 68.1436L50.1226 68.144L50.1226 68.1441C50.1868 68.5569 50.2493 68.9589 50.2763 69.364C50.301 69.7406 50.3195 70.1713 50.1667 70.497C49.7129 71.4602 49.2822 72.4111 49.398 73.5148C49.523 74.6972 50.3226 75.5045 51.5035 75.5601C51.8717 75.5776 52.2431 75.5425 52.5743 75.5111C52.7109 75.4982 52.8407 75.4859 52.9607 75.4783C53.2293 76.3458 53.487 77.1793 53.7742 78.1086C55.9195 79.5383 58.9579 77.629 58.9021 77.4587C59.0512 77.389 59.1983 77.3122 59.3454 77.2354L59.3457 77.2352L59.3457 77.2352C59.6676 77.0671 59.9893 76.899 60.3314 76.8058C60.7985 76.6777 61.2747 76.5836 61.7507 76.4894L61.7509 76.4894C62.233 76.3941 62.7149 76.2988 63.1871 76.1683C65.4732 75.5385 67.111 74.0767 68.2116 72.0144C69.0189 70.4986 68.7596 68.9488 67.6328 68.0087C67.1481 67.6043 66.631 67.4082 65.995 67.6444L65.8975 67.6806L65.8973 67.6807C64.7999 68.0885 63.7021 68.4965 62.5898 68.8608C61.9068 69.0849 61.2135 69.2787 60.466 69.4877L60.4655 69.4879L60.4652 69.488C60.1317 69.5812 59.7874 69.6775 59.4284 69.7808C59.4081 69.295 59.3879 68.8338 59.3683 68.3883L59.3682 68.3873C59.3327 67.5789 59.2994 66.8224 59.2725 66.0653C59.2406 65.1494 59.2154 64.2332 59.1902 63.317C59.1398 61.4845 59.0894 59.6521 58.9854 57.8224C58.8249 54.9944 56.9972 53.3366 54.6355 52.2206C53.5673 51.7158 52.4142 52.0955 51.4834 52.7315C50.6082 53.3293 49.7833 54.0001 48.9587 54.6705L48.9587 54.6706C48.6271 54.9402 48.2956 55.2098 47.9609 55.4745C47.8034 55.5984 47.6507 55.7291 47.4458 55.9042C47.3394 55.9952 47.2189 56.0982 47.0764 56.2185C46.3312 54.563 45.6247 52.9965 44.9227 51.44L44.9148 51.4224L44.7255 51.0027L45.0661 50.7919C45.4327 50.5649 45.7506 50.3682 46.0684 50.1706C46.5778 49.8557 46.6071 49.4575 46.3879 48.9172C45.1916 45.9705 44.003 43.0206 42.8638 40.0507C42.6718 39.5501 42.5402 39.0263 42.4085 38.5021L42.4085 38.502L42.4084 38.5019C42.2957 38.053 42.1828 37.6038 42.0318 37.1687C41.8398 36.6148 41.5955 36.079 41.351 35.5427L41.3509 35.5426C41.2241 35.2644 41.0972 34.9861 40.9776 34.7051C40.6627 33.9673 40.1841 33.9225 39.5729 34.3424C39.4289 34.4416 39.2797 34.5326 39.1305 34.6238C39.0638 34.6645 38.997 34.7053 38.9307 34.7468C38.8982 34.7113 38.8643 34.6759 38.8316 34.6418L38.8273 34.6372L38.8227 34.6403ZM38.9693 69.9938C38.5278 68.6894 38.1018 67.4314 37.6757 66.1733C37.6316 66.1782 37.5875 66.1836 37.5436 66.1889L37.5429 66.189C37.5041 66.1937 37.4655 66.1983 37.4272 66.2027C37.2954 66.5044 37.1671 66.8082 37.0387 67.112C36.2741 68.9215 35.5096 70.7309 34.0174 72.1147C35.4344 69.895 36.8144 67.6629 37.1725 64.7918C36.2436 65.3711 35.3923 65.9012 34.5671 66.415L33.3613 67.1659L33.2085 66.9529C33.2438 66.9019 33.2766 66.8485 33.3093 66.7951L33.3094 66.795C33.3798 66.6801 33.4502 66.5654 33.545 66.4759C34.218 65.8353 34.4943 65.0311 34.5654 64.1296C34.5931 63.7715 34.6348 63.4133 34.6935 63.0583C34.845 62.1437 35.0002 61.2297 35.1553 60.3158L35.1556 60.3139L35.1557 60.3133C35.4731 58.4439 35.7905 56.5746 36.0766 54.6996C36.2385 53.6398 36.3481 52.5722 36.4635 51.4484L36.4635 51.4483L36.4635 51.4479C36.5176 50.9219 36.5728 50.3835 36.6353 49.828C36.7496 50.0726 36.8569 50.2994 36.9586 50.5145C37.1785 50.9793 37.3723 51.389 37.5538 51.8038C37.8486 52.4784 38.2747 52.7439 39.0233 52.4583C39.2086 52.3873 39.6423 52.5386 39.7334 52.7099C40.4426 54.0359 41.1318 55.3734 41.8212 56.7111L41.8217 56.712C42.1794 57.4062 42.5372 58.1005 42.8978 58.7933C43.0815 59.1468 43.0614 59.3845 42.7172 59.6299C42.0288 60.1239 41.3588 60.6441 40.6951 61.172C39.8561 61.8375 39.0218 62.51 38.1878 63.1823L38.1875 63.1825C37.8492 63.4552 37.511 63.7278 37.1725 63.9999C39.1252 66.4388 40.2891 69.6928 39.8492 71.6547C39.8128 71.5078 39.7829 71.3771 39.7556 71.2578L39.7556 71.2576C39.7018 71.0221 39.658 70.8306 39.5945 70.6452C39.5234 70.4363 39.4327 70.234 39.3348 70.0156L39.3347 70.0154C39.2902 69.916 39.2441 69.8133 39.1978 69.7051L39.116 69.8108L39.115 69.812C39.0378 69.9118 38.9903 69.9731 38.9739 69.9953L38.9693 69.9938ZM57.3739 73.6939L57.3834 73.6773C58.0285 72.5482 58.6739 71.4187 59.3744 70.1945C59.2635 71.6399 58.4186 72.5579 57.5877 73.4607C57.5162 73.5384 57.4447 73.616 57.3739 73.6939ZM17.5477 67.2316L19.9587 66.8228L19.9584 66.821C19.9657 66.8521 19.9723 66.8834 19.9788 66.9143C19.9822 66.9306 19.9856 66.9468 19.9891 66.9629C19.7101 67.0379 19.4322 67.119 19.1544 67.2C18.5206 67.3849 17.8871 67.5698 17.2408 67.6822C16.5242 67.8065 15.7958 67.8611 15.1249 67.9113C14.8447 67.9323 14.5745 67.9525 14.3195 67.9768C14.4352 67.9121 14.5509 67.8474 14.6667 67.7826C19.7644 64.933 24.9685 62.024 28.8765 57.517C26.1458 61.7984 22.2265 64.887 17.4342 66.9461L17.5477 67.2316Z" fill="#AAAAAA"/>
</svg>
