<svg width="7" height="25" viewBox="0 0 7 25" fill="none" xmlns="http://www.w3.org/2000/svg">
<path fill-rule="evenodd" clip-rule="evenodd" d="M6.38479 21.8723L3.65107 24.6059C3.53391 24.723 3.34396 24.723 3.2268 24.6059L0.493172 21.8723C0.376015 21.7551 0.376015 21.5651 0.493172 21.448C0.61033 21.3308 0.800279 21.3308 0.917436 21.448L3.13893 23.6695L3.13893 11.8625C3.13893 11.6968 3.27325 11.5625 3.43893 11.5625C3.60462 11.5625 3.73893 11.6968 3.73893 11.8625L3.73893 23.6695L5.96052 21.448C6.07768 21.3308 6.26763 21.3308 6.38479 21.448C6.50195 21.5651 6.50195 21.7551 6.38479 21.8723Z" fill="#AAAAAA"/>
<path d="M3.43896 0.875L3.43897 11.875" stroke="#AAAAAA" stroke-width="0.6" stroke-linecap="round" stroke-dasharray="1 2"/>
</svg>
