<svg width="440" height="638" viewBox="0 0 440 638" fill="none" xmlns="http://www.w3.org/2000/svg">
<rect width="440" height="638" fill="white"/>
<path d="M96.5576 572.671C95.4526 572.798 94.3687 572.908 94.2819 572.34C94.3734 571.775 95.4573 571.897 96.5599 572.035C97.6626 572.174 99.7717 571.46 100.164 569.79C100.37 568.903 100.267 568.251 100.126 567.833C100.039 567.58 99.7248 567.481 99.516 567.65C98.9787 568.082 98.2303 568.047 97.9347 567.634C97.6368 567.221 97.8409 566.501 98.4227 566.13C98.6479 565.985 98.6573 565.656 98.4438 565.492C98.0943 565.225 97.5077 564.917 96.6021 564.83C94.8942 564.669 93.5452 566.44 93.3246 567.528C93.1041 568.617 92.8742 569.682 92.3088 569.591C91.7997 569.328 92.2501 568.335 92.7217 567.329C93.1956 566.322 93.1675 564.096 91.7012 563.209C90.9222 562.738 90.27 562.634 89.829 562.641C89.5615 562.646 89.3715 562.916 89.4653 563.167C89.7117 563.812 89.4466 564.511 88.9609 564.666C88.4753 564.821 87.8536 564.403 87.6799 563.737C87.6119 563.477 87.3022 563.369 87.0793 563.519C86.7157 563.77 86.2441 564.232 85.8828 565.067C85.2001 566.642 86.4694 568.472 87.436 569.018C88.4049 569.565 89.3457 570.114 89.0829 570.623C88.6747 571.026 87.87 570.292 87.0606 569.53C86.2488 568.769 84.1233 568.106 82.8259 569.227C82.1385 569.823 81.8382 570.412 81.7068 570.832C81.627 571.087 81.8264 571.353 82.0939 571.338C82.7836 571.306 83.3655 571.772 83.3631 572.282C83.3608 572.791 82.7719 573.253 82.0822 573.213C81.8147 573.197 81.6129 573.459 81.6904 573.715C81.8171 574.137 82.1103 574.729 82.793 575.331C84.0787 576.467 86.2113 575.827 87.0301 575.073C87.8489 574.32 88.6606 573.595 89.0641 574.004C89.3222 574.515 88.3744 575.055 87.4008 575.59C86.6359 576.01 85.6811 577.222 85.6271 578.489L85.2799 578.4C85.2799 578.4 82.6288 577.546 82.3801 576.042C82.3801 576.042 81.4863 575.805 81.0804 576.366C81.0804 576.366 81.4698 575.47 80.6886 574.761C79.9073 574.055 77.8615 573.375 76.7683 571.777C75.2081 569.497 75.3958 567.749 76.2099 567.39C77.3313 566.897 78.1994 568.427 80.4657 567.913C82.2792 567.503 82.3989 566.264 82.3989 566.264C82.3989 566.264 81.5121 565.302 82.5303 564.572C84.1115 563.439 85.186 559.758 82.5889 558.576C82.5889 558.576 83.3702 559.451 82.9666 560.23C82.5631 561.006 81.0733 560.769 80.5361 560.338C79.9988 559.906 79.9683 559.15 79.9683 559.15C79.9683 559.15 77.7818 559.071 76.2662 560.741C74.753 562.412 74.9172 564.089 74.4972 564.091C74.0773 564.091 73.5494 562.829 74.2298 561.349C75.133 559.38 76.7049 558.97 77.8263 558.374C78.9501 557.778 80.6839 556.828 80.8786 554.336C80.8786 554.336 80.6862 553.74 79.5695 553.686C79.5695 553.686 80.5619 551.582 82.3121 550.991C84.0623 550.4 85.8875 550.583 87.2201 552.103C88.555 553.623 88.3932 555.169 88.06 555.674C87.7269 556.178 87.1333 556.162 87.2248 555.76C87.4008 554.984 86.8447 554.111 85.7491 553.942C84.6535 553.773 83.6376 554.512 83.6329 555.831C83.6282 557.196 84.813 558.198 86.2465 558.038C87.6799 557.879 88.7263 557.011 88.9163 555.72C89.1064 554.43 88.8201 551.967 86.0588 550.51C83.9942 549.421 80.6464 549.524 77.8475 551.155C78.8164 549.47 79.1331 547.678 78.7366 546.045C78.1923 543.807 76.8175 542.725 75.7618 542.212C74.6568 541.674 73.3782 541.506 72.123 541.684C72.672 541.036 72.8245 540.046 72.6884 539.478C72.5031 538.707 72.3341 537.946 72.7283 537.836C73.1365 537.853 73.1435 538.632 73.1388 539.427C73.1342 540.22 73.8216 541.656 75.0392 541.792C75.6844 541.862 76.1395 541.733 76.4234 541.597C76.597 541.515 76.6392 541.283 76.5008 541.149C76.1489 540.804 76.109 540.271 76.3788 540.025C76.6463 539.779 77.1741 539.863 77.4885 540.243C77.6105 540.391 77.8451 540.37 77.9413 540.203C78.1008 539.931 78.2698 539.49 78.2533 538.84C78.2228 537.616 76.8504 536.811 76.0597 536.748C75.2691 536.684 74.4925 536.612 74.5113 536.203C74.6544 535.821 75.3958 536.053 76.1512 536.304C76.9043 536.553 78.4833 536.344 78.9853 535.227C79.2528 534.634 79.2715 534.162 79.227 533.85C79.2012 533.66 78.9947 533.548 78.8234 533.637C78.3871 533.867 77.8686 533.738 77.7161 533.407C77.5636 533.076 77.8076 532.6 78.2651 532.419C78.4434 532.349 78.495 532.119 78.3683 531.976C78.1595 531.739 77.7912 531.443 77.1694 531.258C75.9964 530.908 74.8046 531.964 74.4996 532.698C74.1946 533.433 73.8873 534.146 73.5025 534.003C73.1811 533.749 73.6339 533.114 74.1054 532.475C74.5747 531.835 74.8632 530.27 73.9576 529.447C73.4767 529.01 73.0333 528.846 72.7236 528.79C72.5359 528.754 72.3646 528.919 72.3975 529.106C72.4796 529.592 72.1981 530.045 71.8368 530.087C71.4755 530.129 71.0977 529.752 71.0672 529.259C71.0555 529.069 70.8538 528.947 70.6778 529.024C70.3892 529.149 69.9951 529.409 69.6244 529.944C68.93 530.953 69.5657 532.41 70.1687 532.928C70.7716 533.444 71.3558 533.958 71.1024 534.28C70.7623 534.505 70.2977 533.881 69.8355 533.236C69.3734 532.59 67.9727 531.833 66.91 532.44C66.3446 532.762 66.0536 533.135 65.9035 533.411C65.812 533.58 65.9152 533.792 66.1053 533.82C66.5932 533.89 66.9381 534.301 66.8654 534.657C66.8208 534.878 66.6237 535.051 66.368 535.126C66.3492 535.019 66.3281 534.913 66.2953 534.805C65.873 533.379 64.4208 533.698 64.4208 533.698C64.4208 533.698 65.148 534.261 64.6999 535.434C63.8389 537.695 58.7174 537.996 58.5532 544.159C58.5368 544.76 58.5626 545.248 58.6212 545.653C57.4482 541.407 58.1708 535.758 61.2512 530.716C61.5984 530.284 61.9926 529.852 61.9926 529.852C65.7135 526.188 66.9827 522.748 66.3516 520.996C65.7205 519.243 64.334 518.866 64.334 518.866C64.4677 519.814 63.8647 520.583 63.2993 521.277C62.7339 521.972 62.9521 522.657 63.2243 523.835C63.4964 525.012 62.7433 525.163 62.7433 525.163C62.9005 524.522 62.0653 521.66 60.1133 522.584C58.1637 523.509 58.9168 524.656 58.4335 525.134C57.9479 525.613 57.4458 525.425 57.4458 525.425C57.4458 525.425 56.7842 526.941 58.145 527.994C59.5057 529.048 60.301 527.992 61.0729 528.487C61.3122 528.64 61.392 528.919 61.392 529.231C57.1737 535.326 56.4769 542.547 58.4781 547.373C58.1098 546.932 57.4646 546.787 57.0001 546.81C56.4393 546.838 55.5549 547.329 55.7801 548.333C56.0194 549.395 57.1643 549.311 57.0353 548.804C56.8241 547.971 57.8869 547.751 58.0628 548.523C58.2411 549.295 57.413 549.712 57.359 550.829C57.3051 551.946 57.7508 552.94 59.2124 553.747C60.674 554.557 62.3257 554.022 62.6495 553.783C62.9732 553.543 63.4636 553.64 63.4636 553.64C65.8355 555.324 68.6015 556.105 71.3629 555.739C72.3787 555.606 73.4016 555.233 74.3518 554.674C72.2544 558.285 72.1629 563.352 73.7441 567.629C75.5319 572.462 77.9038 573.835 78.3683 574.33C78.8352 574.825 79.0651 575.207 79.0651 575.207C79.0651 575.207 77.3923 576.476 73.6573 572.72C71.9118 570.965 71.5975 570.065 71.6373 568.718C71.6373 568.718 70.9969 568.052 69.913 568.314L69.8919 568.324C69.8919 568.307 69.8965 568.289 69.8965 568.272C69.8965 568.082 69.805 567.916 69.6666 567.808C69.8215 567.589 70.0162 567.127 69.9364 566.217C69.8074 564.779 68.6015 563.148 68.2425 562.177C67.8836 561.206 67.6889 560.375 68.1346 559.807C68.5827 559.237 69.1599 559.451 69.1434 559.643C69.127 559.836 68.7657 560.3 69.2115 560.943C69.6572 561.586 70.5769 561.487 70.9429 561.037C71.3089 560.589 71.3206 559.864 70.7247 559.249C70.1288 558.634 69.0332 558.271 67.6771 558.796C66.3234 559.322 65.5211 561.093 65.8566 562.498C66.1921 563.904 65.4577 564.134 65.134 564.007C64.8102 563.88 62.8583 562.747 60.9298 562.775C59.0036 562.803 57.2441 564.183 56.8992 565.79C56.5801 567.275 57.2534 568.877 58.9192 568.734C60.9016 568.565 60.4676 566.217 59.2054 566.102C58.2482 566.015 58.0746 566.583 57.9807 566.74C57.8728 566.921 57.2652 566.224 58.0089 565.29C58.823 564.27 60.7655 564.375 62.0676 565.83C63.3017 567.209 66.6566 569.581 68.7587 568.521C68.8338 568.687 68.9839 568.812 69.1669 568.854C68.9581 569.11 68.7071 569.534 68.7071 570.111C68.7071 570.111 70.3845 570.405 71.6467 571.709C72.9089 573.014 77.7583 578.046 77.7583 578.046C77.7583 578.046 76.59 577.605 73.8521 575.564C71.1142 573.523 67.1727 571.231 62.2225 570.954C56.6622 570.642 55.5126 575.58 56.6622 577.431C57.9479 579.503 60.6342 579.036 61.4154 577.919C62.1333 576.894 61.765 575.475 60.6482 575.163C59.4564 574.829 58.6494 575.648 58.6189 576.39C58.5743 577.384 59.196 577.532 59.02 577.905C58.9074 578.147 58.2388 578.25 57.4927 577.445C56.7443 576.641 56.6012 574.783 57.8634 574.034C59.1256 573.286 60.6201 573.654 61.8119 574.302C63.0014 574.949 66.368 576.028 68.0408 574.217C68.0408 574.217 68.7329 574.318 68.4959 574.989C68.3833 575.306 67.6513 575.423 67.2525 576.026C66.9991 576.411 66.8818 577.018 67.0437 577.994C67.2056 578.97 67.1188 579.017 67.1188 579.017C67.1188 579.017 69.4719 579.318 70.7951 578.726C72.1183 578.135 72.6086 576.751 72.4514 575.726C72.4514 575.726 75.3653 577.739 76.5055 578.525C77.2046 579.005 78.1806 579.721 79.8886 578.806C79.8886 578.806 79.6868 579.533 80.4962 579.972C80.4962 579.972 81.1414 579.4 82.1948 579.468C82.6382 579.498 84.1233 579.651 85.8453 579.655C86.1902 580.415 86.6265 580.852 86.9691 581.094C87.1873 581.248 87.5016 581.14 87.572 580.882C87.7527 580.216 88.3791 579.805 88.8624 579.967C89.3457 580.127 89.6037 580.831 89.3527 581.471C89.2542 581.72 89.4419 581.992 89.7093 581.999C90.1504 582.011 90.8049 581.915 91.5885 581.45C93.0666 580.577 93.1158 578.351 92.6537 577.34C92.1915 576.329 91.7528 575.332 92.2642 575.073C92.8296 574.987 93.0502 576.054 93.259 577.147C93.4678 578.238 94.798 580.026 96.506 579.881C97.4139 579.803 98.0004 579.505 98.3547 579.24C98.5682 579.078 98.5635 578.75 98.3406 578.602C97.7635 578.224 97.5664 577.502 97.869 577.091C98.1717 576.68 98.9177 576.652 99.4503 577.091C99.6568 577.262 99.9735 577.168 100.063 576.915C100.21 576.5 100.321 575.848 100.121 574.958C99.7483 573.283 97.6462 572.549 96.5411 572.676L96.5576 572.671ZM72.3341 534.387C73.113 534.298 73.8169 534.857 73.906 535.636C73.9952 536.414 73.4368 537.118 72.6579 537.207C71.879 537.297 71.1752 536.738 71.086 535.959C70.9969 535.18 71.5552 534.477 72.3341 534.387ZM61.1972 548.612C61.9316 549.227 61.3661 550.219 60.6365 549.787C60.2283 549.212 59.8506 548.6 59.5127 547.948C59.3462 547.626 59.1937 547.289 59.0552 546.939C59.5503 547.706 60.3503 547.901 61.1996 548.612H61.1972ZM59.081 550.796C58.6353 550.468 58.6986 549.656 58.7972 549.097C58.8652 548.71 58.8394 548.326 58.7737 548.025C58.8136 548.107 58.8511 548.19 58.8934 548.269C59.2875 549.029 59.7309 549.738 60.2142 550.397C60.2447 551.049 59.5315 551.127 59.081 550.796ZM71.2784 555.047C68.8643 555.366 66.4454 554.74 64.3175 553.363C64.2307 553.22 64.165 553.06 64.165 552.889C64.1627 552.33 65.6173 550.662 64.3809 548.551C63.5504 547.129 62.1427 546.953 61.1526 547.038C60.4559 547.096 59.9209 546.622 59.6558 545.977C58.6001 543.408 60.1204 538.871 63.1492 539.659C63.2501 539.685 62.626 540.086 62.4524 540.689C61.5421 543.84 66.178 544.689 66.8044 541.775C67.1657 540.093 66.0654 539.169 64.9815 538.761C64.09 538.423 63.4307 538.465 63.4307 538.465C64.7797 538.047 65.6243 537.433 66.056 536.734C66.8044 537.693 68.3763 537.541 69.052 537.128C69.73 536.712 70.3986 536.316 70.6262 536.658C70.7364 537.053 69.9974 537.299 69.242 537.541C68.4842 537.782 67.3323 538.878 67.5809 540.077C67.7123 540.713 67.9751 541.104 68.1933 541.332C68.3247 541.47 68.5593 541.44 68.6437 541.266C68.8619 540.825 69.3569 540.623 69.6737 540.802C69.9904 540.98 70.0748 541.508 69.8097 541.923C69.7065 542.085 69.8004 542.301 69.988 542.343C70.0021 542.345 70.0185 542.348 70.0326 542.352C68.395 543.26 67.8109 545.25 67.9751 546.791C68.0807 547.772 68.4584 548.588 69.0261 549.135L69.0308 549.142C69.0308 549.142 70.2391 550.409 72.3248 550.219C74.4081 550.029 74.8069 548.469 74.8703 547.483C74.9336 546.498 74.0961 545.323 72.6297 545.28C71.1634 545.238 70.4596 546.812 70.7153 547.99C70.9711 549.168 70.0092 548.785 69.8004 548.609C69.5916 548.434 68.822 547.556 68.8572 546.179C68.8924 544.823 69.8426 542.892 71.9752 542.428C73.1764 542.207 74.4269 542.343 75.4615 542.845C76.7823 543.488 77.6832 544.654 78.0633 546.216C78.4621 547.861 78.0445 549.7 76.8832 551.397C75.5319 553.372 73.3828 554.773 71.2784 555.052V555.047ZM92.0085 574.219C90.9621 574.553 89.8454 573.975 89.5122 572.931C89.1791 571.885 89.7562 570.768 90.8003 570.435C91.8466 570.102 92.9634 570.679 93.2965 571.723C93.6296 572.767 93.0525 573.886 92.0085 574.219ZM61.3145 555.662C61.0541 556.171 61.1996 556.769 61.5843 556.952C61.9691 557.133 62.5251 556.865 62.7527 556.342C62.8489 556.124 63.1093 556.035 63.2853 556.192C63.5644 556.441 63.9117 556.884 64.1252 557.633C64.5216 559.031 62.9028 561.461 59.874 562.139C59.4377 562.238 59.2476 562.461 58.9168 561.769C57.6664 559.15 58.1145 556.002 59.447 555.42C60.1603 555.108 60.7233 555.099 61.094 555.155C61.3286 555.19 61.4248 555.451 61.3169 555.662H61.3145ZM56.9179 512.954C57.2347 512.243 57.6429 511.856 57.9549 511.647C58.152 511.515 58.3983 511.642 58.4617 511.87C58.6142 512.421 59.1256 512.766 59.5315 512.639C59.9374 512.515 60.1673 511.942 59.9843 511.4C59.9069 511.175 60.0383 510.934 60.2776 510.931C60.6506 510.929 61.2066 511.02 61.8682 511.429C63.1046 512.193 63.5457 515.081 61.7673 517.622C61.5116 517.988 61.5233 518.282 60.8101 517.993C58.1215 516.902 56.3291 514.274 56.9226 512.946L56.9179 512.954Z" fill="#AAAAAA"/>
<path d="M382.742 546.81C382.277 546.787 381.634 546.932 381.264 547.373C383.267 542.547 382.568 535.326 378.35 529.231C378.35 528.919 378.43 528.642 378.669 528.489C379.441 527.994 380.234 529.052 381.597 527.997C382.958 526.943 382.296 525.428 382.296 525.428C382.296 525.428 381.794 525.613 381.308 525.137C380.823 524.658 381.578 523.511 379.628 522.587C377.679 521.662 376.841 524.524 376.999 525.165C376.999 525.165 376.248 525.015 376.518 523.837C376.79 522.659 377.008 521.974 376.443 521.28C375.877 520.585 375.274 519.816 375.408 518.868C375.408 518.868 374.021 519.243 373.39 520.998C372.759 522.753 374.028 526.192 377.749 529.855C377.749 529.855 378.146 530.286 378.491 530.718C381.571 535.76 382.294 541.409 381.121 545.656C381.179 545.25 381.205 544.762 381.189 544.161C381.024 537.998 375.903 537.698 375.042 535.436C374.594 534.261 375.321 533.7 375.321 533.7C375.321 533.7 373.869 533.381 373.447 534.807C373.414 534.915 373.393 535.021 373.374 535.129C373.118 535.054 372.921 534.88 372.876 534.66C372.804 534.303 373.149 533.895 373.637 533.822C373.827 533.794 373.927 533.583 373.838 533.414C373.688 533.137 373.397 532.766 372.832 532.442C371.767 531.835 370.368 532.593 369.906 533.238C369.444 533.883 368.98 534.509 368.639 534.282C368.386 533.96 368.97 533.447 369.573 532.93C370.176 532.414 370.812 530.955 370.117 529.946C369.749 529.411 369.355 529.151 369.064 529.027C368.888 528.951 368.686 529.071 368.675 529.261C368.644 529.754 368.266 530.132 367.905 530.089C367.544 530.047 367.262 529.594 367.344 529.109C367.377 528.919 367.206 528.757 367.018 528.792C366.709 528.848 366.265 529.01 365.784 529.449C364.879 530.272 365.167 531.837 365.636 532.478C366.106 533.118 366.558 533.752 366.239 534.005C365.857 534.148 365.547 533.433 365.242 532.701C364.937 531.966 363.748 530.91 362.572 531.26C361.948 531.445 361.58 531.741 361.374 531.978C361.247 532.121 361.298 532.351 361.477 532.421C361.937 532.602 362.178 533.078 362.026 533.409C361.873 533.74 361.355 533.869 360.918 533.639C360.749 533.55 360.541 533.662 360.515 533.852C360.473 534.165 360.491 534.636 360.757 535.23C361.261 536.346 362.838 536.555 363.591 536.307C364.344 536.058 365.087 535.823 365.231 536.206C365.247 536.614 364.473 536.687 363.682 536.75C362.891 536.813 361.519 537.618 361.488 538.843C361.472 539.493 361.639 539.934 361.801 540.206C361.899 540.37 362.134 540.393 362.253 540.246C362.565 539.866 363.093 539.781 363.363 540.027C363.63 540.274 363.593 540.806 363.241 541.151C363.105 541.285 363.147 541.517 363.318 541.599C363.602 541.735 364.057 541.864 364.703 541.794C365.92 541.66 366.605 540.224 366.603 539.429C366.598 538.636 366.603 537.857 367.014 537.839C367.408 537.949 367.236 538.709 367.053 539.481C366.917 540.049 367.068 541.041 367.619 541.686C366.364 541.505 365.085 541.677 363.98 542.214C362.924 542.728 361.549 543.809 361.005 546.047C360.609 547.683 360.925 549.473 361.894 551.157C359.095 549.527 355.748 549.421 353.683 550.512C350.922 551.969 350.635 554.432 350.826 555.723C351.016 557.013 352.06 557.881 353.495 558.041C354.929 558.2 356.116 557.196 356.109 555.833C356.104 554.515 355.091 553.776 353.993 553.944C352.897 554.113 352.341 554.986 352.517 555.763C352.609 556.164 352.015 556.183 351.682 555.676C351.349 555.171 351.187 553.625 352.522 552.105C353.857 550.585 355.682 550.402 357.43 550.993C359.18 551.584 360.172 553.689 360.172 553.689C359.056 553.74 358.863 554.339 358.863 554.339C359.056 556.83 360.792 557.78 361.915 558.376C363.039 558.972 364.609 559.383 365.512 561.351C366.19 562.829 365.665 564.094 365.245 564.094C364.825 564.094 364.991 562.414 363.476 560.743C361.962 559.073 359.773 559.153 359.773 559.153C359.773 559.153 359.743 559.908 359.206 560.34C358.668 560.772 357.179 561.011 356.775 560.232C356.372 559.455 357.153 558.578 357.153 558.578C354.556 559.76 355.63 563.441 357.212 564.575C358.23 565.304 357.343 566.266 357.343 566.266C357.343 566.266 357.463 567.505 359.276 567.915C361.542 568.427 362.408 566.9 363.532 567.392C364.346 567.749 364.534 569.499 362.974 571.779C361.88 573.377 359.835 574.058 359.053 574.764C358.272 575.47 358.661 576.368 358.661 576.368C358.256 575.81 357.362 576.045 357.362 576.045C357.115 577.549 354.462 578.402 354.462 578.402L354.115 578.492C354.061 577.225 353.106 576.014 352.341 575.592C351.367 575.057 350.42 574.517 350.678 574.006C351.081 573.598 351.893 574.325 352.712 575.076C353.531 575.829 355.663 576.469 356.949 575.334C357.632 574.731 357.925 574.14 358.049 573.717C358.127 573.459 357.925 573.199 357.657 573.215C356.968 573.258 356.381 572.795 356.379 572.284C356.376 571.775 356.958 571.306 357.648 571.341C357.915 571.355 358.115 571.09 358.035 570.834C357.906 570.412 357.606 569.823 356.916 569.229C355.619 568.108 353.493 568.772 352.681 569.532C351.87 570.292 351.065 571.026 350.659 570.625C350.396 570.116 351.337 569.567 352.306 569.02C353.275 568.474 354.542 566.644 353.859 565.07C353.498 564.234 353.024 563.772 352.662 563.521C352.442 563.369 352.13 563.479 352.062 563.739C351.888 564.408 351.267 564.823 350.781 564.668C350.295 564.514 350.03 563.814 350.277 563.169C350.373 562.918 350.183 562.648 349.913 562.644C349.472 562.637 348.82 562.74 348.041 563.212C346.572 564.098 346.546 566.327 347.02 567.331C347.494 568.338 347.942 569.33 347.433 569.593C346.868 569.684 346.638 568.622 346.417 567.531C346.197 566.442 344.848 564.668 343.14 564.833C342.234 564.919 341.648 565.224 341.298 565.494C341.085 565.658 341.094 565.987 341.319 566.132C341.901 566.503 342.105 567.223 341.807 567.636C341.509 568.049 340.763 568.087 340.226 567.653C340.017 567.484 339.7 567.582 339.616 567.836C339.473 568.253 339.37 568.905 339.578 569.792C339.968 571.463 342.079 572.176 343.182 572.038C344.285 571.899 345.368 571.777 345.46 572.343C345.373 572.908 344.289 572.8 343.184 572.673C342.079 572.547 339.977 573.281 339.604 574.956C339.407 575.845 339.517 576.495 339.663 576.913C339.752 577.166 340.069 577.26 340.275 577.089C340.808 576.65 341.556 576.678 341.856 577.089C342.159 577.499 341.962 578.222 341.385 578.6C341.16 578.747 341.155 579.076 341.371 579.238C341.723 579.503 342.312 579.803 343.219 579.878C344.927 580.024 346.258 578.236 346.466 577.145C346.675 576.054 346.896 574.987 347.461 575.071C347.973 575.329 347.534 576.326 347.072 577.337C346.61 578.349 346.659 580.575 348.137 581.448C348.92 581.91 349.575 582.006 350.016 581.997C350.284 581.99 350.471 581.718 350.373 581.469C350.122 580.826 350.377 580.125 350.863 579.965C351.346 579.805 351.973 580.216 352.153 580.88C352.224 581.138 352.536 581.246 352.756 581.091C353.099 580.849 353.535 580.413 353.88 579.653C355.604 579.646 357.087 579.493 357.531 579.465C358.584 579.395 359.229 579.97 359.229 579.97C360.039 579.531 359.837 578.804 359.837 578.804C361.545 579.719 362.521 579.003 363.22 578.522C364.36 577.736 367.274 575.723 367.274 575.723C367.117 576.748 367.607 578.133 368.93 578.724C370.254 579.315 372.607 579.015 372.607 579.015C372.607 579.015 372.522 578.966 372.682 577.992C372.841 577.016 372.726 576.408 372.473 576.024C372.074 575.421 371.342 575.301 371.229 574.987C370.99 574.316 371.685 574.215 371.685 574.215C373.357 576.026 376.724 574.947 377.914 574.299C379.103 573.652 380.6 573.283 381.862 574.032C383.124 574.78 382.981 576.638 382.233 577.443C381.484 578.248 380.818 578.147 380.705 577.903C380.532 577.53 381.151 577.382 381.107 576.387C381.074 575.643 380.267 574.827 379.077 575.16C377.96 575.472 377.592 576.892 378.31 577.917C379.091 579.034 381.778 579.503 383.063 577.429C384.213 575.578 383.063 570.639 377.503 570.951C372.553 571.228 368.611 573.523 365.873 575.561C363.135 577.6 361.967 578.044 361.967 578.044C361.967 578.044 366.816 573.011 368.079 571.707C369.341 570.402 371.018 570.109 371.018 570.109C371.018 569.532 370.767 569.107 370.559 568.852C370.741 568.809 370.892 568.685 370.967 568.518C373.069 569.579 376.424 567.207 377.658 565.827C378.958 564.373 380.902 564.267 381.717 565.288C382.46 566.222 381.853 566.918 381.745 566.738C381.651 566.583 381.477 566.013 380.52 566.1C379.258 566.215 378.824 568.563 380.806 568.732C382.47 568.873 383.145 567.27 382.826 565.788C382.481 564.18 380.722 562.801 378.796 562.773C376.869 562.745 374.915 563.878 374.591 564.005C374.268 564.131 373.536 563.901 373.869 562.496C374.204 561.091 373.402 559.319 372.048 558.794C370.695 558.268 369.599 558.63 369.001 559.247C368.405 559.864 368.417 560.586 368.783 561.034C369.148 561.482 370.068 561.583 370.514 560.941C370.96 560.298 370.601 559.833 370.582 559.641C370.566 559.448 371.143 559.237 371.591 559.805C372.039 560.375 371.842 561.203 371.483 562.175C371.124 563.146 369.918 564.776 369.789 566.215C369.707 567.125 369.904 567.587 370.059 567.805C369.92 567.913 369.829 568.082 369.829 568.27C369.829 568.288 369.834 568.305 369.834 568.321L369.812 568.312C368.729 568.049 368.088 568.715 368.088 568.715C368.128 570.062 367.814 570.963 366.068 572.718C362.335 576.472 360.66 575.205 360.66 575.205C360.66 575.205 360.893 574.822 361.357 574.327C361.824 573.832 364.196 572.462 365.981 567.627C367.563 563.35 367.471 558.285 365.374 554.672C366.326 555.23 367.347 555.601 368.363 555.737C371.124 556.103 373.892 555.322 376.262 553.637C376.262 553.637 376.752 553.541 377.076 553.78C377.4 554.02 379.054 554.554 380.513 553.745C381.975 552.936 382.418 551.941 382.366 550.826C382.312 549.71 381.484 549.294 381.663 548.52C381.839 547.748 382.901 547.969 382.69 548.802C382.561 549.309 383.708 549.393 383.945 548.33C384.171 547.326 383.286 546.836 382.725 546.808L382.742 546.81ZM347.736 574.219C346.689 573.886 346.115 572.767 346.448 571.723C346.781 570.677 347.898 570.102 348.944 570.435C349.988 570.768 350.565 571.885 350.232 572.931C349.899 573.978 348.782 574.553 347.736 574.219ZM380.691 546.937C380.553 547.286 380.4 547.624 380.234 547.945C379.894 548.598 379.516 549.21 379.11 549.785C378.378 550.217 377.815 549.226 378.549 548.609C379.399 547.896 380.201 547.704 380.694 546.934L380.691 546.937ZM367.086 537.205C366.307 537.116 365.749 536.412 365.838 535.633C365.927 534.854 366.631 534.296 367.41 534.385C368.189 534.474 368.747 535.178 368.658 535.957C368.569 536.736 367.865 537.294 367.086 537.205ZM368.466 555.047C366.361 554.768 364.215 553.367 362.861 551.392C361.7 549.696 361.282 547.856 361.681 546.212C362.061 544.649 362.962 543.483 364.283 542.84C365.317 542.336 366.568 542.202 367.769 542.423C369.902 542.885 370.852 544.818 370.887 546.174C370.922 547.551 370.153 548.429 369.944 548.605C369.735 548.781 368.773 549.163 369.029 547.985C369.285 546.808 368.581 545.231 367.114 545.276C365.648 545.318 364.811 546.493 364.874 547.479C364.937 548.464 365.336 550.024 367.419 550.214C369.503 550.404 370.711 549.137 370.711 549.137L370.716 549.13C371.283 548.584 371.661 547.77 371.767 546.787C371.931 545.245 371.347 543.253 369.709 542.348C369.723 542.345 369.74 542.343 369.754 542.338C369.941 542.296 370.035 542.08 369.932 541.918C369.667 541.503 369.751 540.975 370.068 540.797C370.385 540.619 370.88 540.818 371.098 541.261C371.183 541.433 371.417 541.466 371.549 541.327C371.767 541.1 372.03 540.708 372.161 540.072C372.41 538.873 371.255 537.775 370.5 537.536C369.742 537.294 369.005 537.048 369.116 536.654C369.341 536.314 370.012 536.71 370.69 537.123C371.366 537.536 372.937 537.691 373.686 536.729C374.118 537.428 374.962 538.043 376.311 538.46C376.311 538.46 375.652 538.418 374.76 538.756C373.676 539.166 372.576 540.091 372.937 541.771C373.564 544.687 378.2 543.835 377.289 540.684C377.116 540.084 376.492 539.683 376.593 539.654C379.621 538.866 381.142 543.403 380.086 545.972C379.821 546.618 379.284 547.091 378.589 547.033C377.599 546.948 376.194 547.127 375.361 548.546C374.125 550.658 375.579 552.326 375.577 552.884C375.577 553.055 375.511 553.215 375.424 553.358C373.299 554.735 370.878 555.361 368.463 555.042L368.466 555.047ZM380.663 550.796C380.213 551.127 379.499 551.049 379.53 550.397C380.013 549.738 380.457 549.029 380.851 548.269C380.893 548.189 380.931 548.107 380.97 548.025C380.907 548.326 380.879 548.71 380.947 549.097C381.046 549.656 381.109 550.468 380.663 550.796ZM378.43 555.662C378.322 555.451 378.418 555.193 378.653 555.155C379.023 555.099 379.586 555.11 380.299 555.42C381.632 556.002 382.078 559.15 380.83 561.769C380.499 562.463 380.309 562.238 379.873 562.139C376.844 561.461 375.225 559.031 375.621 557.633C375.835 556.884 376.182 556.441 376.461 556.192C376.637 556.032 376.898 556.124 376.994 556.342C377.221 556.865 377.777 557.133 378.162 556.952C378.547 556.771 378.692 556.171 378.432 555.662H378.43ZM377.982 517.627C376.201 515.084 376.644 512.198 377.881 511.433C378.542 511.023 379.098 510.931 379.471 510.936C379.708 510.936 379.84 511.18 379.765 511.405C379.582 511.947 379.811 512.517 380.217 512.644C380.623 512.768 381.135 512.423 381.287 511.874C381.351 511.644 381.595 511.518 381.794 511.651C382.106 511.858 382.514 512.247 382.831 512.958C383.424 514.286 381.63 516.911 378.943 518.005C378.233 518.293 378.244 518 377.986 517.634L377.982 517.627Z" fill="#AAAAAA"/>
<path d="M343.187 65.3266C344.292 65.2 345.376 65.0897 345.462 65.6574C345.371 66.2229 344.287 66.1009 343.184 65.9624C342.082 65.824 339.972 66.5372 339.581 68.2076C339.374 69.0945 339.477 69.7467 339.618 70.1643C339.705 70.4177 340.019 70.5162 340.228 70.3473C340.765 69.9156 341.514 69.9508 341.809 70.3637C342.107 70.779 341.903 71.4969 341.321 71.8676C341.096 72.013 341.087 72.3415 341.3 72.5057C341.65 72.7731 342.236 73.0805 343.142 73.1673C344.85 73.3292 346.199 71.5579 346.42 70.4693C346.64 69.3807 346.87 68.3156 347.435 68.4071C347.944 68.6698 347.494 69.6622 347.022 70.6687C346.549 71.6752 346.577 73.9016 348.043 74.7884C348.822 75.26 349.474 75.3632 349.915 75.3562C350.183 75.3515 350.373 75.0817 350.279 74.8307C350.033 74.1855 350.298 73.4864 350.783 73.3315C351.269 73.1767 351.891 73.5943 352.064 74.2606C352.132 74.521 352.442 74.6289 352.665 74.4788C353.028 74.2277 353.5 73.7655 353.861 72.9303C354.544 71.3561 353.275 69.5262 352.308 68.9795C351.339 68.4329 350.398 67.8839 350.661 67.3748C351.069 66.9713 351.874 67.7056 352.684 68.4681C353.495 69.2282 355.621 69.8921 356.918 68.7707C357.606 68.1748 357.906 67.5859 358.037 67.166C358.117 66.9103 357.918 66.6451 357.65 66.6592C356.961 66.6921 356.379 66.2252 356.381 65.7161C356.383 65.207 356.972 64.7448 357.662 64.7847C357.929 64.8011 358.131 64.5384 358.054 64.2826C357.927 63.8603 357.634 63.2691 356.951 62.6662C355.665 61.5307 353.533 62.1711 352.714 62.9242C351.895 63.6773 351.084 64.4023 350.68 63.9941C350.422 63.4826 351.37 62.943 352.343 62.4081C353.108 61.9882 354.063 60.7752 354.117 59.5083L354.464 59.5975C354.464 59.5975 357.115 60.4515 357.364 61.9553C357.364 61.9553 358.258 62.1923 358.664 61.6315C358.664 61.6315 358.274 62.5278 359.056 63.2363C359.837 63.9424 361.883 64.6228 362.976 66.2205C364.536 68.5009 364.348 70.2488 363.534 70.6077C362.413 71.1004 361.545 69.5707 359.278 70.0845C357.465 70.4951 357.345 71.7338 357.345 71.7338C357.345 71.7338 358.232 72.6957 357.214 73.4254C355.633 74.5585 354.558 78.2395 357.155 79.422C357.155 79.422 356.374 78.5469 356.778 77.768C357.181 76.9914 358.671 77.2284 359.208 77.6601C359.745 78.0917 359.776 78.8472 359.776 78.8472C359.776 78.8472 361.962 78.927 363.478 77.2565C364.991 75.5861 364.827 73.9087 365.247 73.9063C365.667 73.9063 366.195 75.1685 365.514 76.6489C364.611 78.6173 363.039 79.0278 361.918 79.6237C360.794 80.2197 359.06 81.1698 358.866 83.6614C358.866 83.6614 359.058 84.2573 360.175 84.3112C360.175 84.3112 359.18 86.4157 357.432 87.0069C355.682 87.5981 353.857 87.4151 352.524 85.8949C351.189 84.3746 351.351 82.8285 351.684 82.3241C352.017 81.8197 352.611 81.8361 352.519 82.2373C352.343 83.0139 352.899 83.8866 353.995 84.0555C355.091 84.2244 356.107 83.4854 356.111 82.1669C356.116 80.8015 354.931 79.7997 353.498 79.9592C352.064 80.1188 351.018 80.9868 350.828 82.2772C350.638 83.5675 350.924 86.0333 353.685 87.4879C355.75 88.5764 359.098 88.4732 361.897 86.8427C360.928 88.5272 360.611 90.3196 361.008 91.9525C361.552 94.1906 362.927 95.2722 363.982 95.786C365.087 96.3232 366.366 96.4922 367.621 96.3139C367.072 96.9614 366.92 97.9514 367.056 98.5192C367.241 99.2911 367.41 100.051 367.016 100.161C366.608 100.145 366.601 99.3661 366.605 98.5708C366.61 97.7778 365.923 96.342 364.705 96.2059C364.06 96.1356 363.605 96.2646 363.321 96.4007C363.147 96.4828 363.105 96.715 363.243 96.8488C363.595 97.1936 363.635 97.7262 363.365 97.9726C363.098 98.2189 362.57 98.1344 362.256 97.7544C362.134 97.6066 361.899 97.6277 361.803 97.7942C361.643 98.0664 361.474 98.5075 361.491 99.1573C361.521 100.382 362.894 101.187 363.684 101.25C364.475 101.313 365.252 101.386 365.233 101.794C365.09 102.177 364.348 101.944 363.593 101.693C362.84 101.445 361.261 101.654 360.759 102.77C360.491 103.364 360.473 103.835 360.517 104.147C360.543 104.338 360.749 104.45 360.921 104.361C361.357 104.131 361.876 104.26 362.028 104.591C362.181 104.922 361.937 105.398 361.479 105.579C361.301 105.649 361.249 105.879 361.376 106.022C361.585 106.259 361.953 106.555 362.575 106.74C363.748 107.089 364.94 106.034 365.245 105.299C365.55 104.565 365.857 103.852 366.242 103.995C366.563 104.248 366.11 104.884 365.639 105.522C365.169 106.163 364.881 107.728 365.787 108.551C366.267 108.987 366.711 109.152 367.021 109.208C367.208 109.243 367.38 109.079 367.347 108.891C367.265 108.406 367.546 107.953 367.907 107.911C368.269 107.868 368.646 108.246 368.677 108.739C368.689 108.929 368.89 109.051 369.066 108.973C369.355 108.849 369.749 108.589 370.12 108.054C370.814 107.045 370.178 105.588 369.575 105.069C368.973 104.553 368.388 104.04 368.642 103.718C368.982 103.493 369.446 104.117 369.909 104.762C370.371 105.407 371.771 106.165 372.834 105.557C373.4 105.236 373.691 104.863 373.841 104.586C373.932 104.417 373.829 104.206 373.639 104.178C373.151 104.108 372.806 103.697 372.879 103.34C372.923 103.12 373.12 102.946 373.376 102.871C373.395 102.979 373.416 103.085 373.449 103.193C373.871 104.619 375.323 104.3 375.323 104.3C375.323 104.3 374.596 103.737 375.044 102.564C375.905 100.302 381.027 100.002 381.191 93.8387C381.207 93.2381 381.182 92.7501 381.123 92.3443C382.296 96.5907 381.573 102.24 378.493 107.282C378.146 107.714 377.752 108.145 377.752 108.145C374.031 111.81 372.761 115.249 373.393 117.002C374.024 118.757 375.41 119.132 375.41 119.132C375.276 118.184 375.879 117.415 376.445 116.72C377.01 116.026 376.792 115.341 376.52 114.163C376.248 112.985 377.001 112.835 377.001 112.835C376.844 113.476 377.679 116.338 379.631 115.413C381.58 114.489 380.827 113.342 381.311 112.863C381.796 112.385 382.298 112.572 382.298 112.572C382.298 112.572 382.96 111.057 381.599 110.003C380.238 108.95 379.443 110.006 378.671 109.511C378.432 109.358 378.352 109.079 378.352 108.767C382.57 102.672 383.267 95.4505 381.266 90.6246C381.637 91.0656 382.28 91.2111 382.744 91.1876C383.305 91.1595 384.189 90.6692 383.964 89.665C383.725 88.6022 382.58 88.6867 382.709 89.1935C382.92 90.0263 381.857 90.2469 381.681 89.475C381.505 88.7031 382.331 88.2855 382.385 87.1688C382.439 86.052 381.993 85.0573 380.532 84.2502C379.07 83.4408 377.418 83.9758 377.095 84.2151C376.771 84.4544 376.281 84.3582 376.281 84.3582C373.909 82.6737 371.143 81.8924 368.381 82.2584C367.365 82.3921 366.343 82.7652 365.392 83.3235C367.49 79.7129 367.581 74.6453 366 70.3684C364.212 65.5354 361.84 64.163 361.376 63.668C360.909 63.1729 360.679 62.7905 360.679 62.7905C360.679 62.7905 362.352 61.5213 366.087 65.2774C367.832 67.0323 368.147 67.9332 368.107 69.2798C368.107 69.2798 368.747 69.9461 369.831 69.6833L369.852 69.674C369.852 69.6904 369.848 69.7091 369.848 69.7256C369.848 69.9156 369.939 70.0822 370.078 70.1901C369.923 70.4083 369.728 70.8705 369.808 71.7807C369.937 73.2189 371.143 74.8494 371.502 75.8207C371.861 76.792 372.055 77.6225 371.61 78.1903C371.161 78.7604 370.584 78.5469 370.601 78.3545C370.617 78.1621 370.978 77.6976 370.533 77.0548C370.087 76.4119 369.167 76.5105 368.801 76.9609C368.435 77.409 368.424 78.134 369.019 78.7487C369.615 79.3657 370.711 79.727 372.067 79.2014C373.421 78.6759 374.223 76.9046 373.888 75.4993C373.552 74.094 374.286 73.8641 374.61 73.9908C374.934 74.1175 376.886 75.2506 378.814 75.2225C380.741 75.1943 382.5 73.8148 382.845 72.2077C383.164 70.7227 382.491 69.1203 380.825 69.2634C378.843 69.4323 379.277 71.7808 380.539 71.8957C381.496 71.9825 381.67 71.4148 381.763 71.2599C381.871 71.0793 382.479 71.7761 381.735 72.7098C380.921 73.7304 378.979 73.6248 377.677 72.1702C376.442 70.7907 373.088 68.4188 370.985 69.4792C370.91 69.3127 370.76 69.1883 370.577 69.1461C370.786 68.8904 371.037 68.4657 371.037 67.8886C371.037 67.8886 369.36 67.5953 368.097 66.2909C366.835 64.9865 361.986 59.9541 361.986 59.9541C361.986 59.9541 363.154 60.3952 365.892 62.4363C368.63 64.4774 372.571 66.7695 377.522 67.0463C383.082 67.3584 384.232 62.4198 383.082 60.5688C381.796 58.4972 379.11 58.964 378.329 60.0808C377.611 61.106 377.979 62.5254 379.096 62.8374C380.288 63.1706 381.095 62.3518 381.125 61.6104C381.17 60.6157 380.548 60.4679 380.724 60.0949C380.837 59.8532 381.505 59.75 382.251 60.5547C383 61.3594 383.143 63.2175 381.881 63.9659C380.619 64.7143 379.124 64.346 377.932 63.6985C376.743 63.0509 373.376 61.9717 371.703 63.7829C371.703 63.7829 371.011 63.682 371.248 63.011C371.361 62.6943 372.093 62.577 372.492 61.9741C372.745 61.5893 372.862 60.9817 372.7 60.0057C372.541 59.0297 372.625 58.9828 372.625 58.9828C372.625 58.9828 370.272 58.6825 368.949 59.2737C367.626 59.8649 367.136 61.2491 367.293 62.2744C367.293 62.2744 364.379 60.2614 363.239 59.4755C362.54 58.9945 361.564 58.279 359.856 59.194C359.856 59.194 360.057 58.4667 359.248 58.0279C359.248 58.0279 358.603 58.6004 357.549 58.5324C357.106 58.5019 355.621 58.3494 353.899 58.3447C353.554 57.5845 353.118 57.1482 352.775 56.9065C352.557 56.7517 352.243 56.8596 352.172 57.1177C351.991 57.784 351.365 58.1945 350.882 58.0326C350.398 57.8731 350.14 57.1693 350.391 56.5288C350.49 56.2801 350.302 56.008 350.035 56.0009C349.594 55.9892 348.939 56.0854 348.156 56.5499C346.678 57.4227 346.628 59.6491 347.09 60.6603C347.553 61.6714 347.991 62.6685 347.48 62.9266C346.915 63.0134 346.694 61.9459 346.485 60.8526C346.276 59.7617 344.946 57.974 343.238 58.1194C342.33 58.1969 341.744 58.4948 341.389 58.7599C341.176 58.9218 341.181 59.2503 341.404 59.3981C341.981 59.7758 342.178 60.4984 341.875 60.9089C341.572 61.3195 340.826 61.3477 340.294 60.9089C340.087 60.7377 339.771 60.8315 339.682 61.0849C339.534 61.5002 339.423 62.1524 339.623 63.0415C339.996 64.7167 342.098 65.451 343.203 65.3243L343.187 65.3266ZM367.41 103.613C366.631 103.702 365.927 103.143 365.838 102.364C365.749 101.586 366.307 100.882 367.086 100.793C367.865 100.703 368.569 101.262 368.658 102.041C368.747 102.82 368.189 103.523 367.41 103.613ZM378.547 89.3882C377.813 88.7735 378.378 87.7811 379.108 88.2128C379.516 88.7876 379.894 89.3999 380.231 90.0521C380.398 90.3735 380.551 90.7114 380.689 91.061C380.194 90.2938 379.394 90.0991 378.545 89.3882H378.547ZM380.663 87.204C381.109 87.5324 381.046 88.3442 380.947 88.9025C380.879 89.2897 380.905 89.6744 380.97 89.9747C380.931 89.8926 380.893 89.8105 380.851 89.7307C380.457 88.9706 380.013 88.2621 379.53 87.6028C379.499 86.9506 380.213 86.8732 380.663 87.204ZM368.466 82.9505C370.88 82.6314 373.299 83.2578 375.427 84.635C375.513 84.7781 375.579 84.9377 375.579 85.1089C375.581 85.6673 374.127 87.3354 375.363 89.4468C376.194 90.8686 377.601 91.0445 378.592 90.9601C379.288 90.9014 379.823 91.3753 380.088 92.0205C381.144 94.5895 379.624 99.1268 376.595 98.3385C376.494 98.3127 377.118 97.9116 377.292 97.3086C378.202 94.1578 373.566 93.3085 372.94 96.2224C372.578 97.9022 373.679 98.8265 374.763 99.2371C375.654 99.5749 376.313 99.5327 376.313 99.5327C374.967 99.9503 374.12 100.565 373.688 101.264C372.94 100.305 371.368 100.457 370.692 100.87C370.014 101.285 369.346 101.682 369.118 101.339C369.008 100.945 369.747 100.699 370.502 100.457C371.26 100.215 372.412 99.1198 372.163 97.9209C372.032 97.2851 371.769 96.8933 371.551 96.6658C371.419 96.5274 371.185 96.5579 371.1 96.7315C370.882 97.1725 370.387 97.3743 370.07 97.196C369.754 97.0177 369.669 96.4898 369.934 96.0746C370.038 95.9127 369.944 95.6968 369.756 95.6546C369.742 95.6523 369.726 95.6499 369.712 95.6452C371.349 94.7373 371.933 92.7478 371.769 91.2064C371.663 90.2257 371.286 89.4093 370.718 88.8627L370.713 88.8556C370.713 88.8556 369.505 87.5887 367.419 87.7788C365.336 87.9688 364.937 89.529 364.874 90.5143C364.811 91.4997 365.648 92.6751 367.114 92.7173C368.581 92.7595 369.285 91.1853 369.029 90.0076C368.773 88.8298 369.735 89.2122 369.944 89.3882C370.153 89.5641 370.922 90.4416 370.887 91.8187C370.852 93.1748 369.902 95.1056 367.769 95.5702C366.568 95.7907 365.317 95.6546 364.283 95.1525C362.962 94.5097 362.061 93.3437 361.681 91.7812C361.282 90.1366 361.7 88.2973 362.861 86.601C364.212 84.6256 366.361 83.225 368.466 82.9458V82.9505ZM347.736 63.7806C348.78 63.4474 349.899 64.0246 350.232 65.0686C350.565 66.1149 349.988 67.2317 348.944 67.5648C347.898 67.898 346.781 67.3208 346.448 66.2768C346.115 65.2305 346.692 64.1137 347.736 63.7806ZM378.43 82.3382C378.69 81.8291 378.542 81.2308 378.16 81.0478C377.775 80.8672 377.219 81.1346 376.991 81.6578C376.898 81.876 376.635 81.9651 376.459 81.808C376.18 81.5593 375.833 81.1159 375.619 80.3675C375.223 78.9692 376.841 76.5386 379.87 75.8606C380.307 75.7621 380.497 75.5392 380.827 76.2313C382.078 78.8495 381.63 81.998 380.297 82.5798C379.584 82.8919 379.021 82.9012 378.65 82.8449C378.416 82.8097 378.319 82.5493 378.427 82.3382H378.43ZM382.829 125.046C382.512 125.757 382.104 126.144 381.792 126.353C381.595 126.485 381.348 126.358 381.285 126.128C381.132 125.577 380.621 125.232 380.215 125.359C379.809 125.483 379.579 126.055 379.762 126.597C379.84 126.822 379.708 127.064 379.469 127.066C379.096 127.069 378.54 126.977 377.878 126.569C376.642 125.804 376.201 122.916 377.979 120.375C378.235 120.009 378.223 119.716 378.936 120.005C381.625 121.096 383.417 123.723 382.824 125.051L382.829 125.046Z" fill="#AAAAAA"/>
<path d="M57.0025 91.19C57.467 91.2135 58.1098 91.068 58.4805 90.6269C56.4769 95.4529 57.1761 102.674 61.3944 108.769C61.3944 109.081 61.3146 109.358 61.0753 109.511C60.3034 110.006 59.5104 108.948 58.1474 110.003C56.7866 111.057 57.4482 112.572 57.4482 112.572C57.4482 112.572 57.9503 112.387 58.4359 112.863C58.9216 113.342 58.1661 114.489 60.1157 115.413C62.0653 116.338 62.9029 113.476 62.7457 112.835C62.7457 112.835 63.4965 112.985 63.2267 114.163C62.9545 115.341 62.7363 116.026 63.3017 116.72C63.8671 117.415 64.4701 118.184 64.3364 119.132C64.3364 119.132 65.7229 118.757 66.354 117.002C66.9851 115.247 65.7159 111.807 61.995 108.145C61.995 108.145 61.5985 107.714 61.2536 107.282C58.1732 102.24 57.4506 96.5907 58.6236 92.3443C58.565 92.7501 58.5392 93.2381 58.5556 93.8387C58.7198 100.002 63.8413 100.302 64.7023 102.564C65.1505 103.739 64.4232 104.3 64.4232 104.3C64.4232 104.3 65.8754 104.619 66.2977 103.193C66.3305 103.085 66.3517 102.979 66.3704 102.871C66.6261 102.946 66.8232 103.12 66.8678 103.34C66.9405 103.697 66.5956 104.105 66.1077 104.178C65.9176 104.206 65.8167 104.417 65.9059 104.586C66.056 104.863 66.347 105.234 66.9124 105.557C67.9775 106.165 69.3758 105.407 69.8379 104.762C70.3001 104.117 70.7647 103.491 71.1048 103.718C71.3582 104.04 70.774 104.553 70.1711 105.069C69.5681 105.586 68.9324 107.045 69.6268 108.054C69.9951 108.589 70.3893 108.849 70.6802 108.973C70.8562 109.048 71.0579 108.929 71.0696 108.739C71.1001 108.246 71.4779 107.868 71.8392 107.911C72.2005 107.953 72.482 108.406 72.3999 108.891C72.367 109.081 72.5383 109.243 72.726 109.208C73.0357 109.152 73.4791 108.99 73.96 108.551C74.8656 107.728 74.5771 106.163 74.1078 105.522C73.6386 104.882 73.1858 104.248 73.5049 103.995C73.8873 103.852 74.197 104.567 74.502 105.299C74.807 106.034 75.9964 107.089 77.1718 106.74C77.7959 106.555 78.1642 106.259 78.3707 106.022C78.4974 105.879 78.4458 105.649 78.2675 105.579C77.8076 105.398 77.566 104.922 77.7185 104.591C77.871 104.26 78.3895 104.131 78.8258 104.361C78.9948 104.45 79.2036 104.338 79.2294 104.147C79.2716 103.835 79.2552 103.364 78.9877 102.77C78.4833 101.654 76.9067 101.445 76.1536 101.693C75.4005 101.942 74.6568 102.177 74.5137 101.794C74.4973 101.386 75.2715 101.313 76.0621 101.25C76.8528 101.187 78.2252 100.382 78.2557 99.1573C78.2722 98.5075 78.1056 98.0664 77.9437 97.7943C77.8452 97.63 77.6106 97.6066 77.4909 97.7544C77.1789 98.1344 76.651 98.2189 76.3812 97.9726C76.1138 97.7262 76.1513 97.1937 76.5032 96.8488C76.6393 96.715 76.597 96.4828 76.4258 96.4007C76.1419 96.2646 75.6868 96.1356 75.0416 96.2059C73.824 96.3397 73.1389 97.7755 73.1413 98.5708C73.1459 99.3638 73.1413 100.143 72.7307 100.161C72.3365 100.051 72.5078 99.2911 72.6908 98.5192C72.8269 97.9514 72.6767 96.959 72.1254 96.3139C73.3806 96.4945 74.6592 96.3232 75.7642 95.786C76.8199 95.2722 78.1947 94.1906 78.739 91.9525C79.1355 90.3172 78.8188 88.5272 77.8499 86.8427C80.6488 88.4732 83.9966 88.5788 86.0612 87.4879C88.8225 86.0309 89.1088 83.5675 88.9187 82.2772C88.7287 80.9868 87.6847 80.1188 86.2489 79.9592C84.8154 79.7997 83.6283 80.8038 83.6353 82.1669C83.64 83.4854 84.6535 84.2244 85.7515 84.0555C86.8471 83.8866 87.4032 83.0139 87.2272 82.2373C87.1357 81.8361 87.7293 81.8173 88.0624 82.3241C88.3956 82.8309 88.5574 84.3746 87.2225 85.8949C85.8876 87.4151 84.0623 87.5981 82.3145 87.0069C80.5643 86.4157 79.5719 84.3112 79.5719 84.3112C80.6886 84.2596 80.881 83.6614 80.881 83.6614C80.6863 81.1698 78.9525 80.2197 77.8288 79.6237C76.705 79.0278 75.1354 78.6173 74.2322 76.6489C73.5542 75.1709 74.0797 73.9063 74.4996 73.9063C74.9196 73.9063 74.753 75.5861 76.2686 77.2565C77.7818 78.927 79.9707 78.8472 79.9707 78.8472C79.9707 78.8472 80.0012 78.0917 80.5385 77.6601C81.0757 77.2284 82.5655 76.9891 82.969 77.768C83.3726 78.5445 82.5913 79.422 82.5913 79.422C85.1884 78.2396 84.1139 74.5585 82.5327 73.4254C81.5145 72.6957 82.4013 71.7338 82.4013 71.7338C82.4013 71.7338 82.2816 70.4951 80.4681 70.0845C78.2018 69.5731 77.3361 71.1004 76.2123 70.6077C75.3982 70.2511 75.2105 68.5009 76.7707 66.2205C77.8639 64.6228 79.9097 63.9424 80.691 63.2363C81.4722 62.5301 81.0828 61.6315 81.0828 61.6315C81.4887 62.1899 82.3825 61.9553 82.3825 61.9553C82.6289 60.4515 85.2823 59.5975 85.2823 59.5975L85.6295 59.5083C85.6835 60.7752 86.6383 61.9858 87.4032 62.4081C88.3768 62.943 89.3246 63.4826 89.0665 63.9941C88.663 64.4023 87.8513 63.675 87.0325 62.9242C86.2137 62.1711 84.0811 61.5307 82.7954 62.6662C82.1127 63.2691 81.8195 63.8603 81.6951 64.2826C81.6177 64.5407 81.8195 64.8011 82.0869 64.7847C82.7767 64.7425 83.3632 65.2046 83.3655 65.7161C83.3679 66.2252 82.786 66.6944 82.0963 66.6592C81.8288 66.6451 81.6294 66.9103 81.7092 67.166C81.8382 67.5883 82.1385 68.1771 82.8283 68.7707C84.1257 69.8921 86.2512 69.2282 87.063 68.4681C87.8747 67.7079 88.6794 66.9736 89.0853 67.3748C89.3481 67.8839 88.4073 68.4329 87.4384 68.9795C86.4694 69.5262 85.2025 71.3561 85.8852 72.9303C86.2465 73.7655 86.7204 74.2277 87.0817 74.4788C87.3023 74.6313 87.6143 74.521 87.6823 74.2606C87.856 73.5919 88.4777 73.1767 88.9633 73.3315C89.449 73.4864 89.7141 74.1855 89.4677 74.8307C89.3715 75.0817 89.5616 75.3515 89.8314 75.3562C90.2724 75.3632 90.9246 75.26 91.7036 74.7884C93.1722 73.9016 93.198 71.6728 92.7241 70.6687C92.2502 69.6622 91.8021 68.6698 92.3112 68.4071C92.8766 68.3156 93.1065 69.3784 93.327 70.4693C93.5476 71.5579 94.8966 73.3315 96.6045 73.1673C97.5101 73.0805 98.0967 72.7755 98.4462 72.5057C98.6597 72.3415 98.6503 72.013 98.4251 71.8676C97.8433 71.4969 97.6392 70.7766 97.9371 70.3637C98.2351 69.9508 98.9811 69.9133 99.5184 70.3473C99.7272 70.5162 100.042 70.4177 100.128 70.1643C100.271 69.7467 100.375 69.0945 100.166 68.2076C99.7765 66.5372 97.665 65.824 96.5623 65.9624C95.4597 66.1009 94.3758 66.2229 94.2843 65.6574C94.3711 65.092 95.455 65.2 96.56 65.3266C97.665 65.4533 99.7671 64.719 100.14 63.0439C100.337 62.1547 100.227 61.5049 100.081 61.0873C99.9923 60.8339 99.6756 60.74 99.4691 60.9113C98.9366 61.35 98.1882 61.3219 97.8879 60.9113C97.5852 60.5007 97.7823 59.7781 98.3594 59.4004C98.5846 59.2526 98.5893 58.9242 98.3735 58.7623C98.0216 58.4972 97.4327 58.1969 96.5248 58.1218C94.8168 57.9763 93.4866 59.7641 93.2778 60.855C93.069 61.9459 92.8484 63.0134 92.283 62.9289C91.7716 62.6709 92.2103 61.6738 92.6725 60.6626C93.1347 59.6514 93.0854 57.425 91.6074 56.5522C90.8214 56.0924 90.1669 55.9962 89.7258 56.0056C89.4583 56.0126 89.2707 56.2848 89.3692 56.5335C89.6202 57.1763 89.3645 57.8778 88.8789 58.0373C88.3956 58.1969 87.7692 57.7863 87.5885 57.1224C87.5181 56.8643 87.2061 56.7564 86.9856 56.9112C86.643 57.1528 86.2067 57.5892 85.8618 58.3494C84.1374 58.3564 82.6547 58.5089 82.2113 58.537C81.1579 58.6074 80.5127 58.0326 80.5127 58.0326C79.7033 58.4714 79.905 59.1986 79.905 59.1986C78.1971 58.2837 77.2211 58.9992 76.522 59.4802C75.3818 60.2661 72.4679 62.2791 72.4679 62.2791C72.6251 61.2538 72.1348 59.8696 70.8116 59.2784C69.4884 58.6872 67.1352 58.9875 67.1352 58.9875C67.1352 58.9875 67.2197 59.0368 67.0602 60.0104C66.9006 60.9864 67.0156 61.594 67.269 61.9788C67.6678 62.5817 68.3998 62.7014 68.5124 63.0157C68.7517 63.6867 68.0573 63.7876 68.0573 63.7876C66.3845 61.9764 63.0179 63.0556 61.8284 63.7031C60.6389 64.3507 59.1421 64.719 57.8799 63.9706C56.6177 63.2222 56.7608 61.3641 57.5092 60.5594C58.2576 59.7547 58.9239 59.8556 59.0365 60.0995C59.2101 60.4726 58.5908 60.6204 58.6353 61.6151C58.6682 62.3588 59.4752 63.1753 60.6647 62.8421C61.7815 62.5301 62.1498 61.1107 61.4319 60.0855C60.6506 58.9687 57.9644 58.4995 56.6787 60.5735C55.5291 62.4245 56.6787 67.3631 62.2389 67.051C67.1892 66.7742 71.1306 64.4797 73.8685 62.4409C76.6064 60.3998 77.7748 59.9588 77.7748 59.9588C77.7748 59.9588 72.9254 64.9912 71.6632 66.2956C70.401 67.6 68.7236 67.8933 68.7236 67.8933C68.7236 68.4704 68.9746 68.8951 69.1834 69.1508C69.0004 69.193 68.8502 69.3174 68.7752 69.4839C66.6731 68.4235 63.3182 70.7954 62.0841 72.1749C60.7844 73.6295 58.8395 73.735 58.0254 72.7145C57.2817 71.7808 57.8893 71.084 57.9972 71.2646C58.0911 71.4195 58.2647 71.9896 59.2219 71.9004C60.4841 71.7854 60.9181 69.437 58.9356 69.2681C57.2723 69.1273 56.5966 70.7297 56.9157 72.2124C57.2605 73.8195 59.0201 75.199 60.9463 75.2272C62.8724 75.2553 64.8267 74.1222 65.1505 73.9955C65.4742 73.8688 66.2062 74.0987 65.873 75.504C65.5376 76.9093 66.3399 78.6806 67.6936 79.2061C69.0473 79.7317 70.1429 79.3704 70.7412 78.7533C71.3395 78.1363 71.3254 77.4137 70.9594 76.9656C70.5934 76.5175 69.6737 76.4166 69.228 77.0595C68.7822 77.7023 69.1412 78.1668 69.1599 78.3592C69.1764 78.5516 68.5992 78.7627 68.1511 78.195C67.703 77.6249 67.9001 76.7967 68.259 75.8254C68.618 74.8541 69.8239 73.2236 69.9529 71.7854C70.035 70.8752 69.8379 70.413 69.6831 70.1948C69.8215 70.0869 69.913 69.918 69.913 69.7303C69.913 69.7115 69.9083 69.6951 69.9083 69.6787L69.9294 69.688C71.0133 69.9508 71.6538 69.2845 71.6538 69.2845C71.6139 67.9378 71.9283 67.0369 73.6738 65.2821C77.4065 61.5283 79.0816 62.7952 79.0816 62.7952C79.0816 62.7952 78.8493 63.1776 78.3848 63.6726C77.9179 64.1677 75.546 65.5378 73.7606 70.3731C72.1794 74.65 72.2709 79.7152 74.3683 83.3282C73.4157 82.7699 72.3952 82.3992 71.3793 82.2631C68.618 81.8971 65.8496 82.6784 63.48 84.3629C63.48 84.3629 62.9897 84.459 62.6659 84.2197C62.3422 83.9804 60.6882 83.4455 59.2289 84.2549C57.7673 85.0643 57.3239 86.0591 57.3755 87.1735C57.4295 88.2902 58.2576 88.7055 58.0793 89.4797C57.901 90.2516 56.8406 90.031 57.0517 89.1982C57.1808 88.6914 56.0335 88.6069 55.7966 89.6697C55.5713 90.6739 56.4558 91.1642 57.0165 91.1923L57.0025 91.19ZM92.0085 63.7806C93.0549 64.1137 93.6297 65.2305 93.2966 66.2768C92.9634 67.3232 91.8467 67.898 90.8003 67.5648C89.7539 67.2317 89.1792 66.1149 89.5123 65.0686C89.8454 64.0246 90.9622 63.4474 92.0085 63.7806ZM59.053 91.061C59.1914 90.7114 59.3439 90.3736 59.5104 90.0521C59.8506 89.3999 60.2283 88.7876 60.6342 88.2128C61.3662 87.7811 61.9293 88.7712 61.1949 89.3882C60.3456 90.1014 59.5433 90.2938 59.0506 91.061H59.053ZM72.658 100.793C73.4369 100.882 73.9952 101.586 73.9061 102.364C73.8169 103.143 73.1131 103.702 72.3342 103.613C71.5553 103.523 70.9969 102.82 71.0861 102.041C71.1752 101.262 71.8791 100.703 72.658 100.793ZM71.2785 82.9505C73.3829 83.2297 75.5296 84.6303 76.8833 86.6057C78.0446 88.3019 78.4622 90.1413 78.0634 91.7859C77.6833 93.3484 76.7824 94.5144 75.4615 95.1572C74.4269 95.6617 73.1764 95.7954 71.9752 95.5748C69.8426 95.1127 68.8925 93.1795 68.8573 91.8234C68.8221 90.4463 69.5916 89.5688 69.8004 89.3929C70.0092 89.2169 70.9711 88.8345 70.7154 90.0123C70.4597 91.19 71.1635 92.7666 72.6298 92.722C74.0961 92.6798 74.9337 91.5044 74.8703 90.519C74.807 89.5337 74.4081 87.9735 72.3248 87.7835C70.2415 87.5934 69.0332 88.8603 69.0332 88.8603L69.0285 88.8674C68.4608 89.414 68.0831 90.2281 67.9775 91.2111C67.8133 92.7525 68.3974 94.7443 70.035 95.6499C70.0209 95.6523 70.0045 95.6546 69.9904 95.6593C69.8028 95.7015 69.7089 95.9174 69.8121 96.0793C70.0773 96.4945 69.9928 97.0224 69.6761 97.2007C69.3593 97.379 68.8643 97.1796 68.6461 96.7362C68.5617 96.5649 68.3271 96.5321 68.1957 96.6705C67.9775 96.898 67.7147 97.2898 67.5834 97.9256C67.3347 99.1245 68.4889 100.222 69.2444 100.462C70.0022 100.703 70.7389 100.95 70.6286 101.344C70.4034 101.684 69.7324 101.288 69.0544 100.875C68.3787 100.462 66.8068 100.307 66.0584 101.269C65.6267 100.57 64.7821 99.955 63.4331 99.5374C63.4331 99.5374 64.0924 99.5796 64.9839 99.2418C66.0678 98.8312 67.1681 97.9069 66.8068 96.2271C66.1804 93.3109 61.5445 94.1625 62.4548 97.3133C62.6284 97.9139 63.2525 98.3151 63.1516 98.3432C60.1228 99.1315 58.6025 94.5942 59.6582 92.0252C59.9234 91.38 60.4606 90.9061 61.1551 90.9648C62.1451 91.0492 63.5504 90.8709 64.3833 89.4515C65.6197 87.3401 64.1627 85.672 64.1674 85.1136C64.1674 84.9423 64.2331 84.7828 64.3199 84.6397C66.4455 83.2625 68.8667 82.6361 71.2808 82.9552L71.2785 82.9505ZM59.0811 87.204C59.5316 86.8732 60.2448 86.9506 60.2143 87.6028C59.731 88.2621 59.2876 88.9706 58.8934 89.7307C58.8512 89.8105 58.8137 89.8926 58.7738 89.9747C58.8371 89.6744 58.8653 89.2897 58.7972 88.9026C58.6987 88.3442 58.6353 87.5324 59.0811 87.204ZM61.3146 82.3382C61.4225 82.5493 61.3263 82.8097 61.0917 82.8449C60.721 82.9012 60.158 82.8895 59.4447 82.5798C58.1122 81.998 57.6664 78.8495 58.9145 76.2313C59.2453 75.5368 59.4354 75.7621 59.8717 75.8606C62.9005 76.5386 64.5194 78.9692 64.1229 80.3675C63.9094 81.1159 63.5621 81.5593 63.283 81.808C63.107 81.9675 62.8466 81.876 62.7504 81.6578C62.5228 81.1346 61.9668 80.8672 61.582 81.0478C61.1973 81.2285 61.0518 81.8291 61.3122 82.3382H61.3146ZM61.7627 120.373C63.5434 122.916 63.1 125.802 61.8636 126.567C61.202 126.977 60.646 127.069 60.2729 127.064C60.036 127.064 59.9046 126.82 59.9797 126.595C60.1627 126.053 59.9327 125.483 59.5269 125.356C59.121 125.232 58.6095 125.577 58.457 126.126C58.3937 126.356 58.1497 126.482 57.9503 126.351C57.6383 126.144 57.23 125.755 56.9133 125.044C56.3198 123.716 58.1145 121.091 60.8008 119.998C61.5117 119.709 61.4999 120.002 61.758 120.368L61.7627 120.373Z" fill="#AAAAAA"/>
</svg>
