<svg width="421" height="595" viewBox="0 0 421 595" fill="none" xmlns="http://www.w3.org/2000/svg">
<rect width="420" height="595" transform="translate(0.744141)" fill="white"/>
<path d="M97.5576 529.671C96.4526 529.798 95.3687 529.908 95.2819 529.34C95.3734 528.775 96.4573 528.897 97.5599 529.035C98.6626 529.174 100.772 528.46 101.164 526.79C101.37 525.903 101.267 525.251 101.126 524.833C101.039 524.58 100.725 524.481 100.516 524.65C99.9787 525.082 99.2303 525.047 98.9347 524.634C98.6368 524.221 98.8409 523.501 99.4227 523.13C99.6479 522.985 99.6573 522.656 99.4438 522.492C99.0943 522.225 98.5077 521.917 97.6021 521.83C95.8942 521.669 94.5452 523.44 94.3246 524.528C94.1041 525.617 93.8742 526.682 93.3088 526.591C92.7997 526.328 93.2501 525.335 93.7217 524.329C94.1956 523.322 94.1675 521.096 92.7012 520.209C91.9222 519.738 91.27 519.634 90.829 519.641C90.5615 519.646 90.3715 519.916 90.4653 520.167C90.7117 520.812 90.4466 521.511 89.9609 521.666C89.4753 521.821 88.8536 521.403 88.6799 520.737C88.6119 520.477 88.3022 520.369 88.0793 520.519C87.7157 520.77 87.2441 521.232 86.8828 522.067C86.2001 523.642 87.4694 525.472 88.436 526.018C89.4049 526.565 90.3457 527.114 90.0829 527.623C89.6747 528.026 88.87 527.292 88.0606 526.53C87.2488 525.769 85.1233 525.106 83.8259 526.227C83.1385 526.823 82.8382 527.412 82.7068 527.832C82.627 528.087 82.8264 528.353 83.0939 528.338C83.7836 528.306 84.3655 528.772 84.3631 529.282C84.3608 529.791 83.7719 530.253 83.0822 530.213C82.8147 530.197 82.6129 530.459 82.6904 530.715C82.8171 531.137 83.1103 531.729 83.793 532.331C85.0787 533.467 87.2113 532.827 88.0301 532.073C88.8489 531.32 89.6606 530.595 90.0641 531.004C90.3222 531.515 89.3744 532.055 88.4008 532.59C87.6359 533.01 86.6811 534.222 86.6271 535.489L86.2799 535.4C86.2799 535.4 83.6288 534.546 83.3801 533.042C83.3801 533.042 82.4863 532.805 82.0804 533.366C82.0804 533.366 82.4698 532.47 81.6886 531.761C80.9073 531.055 78.8615 530.375 77.7683 528.777C76.2081 526.497 76.3958 524.749 77.2099 524.39C78.3313 523.897 79.1994 525.427 81.4657 524.913C83.2792 524.503 83.3989 523.264 83.3989 523.264C83.3989 523.264 82.5121 522.302 83.5303 521.572C85.1115 520.439 86.186 516.758 83.5889 515.576C83.5889 515.576 84.3702 516.451 83.9666 517.23C83.5631 518.006 82.0733 517.769 81.5361 517.338C80.9988 516.906 80.9683 516.15 80.9683 516.15C80.9683 516.15 78.7818 516.071 77.2662 517.741C75.753 519.412 75.9172 521.089 75.4972 521.091C75.0773 521.091 74.5494 519.829 75.2298 518.349C76.133 516.38 77.7049 515.97 78.8263 515.374C79.9501 514.778 81.6839 513.828 81.8786 511.336C81.8786 511.336 81.6862 510.74 80.5695 510.686C80.5695 510.686 81.5619 508.582 83.3121 507.991C85.0623 507.4 86.8875 507.583 88.2201 509.103C89.555 510.623 89.3932 512.169 89.06 512.674C88.7269 513.178 88.1333 513.162 88.2248 512.76C88.4008 511.984 87.8447 511.111 86.7491 510.942C85.6535 510.773 84.6376 511.512 84.6329 512.831C84.6282 514.196 85.813 515.198 87.2465 515.038C88.6799 514.879 89.7263 514.011 89.9163 512.72C90.1064 511.43 89.8201 508.967 87.0588 507.51C84.9942 506.421 81.6464 506.524 78.8475 508.155C79.8164 506.47 80.1331 504.678 79.7366 503.045C79.1923 500.807 77.8175 499.725 76.7618 499.212C75.6568 498.674 74.3782 498.506 73.123 498.684C73.672 498.036 73.8245 497.046 73.6884 496.478C73.5031 495.707 73.3341 494.946 73.7283 494.836C74.1365 494.853 74.1435 495.632 74.1388 496.427C74.1342 497.22 74.8216 498.656 76.0392 498.792C76.6844 498.862 77.1395 498.733 77.4234 498.597C77.597 498.515 77.6392 498.283 77.5008 498.149C77.1489 497.804 77.109 497.271 77.3788 497.025C77.6463 496.779 78.1741 496.863 78.4885 497.243C78.6105 497.391 78.8451 497.37 78.9413 497.203C79.1008 496.931 79.2698 496.49 79.2533 495.84C79.2228 494.616 77.8504 493.811 77.0597 493.748C76.2691 493.684 75.4925 493.612 75.5113 493.203C75.6544 492.821 76.3958 493.053 77.1512 493.304C77.9043 493.553 79.4833 493.344 79.9853 492.227C80.2528 491.634 80.2715 491.162 80.227 490.85C80.2012 490.66 79.9947 490.548 79.8234 490.637C79.3871 490.867 78.8686 490.738 78.7161 490.407C78.5636 490.076 78.8076 489.6 79.2651 489.419C79.4434 489.349 79.495 489.119 79.3683 488.976C79.1595 488.739 78.7912 488.443 78.1694 488.258C76.9964 487.908 75.8046 488.964 75.4996 489.698C75.1946 490.433 74.8873 491.146 74.5025 491.003C74.1811 490.749 74.6339 490.114 75.1054 489.475C75.5747 488.835 75.8632 487.27 74.9576 486.447C74.4767 486.01 74.0333 485.846 73.7236 485.79C73.5359 485.754 73.3646 485.919 73.3975 486.106C73.4796 486.592 73.1981 487.045 72.8368 487.087C72.4755 487.129 72.0977 486.752 72.0672 486.259C72.0555 486.069 71.8538 485.947 71.6778 486.024C71.3892 486.149 70.9951 486.409 70.6244 486.944C69.93 487.953 70.5657 489.41 71.1687 489.928C71.7716 490.444 72.3558 490.958 72.1024 491.28C71.7623 491.505 71.2977 490.881 70.8355 490.236C70.3734 489.59 68.9727 488.833 67.91 489.44C67.3446 489.762 67.0536 490.135 66.9035 490.411C66.812 490.58 66.9152 490.792 67.1053 490.82C67.5932 490.89 67.9381 491.301 67.8654 491.657C67.8208 491.878 67.6237 492.051 67.368 492.126C67.3492 492.019 67.3281 491.913 67.2953 491.805C66.873 490.379 65.4208 490.698 65.4208 490.698C65.4208 490.698 66.148 491.261 65.6999 492.434C64.8389 494.695 59.7174 494.996 59.5532 501.159C59.5368 501.76 59.5626 502.248 59.6212 502.653C58.4482 498.407 59.1708 492.758 62.2512 487.716C62.5984 487.284 62.9926 486.852 62.9926 486.852C66.7135 483.188 67.9827 479.748 67.3516 477.996C66.7205 476.243 65.334 475.866 65.334 475.866C65.4677 476.814 64.8647 477.583 64.2993 478.277C63.7339 478.972 63.9521 479.657 64.2243 480.835C64.4964 482.012 63.7433 482.163 63.7433 482.163C63.9005 481.522 63.0653 478.66 61.1133 479.584C59.1637 480.509 59.9168 481.656 59.4335 482.134C58.9479 482.613 58.4458 482.425 58.4458 482.425C58.4458 482.425 57.7842 483.941 59.145 484.994C60.5057 486.048 61.301 484.992 62.0729 485.487C62.3122 485.64 62.392 485.919 62.392 486.231C58.1737 492.326 57.4769 499.547 59.4781 504.373C59.1098 503.932 58.4646 503.787 58.0001 503.81C57.4393 503.838 56.5549 504.329 56.7801 505.333C57.0194 506.395 58.1643 506.311 58.0353 505.804C57.8241 504.971 58.8869 504.751 59.0628 505.523C59.2411 506.295 58.413 506.712 58.359 507.829C58.3051 508.946 58.7508 509.94 60.2124 510.747C61.674 511.557 63.3257 511.022 63.6495 510.783C63.9732 510.543 64.4636 510.64 64.4636 510.64C66.8355 512.324 69.6015 513.105 72.3629 512.739C73.3787 512.606 74.4016 512.233 75.3518 511.674C73.2544 515.285 73.1629 520.352 74.7441 524.629C76.5319 529.462 78.9038 530.835 79.3683 531.33C79.8352 531.825 80.0651 532.207 80.0651 532.207C80.0651 532.207 78.3923 533.476 74.6573 529.72C72.9118 527.965 72.5975 527.065 72.6373 525.718C72.6373 525.718 71.9969 525.052 70.913 525.314L70.8919 525.324C70.8919 525.307 70.8965 525.289 70.8965 525.272C70.8965 525.082 70.805 524.916 70.6666 524.808C70.8215 524.589 71.0162 524.127 70.9364 523.217C70.8074 521.779 69.6015 520.148 69.2425 519.177C68.8836 518.206 68.6889 517.375 69.1346 516.807C69.5827 516.237 70.1599 516.451 70.1434 516.643C70.127 516.836 69.7657 517.3 70.2115 517.943C70.6572 518.586 71.5769 518.487 71.9429 518.037C72.3089 517.589 72.3206 516.864 71.7247 516.249C71.1288 515.634 70.0332 515.271 68.6771 515.796C67.3234 516.322 66.5211 518.093 66.8566 519.498C67.1921 520.904 66.4577 521.134 66.134 521.007C65.8102 520.88 63.8583 519.747 61.9298 519.775C60.0036 519.803 58.2441 521.183 57.8992 522.79C57.5801 524.275 58.2534 525.877 59.9192 525.734C61.9016 525.565 61.4676 523.217 60.2054 523.102C59.2482 523.015 59.0746 523.583 58.9807 523.74C58.8728 523.921 58.2652 523.224 59.0089 522.29C59.823 521.27 61.7655 521.375 63.0676 522.83C64.3017 524.209 67.6566 526.581 69.7587 525.521C69.8338 525.687 69.9839 525.812 70.1669 525.854C69.9581 526.11 69.7071 526.534 69.7071 527.111C69.7071 527.111 71.3845 527.405 72.6467 528.709C73.9089 530.014 78.7583 535.046 78.7583 535.046C78.7583 535.046 77.59 534.605 74.8521 532.564C72.1142 530.523 68.1727 528.231 63.2225 527.954C57.6622 527.642 56.5126 532.58 57.6622 534.431C58.9479 536.503 61.6342 536.036 62.4154 534.919C63.1333 533.894 62.765 532.475 61.6482 532.163C60.4564 531.829 59.6494 532.648 59.6189 533.39C59.5743 534.384 60.196 534.532 60.02 534.905C59.9074 535.147 59.2388 535.25 58.4927 534.445C57.7443 533.641 57.6012 531.783 58.8634 531.034C60.1256 530.286 61.6201 530.654 62.8119 531.302C64.0014 531.949 67.368 533.028 69.0408 531.217C69.0408 531.217 69.7329 531.318 69.4959 531.989C69.3833 532.306 68.6513 532.423 68.2525 533.026C67.9991 533.411 67.8818 534.018 68.0437 534.994C68.2056 535.97 68.1188 536.017 68.1188 536.017C68.1188 536.017 70.4719 536.318 71.7951 535.726C73.1183 535.135 73.6086 533.751 73.4514 532.726C73.4514 532.726 76.3653 534.739 77.5055 535.525C78.2046 536.005 79.1806 536.721 80.8886 535.806C80.8886 535.806 80.6868 536.533 81.4962 536.972C81.4962 536.972 82.1414 536.4 83.1948 536.468C83.6382 536.498 85.1233 536.651 86.8453 536.655C87.1902 537.415 87.6265 537.852 87.9691 538.094C88.1873 538.248 88.5016 538.14 88.572 537.882C88.7527 537.216 89.3791 536.805 89.8624 536.967C90.3457 537.127 90.6037 537.831 90.3527 538.471C90.2542 538.72 90.4419 538.992 90.7093 538.999C91.1504 539.011 91.8049 538.915 92.5885 538.45C94.0666 537.577 94.1158 535.351 93.6537 534.34C93.1915 533.329 92.7528 532.332 93.2642 532.073C93.8296 531.987 94.0502 533.054 94.259 534.147C94.4678 535.238 95.798 537.026 97.506 536.881C98.4139 536.803 99.0004 536.505 99.3547 536.24C99.5682 536.078 99.5635 535.75 99.3406 535.602C98.7635 535.224 98.5664 534.502 98.869 534.091C99.1717 533.68 99.9177 533.652 100.45 534.091C100.657 534.262 100.973 534.168 101.063 533.915C101.21 533.5 101.321 532.848 101.121 531.958C100.748 530.283 98.6462 529.549 97.5411 529.676L97.5576 529.671ZM73.3341 491.387C74.113 491.298 74.8169 491.857 74.906 492.636C74.9952 493.414 74.4368 494.118 73.6579 494.207C72.879 494.297 72.1752 493.738 72.086 492.959C71.9969 492.18 72.5552 491.477 73.3341 491.387ZM62.1972 505.612C62.9316 506.227 62.3661 507.219 61.6365 506.787C61.2283 506.212 60.8506 505.6 60.5127 504.948C60.3462 504.626 60.1937 504.289 60.0552 503.939C60.5503 504.706 61.3503 504.901 62.1996 505.612H62.1972ZM60.081 507.796C59.6353 507.468 59.6986 506.656 59.7972 506.097C59.8652 505.71 59.8394 505.326 59.7737 505.025C59.8136 505.107 59.8511 505.19 59.8934 505.269C60.2875 506.029 60.7309 506.738 61.2142 507.397C61.2447 508.049 60.5315 508.127 60.081 507.796ZM72.2784 512.047C69.8643 512.366 67.4454 511.74 65.3175 510.363C65.2307 510.22 65.165 510.06 65.165 509.889C65.1627 509.33 66.6173 507.662 65.3809 505.551C64.5504 504.129 63.1427 503.953 62.1526 504.038C61.4559 504.096 60.9209 503.622 60.6558 502.977C59.6001 500.408 61.1204 495.871 64.1492 496.659C64.2501 496.685 63.626 497.086 63.4524 497.689C62.5421 500.84 67.178 501.689 67.8044 498.775C68.1657 497.093 67.0654 496.169 65.9815 495.761C65.09 495.423 64.4307 495.465 64.4307 495.465C65.7797 495.047 66.6243 494.433 67.056 493.734C67.8044 494.693 69.3763 494.541 70.052 494.128C70.73 493.712 71.3986 493.316 71.6262 493.658C71.7364 494.053 70.9974 494.299 70.242 494.541C69.4842 494.782 68.3323 495.878 68.5809 497.077C68.7123 497.713 68.9751 498.104 69.1933 498.332C69.3247 498.47 69.5593 498.44 69.6437 498.266C69.8619 497.825 70.3569 497.623 70.6737 497.802C70.9904 497.98 71.0748 498.508 70.8097 498.923C70.7065 499.085 70.8004 499.301 70.988 499.343C71.0021 499.345 71.0185 499.348 71.0326 499.352C69.395 500.26 68.8109 502.25 68.9751 503.791C69.0807 504.772 69.4584 505.588 70.0261 506.135L70.0308 506.142C70.0308 506.142 71.2391 507.409 73.3248 507.219C75.4081 507.029 75.8069 505.469 75.8703 504.483C75.9336 503.498 75.0961 502.323 73.6297 502.28C72.1634 502.238 71.4596 503.812 71.7153 504.99C71.9711 506.168 71.0092 505.785 70.8004 505.609C70.5916 505.434 69.822 504.556 69.8572 503.179C69.8924 501.823 70.8426 499.892 72.9752 499.428C74.1764 499.207 75.4269 499.343 76.4615 499.845C77.7823 500.488 78.6832 501.654 79.0633 503.216C79.4621 504.861 79.0445 506.7 77.8832 508.397C76.5319 510.372 74.3828 511.773 72.2784 512.052V512.047ZM93.0085 531.219C91.9621 531.553 90.8454 530.975 90.5122 529.931C90.1791 528.885 90.7562 527.768 91.8003 527.435C92.8466 527.102 93.9634 527.679 94.2965 528.723C94.6296 529.767 94.0525 530.886 93.0085 531.219ZM62.3145 512.662C62.0541 513.171 62.1996 513.769 62.5843 513.952C62.9691 514.133 63.5251 513.865 63.7527 513.342C63.8489 513.124 64.1093 513.035 64.2853 513.192C64.5644 513.441 64.9117 513.884 65.1252 514.633C65.5216 516.031 63.9028 518.461 60.874 519.139C60.4377 519.238 60.2476 519.461 59.9168 518.769C58.6664 516.15 59.1145 513.002 60.447 512.42C61.1603 512.108 61.7233 512.099 62.094 512.155C62.3286 512.19 62.4248 512.451 62.3169 512.662H62.3145ZM57.9179 469.954C58.2347 469.243 58.6429 468.856 58.9549 468.647C59.152 468.515 59.3983 468.642 59.4617 468.87C59.6142 469.421 60.1256 469.766 60.5315 469.639C60.9374 469.515 61.1673 468.942 60.9843 468.4C60.9069 468.175 61.0383 467.934 61.2776 467.931C61.6506 467.929 62.2066 468.02 62.8682 468.429C64.1046 469.193 64.5457 472.081 62.7673 474.622C62.5116 474.988 62.5233 475.282 61.8101 474.993C59.1215 473.902 57.3291 471.274 57.9226 469.946L57.9179 469.954Z" fill="#888888"/>
<path d="M363.486 503.81C363.021 503.787 362.379 503.932 362.008 504.373C364.011 499.547 363.312 492.326 359.094 486.231C359.094 485.919 359.174 485.642 359.413 485.489C360.185 484.994 360.978 486.052 362.341 484.997C363.702 483.943 363.04 482.428 363.04 482.428C363.04 482.428 362.538 482.613 362.052 482.137C361.567 481.658 362.322 480.511 360.373 479.587C358.423 478.662 357.585 481.524 357.743 482.165C357.743 482.165 356.992 482.015 357.262 480.837C357.534 479.659 357.752 478.974 357.187 478.28C356.621 477.585 356.018 476.816 356.152 475.868C356.152 475.868 354.765 476.243 354.134 477.998C353.503 479.753 354.773 483.192 358.493 486.855C358.493 486.855 358.89 487.286 359.235 487.718C362.315 492.76 363.038 498.409 361.865 502.656C361.923 502.25 361.949 501.762 361.933 501.161C361.769 494.998 356.647 494.698 355.786 492.436C355.338 491.261 356.065 490.7 356.065 490.7C356.065 490.7 354.613 490.381 354.191 491.807C354.158 491.915 354.137 492.021 354.118 492.129C353.862 492.054 353.665 491.88 353.621 491.66C353.548 491.303 353.893 490.895 354.381 490.822C354.571 490.794 354.672 490.583 354.582 490.414C354.432 490.137 354.141 489.766 353.576 489.442C352.511 488.835 351.113 489.593 350.65 490.238C350.188 490.883 349.724 491.509 349.384 491.282C349.13 490.96 349.714 490.447 350.317 489.93C350.92 489.414 351.556 487.955 350.862 486.946C350.493 486.411 350.099 486.151 349.808 486.027C349.632 485.951 349.43 486.071 349.419 486.261C349.388 486.754 349.011 487.132 348.649 487.089C348.288 487.047 348.006 486.594 348.088 486.109C348.121 485.919 347.95 485.757 347.762 485.792C347.453 485.848 347.009 486.01 346.528 486.449C345.623 487.272 345.911 488.837 346.381 489.478C346.85 490.118 347.303 490.752 346.983 491.005C346.601 491.148 346.291 490.433 345.986 489.701C345.681 488.966 344.492 487.91 343.317 488.26C342.692 488.445 342.324 488.741 342.118 488.978C341.991 489.121 342.043 489.351 342.221 489.421C342.681 489.602 342.922 490.078 342.77 490.409C342.617 490.74 342.099 490.869 341.663 490.639C341.494 490.55 341.285 490.662 341.259 490.852C341.217 491.165 341.236 491.636 341.501 492.23C342.005 493.346 343.582 493.555 344.335 493.307C345.088 493.058 345.832 492.823 345.975 493.206C345.991 493.614 345.217 493.687 344.426 493.75C343.636 493.813 342.263 494.618 342.233 495.843C342.216 496.493 342.383 496.934 342.545 497.206C342.643 497.37 342.878 497.393 342.997 497.246C343.309 496.866 343.837 496.781 344.107 497.027C344.375 497.274 344.337 497.806 343.985 498.151C343.849 498.285 343.891 498.517 344.063 498.599C344.346 498.735 344.802 498.864 345.447 498.794C346.664 498.66 347.349 497.224 347.347 496.429C347.342 495.636 347.347 494.857 347.758 494.839C348.152 494.949 347.981 495.709 347.798 496.481C347.662 497.049 347.812 498.041 348.363 498.686C347.108 498.505 345.829 498.677 344.724 499.214C343.668 499.728 342.294 500.809 341.749 503.047C341.353 504.683 341.67 506.473 342.639 508.157C339.84 506.527 336.492 506.421 334.427 507.512C331.666 508.969 331.38 511.432 331.57 512.723C331.76 514.013 332.804 514.881 334.239 515.041C335.673 515.2 336.86 514.196 336.853 512.833C336.848 511.515 335.835 510.776 334.737 510.944C333.641 511.113 333.085 511.986 333.261 512.763C333.353 513.164 332.759 513.183 332.426 512.676C332.093 512.171 331.931 510.625 333.266 509.105C334.601 507.585 336.426 507.402 338.174 507.993C339.924 508.584 340.916 510.689 340.916 510.689C339.8 510.74 339.607 511.339 339.607 511.339C339.8 513.83 341.536 514.78 342.66 515.376C343.783 515.972 345.353 516.383 346.256 518.351C346.934 519.829 346.409 521.094 345.989 521.094C345.569 521.094 345.735 519.414 344.22 517.743C342.707 516.073 340.518 516.153 340.518 516.153C340.518 516.153 340.487 516.908 339.95 517.34C339.413 517.772 337.923 518.011 337.519 517.232C337.116 516.455 337.897 515.578 337.897 515.578C335.3 516.76 336.374 520.441 337.956 521.575C338.974 522.304 338.087 523.266 338.087 523.266C338.087 523.266 338.207 524.505 340.02 524.915C342.287 525.427 343.152 523.9 344.276 524.392C345.09 524.749 345.278 526.499 343.718 528.779C342.624 530.377 340.579 531.058 339.797 531.764C339.016 532.47 339.406 533.368 339.406 533.368C339 532.81 338.106 533.045 338.106 533.045C337.86 534.549 335.206 535.402 335.206 535.402L334.859 535.492C334.805 534.225 333.85 533.014 333.085 532.592C332.112 532.057 331.164 531.517 331.422 531.006C331.825 530.598 332.637 531.325 333.456 532.076C334.275 532.829 336.407 533.469 337.693 532.334C338.376 531.731 338.669 531.14 338.793 530.717C338.871 530.459 338.669 530.199 338.401 530.215C337.712 530.258 337.125 529.795 337.123 529.284C337.12 528.775 337.702 528.306 338.392 528.341C338.66 528.355 338.859 528.09 338.779 527.834C338.65 527.412 338.35 526.823 337.66 526.229C336.363 525.108 334.237 525.772 333.425 526.532C332.614 527.292 331.809 528.026 331.403 527.625C331.14 527.116 332.081 526.567 333.05 526.02C334.019 525.474 335.286 523.644 334.603 522.07C334.242 521.234 333.768 520.772 333.407 520.521C333.186 520.369 332.874 520.479 332.806 520.739C332.632 521.408 332.011 521.823 331.525 521.668C331.039 521.514 330.774 520.814 331.021 520.169C331.117 519.918 330.927 519.648 330.657 519.644C330.216 519.637 329.564 519.74 328.785 520.212C327.316 521.098 327.29 523.327 327.764 524.331C328.238 525.338 328.686 526.33 328.177 526.593C327.612 526.684 327.382 525.622 327.161 524.531C326.941 523.442 325.592 521.668 323.884 521.833C322.978 521.919 322.392 522.224 322.042 522.494C321.829 522.658 321.838 522.987 322.063 523.132C322.645 523.503 322.849 524.223 322.551 524.636C322.253 525.049 321.507 525.087 320.97 524.653C320.761 524.484 320.444 524.582 320.36 524.836C320.217 525.253 320.114 525.905 320.322 526.792C320.712 528.463 322.823 529.176 323.926 529.038C325.029 528.899 326.113 528.777 326.204 529.343C326.117 529.908 325.033 529.8 323.928 529.673C322.823 529.547 320.721 530.281 320.348 531.956C320.151 532.845 320.261 533.495 320.407 533.913C320.496 534.166 320.813 534.26 321.019 534.089C321.552 533.65 322.3 533.678 322.601 534.089C322.903 534.499 322.706 535.222 322.129 535.6C321.904 535.747 321.899 536.076 322.115 536.238C322.467 536.503 323.056 536.803 323.964 536.878C325.672 537.024 327.002 535.236 327.211 534.145C327.419 533.054 327.64 531.987 328.205 532.071C328.717 532.329 328.278 533.326 327.816 534.337C327.354 535.349 327.403 537.575 328.881 538.448C329.665 538.91 330.319 539.006 330.76 538.997C331.028 538.99 331.215 538.718 331.117 538.469C330.866 537.826 331.122 537.125 331.607 536.965C332.09 536.805 332.717 537.216 332.898 537.88C332.968 538.138 333.28 538.246 333.5 538.091C333.843 537.849 334.279 537.413 334.624 536.653C336.349 536.646 337.831 536.493 338.275 536.465C339.328 536.395 339.973 536.97 339.973 536.97C340.783 536.531 340.581 535.804 340.581 535.804C342.289 536.719 343.265 536.003 343.964 535.522C345.104 534.736 348.018 532.723 348.018 532.723C347.861 533.748 348.351 535.133 349.674 535.724C350.998 536.315 353.351 536.015 353.351 536.015C353.351 536.015 353.266 535.966 353.426 534.992C353.585 534.016 353.47 533.408 353.217 533.024C352.818 532.421 352.086 532.301 351.974 531.987C351.734 531.316 352.429 531.215 352.429 531.215C354.102 533.026 357.468 531.947 358.658 531.299C359.847 530.652 361.344 530.283 362.606 531.032C363.868 531.78 363.725 533.638 362.977 534.443C362.228 535.248 361.562 535.147 361.45 534.903C361.276 534.53 361.895 534.382 361.851 533.387C361.818 532.643 361.011 531.827 359.821 532.16C358.705 532.472 358.336 533.892 359.054 534.917C359.835 536.034 362.522 536.503 363.807 534.429C364.957 532.578 363.807 527.639 358.247 527.951C353.297 528.228 349.355 530.523 346.617 532.561C343.88 534.6 342.711 535.044 342.711 535.044C342.711 535.044 347.561 530.011 348.823 528.707C350.085 527.402 351.762 527.109 351.762 527.109C351.762 526.532 351.511 526.107 351.303 525.852C351.486 525.809 351.636 525.685 351.711 525.518C353.813 526.579 357.168 524.207 358.402 522.827C359.702 521.373 361.647 521.267 362.461 522.288C363.204 523.222 362.597 523.918 362.489 523.738C362.395 523.583 362.221 523.013 361.264 523.1C360.002 523.215 359.568 525.563 361.55 525.732C363.214 525.873 363.889 524.27 363.57 522.788C363.225 521.18 361.466 519.801 359.54 519.773C357.614 519.745 355.659 520.878 355.336 521.005C355.012 521.131 354.28 520.901 354.613 519.496C354.948 518.091 354.146 516.319 352.792 515.794C351.439 515.268 350.343 515.63 349.745 516.247C349.149 516.864 349.161 517.586 349.527 518.034C349.893 518.482 350.812 518.583 351.258 517.941C351.704 517.298 351.345 516.833 351.326 516.641C351.31 516.448 351.887 516.237 352.335 516.805C352.783 517.375 352.586 518.203 352.227 519.175C351.868 520.146 350.662 521.776 350.533 523.215C350.451 524.125 350.648 524.587 350.803 524.805C350.665 524.913 350.573 525.082 350.573 525.27C350.573 525.288 350.578 525.305 350.578 525.321L350.557 525.312C349.473 525.049 348.832 525.715 348.832 525.715C348.872 527.062 348.558 527.963 346.812 529.718C343.08 533.472 341.404 532.205 341.404 532.205C341.404 532.205 341.637 531.822 342.101 531.327C342.568 530.832 344.94 529.462 346.725 524.627C348.307 520.35 348.215 515.285 346.118 511.672C347.07 512.23 348.091 512.601 349.107 512.737C351.868 513.103 354.636 512.322 357.006 510.637C357.006 510.637 357.496 510.541 357.82 510.78C358.144 511.02 359.798 511.554 361.257 510.745C362.719 509.936 363.162 508.941 363.111 507.826C363.057 506.71 362.228 506.294 362.407 505.52C362.583 504.748 363.645 504.969 363.434 505.802C363.305 506.309 364.453 506.393 364.689 505.33C364.915 504.326 364.03 503.836 363.469 503.808L363.486 503.81ZM328.48 531.219C327.433 530.886 326.859 529.767 327.192 528.723C327.525 527.677 328.642 527.102 329.688 527.435C330.732 527.768 331.309 528.885 330.976 529.931C330.643 530.978 329.526 531.553 328.48 531.219ZM361.435 503.937C361.297 504.286 361.145 504.624 360.978 504.945C360.638 505.598 360.26 506.21 359.854 506.785C359.122 507.217 358.559 506.226 359.293 505.609C360.143 504.896 360.945 504.704 361.438 503.934L361.435 503.937ZM347.83 494.205C347.052 494.116 346.493 493.412 346.582 492.633C346.671 491.854 347.375 491.296 348.154 491.385C348.933 491.474 349.491 492.178 349.402 492.957C349.313 493.736 348.609 494.294 347.83 494.205ZM349.21 512.047C347.105 511.768 344.959 510.367 343.605 508.392C342.444 506.696 342.026 504.856 342.425 503.212C342.805 501.649 343.706 500.483 345.027 499.84C346.061 499.336 347.312 499.202 348.513 499.423C350.646 499.885 351.596 501.818 351.631 503.174C351.666 504.551 350.897 505.429 350.688 505.605C350.479 505.781 349.517 506.163 349.773 504.985C350.029 503.808 349.325 502.231 347.859 502.276C346.392 502.318 345.555 503.493 345.618 504.479C345.681 505.464 346.08 507.024 348.164 507.214C350.247 507.404 351.455 506.137 351.455 506.137L351.46 506.13C352.028 505.584 352.405 504.77 352.511 503.787C352.675 502.245 352.091 500.253 350.453 499.348C350.467 499.345 350.484 499.343 350.498 499.338C350.686 499.296 350.779 499.08 350.676 498.918C350.411 498.503 350.496 497.975 350.812 497.797C351.129 497.619 351.624 497.818 351.842 498.261C351.927 498.433 352.161 498.466 352.293 498.327C352.511 498.1 352.774 497.708 352.905 497.072C353.154 495.873 351.999 494.775 351.244 494.536C350.486 494.294 349.75 494.048 349.86 493.654C350.085 493.314 350.756 493.71 351.434 494.123C352.11 494.536 353.682 494.691 354.43 493.729C354.862 494.428 355.706 495.043 357.055 495.46C357.055 495.46 356.396 495.418 355.504 495.756C354.421 496.166 353.32 497.091 353.682 498.771C354.308 501.687 358.944 500.835 358.034 497.684C357.86 497.084 357.236 496.683 357.337 496.654C360.366 495.866 361.886 500.403 360.83 502.972C360.565 503.618 360.028 504.091 359.333 504.033C358.343 503.948 356.938 504.127 356.105 505.546C354.869 507.658 356.323 509.326 356.321 509.884C356.321 510.055 356.255 510.215 356.168 510.358C354.043 511.735 351.622 512.361 349.208 512.042L349.21 512.047ZM361.407 507.796C360.957 508.127 360.244 508.049 360.274 507.397C360.757 506.738 361.201 506.029 361.595 505.269C361.637 505.189 361.675 505.107 361.715 505.025C361.651 505.326 361.623 505.71 361.691 506.097C361.79 506.656 361.853 507.468 361.407 507.796ZM359.174 512.662C359.066 512.451 359.162 512.193 359.397 512.155C359.767 512.099 360.33 512.11 361.044 512.42C362.376 513.002 362.822 516.15 361.574 518.769C361.243 519.463 361.053 519.238 360.617 519.139C357.588 518.461 355.969 516.031 356.366 514.633C356.579 513.884 356.926 513.441 357.205 513.192C357.381 513.032 357.642 513.124 357.738 513.342C357.966 513.865 358.522 514.133 358.906 513.952C359.291 513.771 359.437 513.171 359.176 512.662H359.174ZM358.726 474.627C356.945 472.084 357.388 469.198 358.625 468.433C359.286 468.023 359.842 467.931 360.215 467.936C360.452 467.936 360.584 468.18 360.509 468.405C360.326 468.947 360.556 469.517 360.962 469.644C361.367 469.768 361.879 469.423 362.031 468.874C362.095 468.644 362.339 468.518 362.538 468.651C362.85 468.858 363.258 469.247 363.575 469.958C364.169 471.286 362.374 473.911 359.688 475.005C358.977 475.293 358.988 475 358.73 474.634L358.726 474.627Z" fill="#888888"/>
<path d="M323.931 65.3266C325.036 65.2 326.12 65.0897 326.206 65.6574C326.115 66.2229 325.031 66.1009 323.928 65.9624C322.826 65.824 320.717 66.5372 320.325 68.2076C320.118 69.0945 320.222 69.7467 320.362 70.1643C320.449 70.4177 320.764 70.5162 320.972 70.3473C321.51 69.9156 322.258 69.9508 322.554 70.3637C322.852 70.779 322.647 71.4969 322.066 71.8676C321.84 72.013 321.831 72.3415 322.044 72.5057C322.394 72.7731 322.981 73.0805 323.886 73.1673C325.594 73.3292 326.943 71.5579 327.164 70.4693C327.384 69.3807 327.614 68.3156 328.18 68.4071C328.689 68.6698 328.238 69.6622 327.767 70.6687C327.293 71.6752 327.321 73.9016 328.787 74.7884C329.566 75.26 330.218 75.3632 330.659 75.3562C330.927 75.3515 331.117 75.0817 331.023 74.8307C330.777 74.1855 331.042 73.4864 331.527 73.3315C332.013 73.1767 332.635 73.5943 332.808 74.2606C332.876 74.521 333.186 74.6289 333.409 74.4788C333.773 74.2277 334.244 73.7655 334.605 72.9303C335.288 71.3561 334.019 69.5262 333.052 68.9795C332.083 68.4329 331.143 67.8839 331.405 67.3748C331.814 66.9713 332.618 67.7056 333.428 68.4681C334.239 69.2282 336.365 69.8921 337.662 68.7707C338.35 68.1748 338.65 67.5859 338.782 67.166C338.861 66.9103 338.662 66.6451 338.394 66.6592C337.705 66.6921 337.123 66.2252 337.125 65.7161C337.128 65.207 337.716 64.7448 338.406 64.7847C338.674 64.8011 338.875 64.5384 338.798 64.2826C338.671 63.8603 338.378 63.2691 337.695 62.6662C336.41 61.5307 334.277 62.1711 333.458 62.9242C332.639 63.6773 331.828 64.4023 331.424 63.9941C331.166 63.4826 332.114 62.943 333.088 62.4081C333.852 61.9882 334.807 60.7752 334.861 59.5083L335.208 59.5975C335.208 59.5975 337.86 60.4515 338.108 61.9553C338.108 61.9553 339.002 62.1923 339.408 61.6315C339.408 61.6315 339.018 62.5278 339.8 63.2363C340.581 63.9424 342.627 64.6228 343.72 66.2205C345.28 68.5009 345.093 70.2488 344.278 70.6077C343.157 71.1004 342.289 69.5707 340.023 70.0845C338.209 70.4951 338.089 71.7338 338.089 71.7338C338.089 71.7338 338.976 72.6957 337.958 73.4254C336.377 74.5585 335.302 78.2395 337.899 79.422C337.899 79.422 337.118 78.5469 337.522 77.768C337.925 76.9914 339.415 77.2284 339.952 77.6601C340.489 78.0917 340.52 78.8472 340.52 78.8472C340.52 78.8472 342.707 78.927 344.222 77.2565C345.735 75.5861 345.571 73.9087 345.991 73.9063C346.411 73.9063 346.939 75.1685 346.259 76.6489C345.355 78.6173 343.783 79.0278 342.662 79.6237C341.538 80.2197 339.804 81.1698 339.61 83.6614C339.61 83.6614 339.802 84.2573 340.919 84.3112C340.919 84.3112 339.924 86.4157 338.176 87.0069C336.426 87.5981 334.601 87.4151 333.268 85.8949C331.933 84.3746 332.095 82.8285 332.428 82.3241C332.761 81.8197 333.355 81.8361 333.263 82.2373C333.088 83.0139 333.644 83.8866 334.739 84.0555C335.835 84.2244 336.851 83.4854 336.855 82.1669C336.86 80.8015 335.675 79.7997 334.242 79.9592C332.808 80.1188 331.762 80.9868 331.572 82.2772C331.382 83.5675 331.668 86.0333 334.43 87.4879C336.494 88.5764 339.842 88.4732 342.641 86.8427C341.672 88.5272 341.355 90.3196 341.752 91.9525C342.296 94.1906 343.671 95.2722 344.727 95.786C345.832 96.3232 347.11 96.4922 348.365 96.3139C347.816 96.9614 347.664 97.9514 347.8 98.5192C347.985 99.2911 348.154 100.051 347.76 100.161C347.352 100.145 347.345 99.3661 347.349 98.5708C347.354 97.7778 346.667 96.342 345.449 96.2059C344.804 96.1356 344.349 96.2646 344.065 96.4007C343.891 96.4828 343.849 96.715 343.988 96.8488C344.339 97.1936 344.379 97.7262 344.109 97.9726C343.842 98.2189 343.314 98.1344 343 97.7544C342.878 97.6066 342.643 97.6277 342.547 97.7942C342.387 98.0664 342.219 98.5075 342.235 99.1573C342.265 100.382 343.638 101.187 344.429 101.25C345.219 101.313 345.996 101.386 345.977 101.794C345.834 102.177 345.093 101.944 344.337 101.693C343.584 101.445 342.005 101.654 341.503 102.77C341.236 103.364 341.217 103.835 341.261 104.147C341.287 104.338 341.494 104.45 341.665 104.361C342.101 104.131 342.62 104.26 342.772 104.591C342.925 104.922 342.681 105.398 342.223 105.579C342.045 105.649 341.993 105.879 342.12 106.022C342.329 106.259 342.697 106.555 343.319 106.74C344.492 107.089 345.684 106.034 345.989 105.299C346.294 104.565 346.601 103.852 346.986 103.995C347.307 104.248 346.854 104.884 346.383 105.522C345.914 106.163 345.625 107.728 346.531 108.551C347.012 108.987 347.455 109.152 347.765 109.208C347.952 109.243 348.124 109.079 348.091 108.891C348.009 108.406 348.29 107.953 348.652 107.911C349.013 107.868 349.391 108.246 349.421 108.739C349.433 108.929 349.635 109.051 349.811 108.973C350.099 108.849 350.493 108.589 350.864 108.054C351.558 107.045 350.923 105.588 350.32 105.069C349.717 104.553 349.132 104.04 349.386 103.718C349.726 103.493 350.191 104.117 350.653 104.762C351.115 105.407 352.516 106.165 353.578 105.557C354.144 105.236 354.435 104.863 354.585 104.586C354.676 104.417 354.573 104.206 354.383 104.178C353.895 104.108 353.55 103.697 353.623 103.34C353.667 103.12 353.865 102.946 354.12 102.871C354.139 102.979 354.16 103.085 354.193 103.193C354.615 104.619 356.068 104.3 356.068 104.3C356.068 104.3 355.34 103.737 355.788 102.564C356.649 100.302 361.771 100.002 361.935 93.8387C361.952 93.2381 361.926 92.7501 361.867 92.3443C363.04 96.5907 362.318 102.24 359.237 107.282C358.89 107.714 358.496 108.145 358.496 108.145C354.775 111.81 353.506 115.249 354.137 117.002C354.768 118.757 356.154 119.132 356.154 119.132C356.021 118.184 356.624 117.415 357.189 116.72C357.754 116.026 357.536 115.341 357.264 114.163C356.992 112.985 357.745 112.835 357.745 112.835C357.588 113.476 358.423 116.338 360.375 115.413C362.325 114.489 361.571 113.342 362.055 112.863C362.54 112.385 363.042 112.572 363.042 112.572C363.042 112.572 363.704 111.057 362.343 110.003C360.983 108.95 360.187 110.006 359.415 109.511C359.176 109.358 359.096 109.079 359.096 108.767C363.315 102.672 364.011 95.4505 362.01 90.6246C362.381 91.0656 363.024 91.2111 363.488 91.1876C364.049 91.1595 364.933 90.6692 364.708 89.665C364.469 88.6022 363.324 88.6867 363.453 89.1935C363.664 90.0263 362.601 90.2469 362.425 89.475C362.249 88.7031 363.075 88.2855 363.129 87.1688C363.183 86.052 362.737 85.0573 361.276 84.2502C359.814 83.4408 358.163 83.9758 357.839 84.2151C357.515 84.4544 357.025 84.3582 357.025 84.3582C354.653 82.6737 351.887 81.8924 349.125 82.2584C348.11 82.3921 347.087 82.7652 346.137 83.3235C348.234 79.7129 348.325 74.6453 346.744 70.3684C344.956 65.5354 342.585 64.163 342.12 63.668C341.653 63.1729 341.423 62.7905 341.423 62.7905C341.423 62.7905 343.096 61.5213 346.831 65.2774C348.576 67.0323 348.891 67.9332 348.851 69.2798C348.851 69.2798 349.491 69.9461 350.575 69.6833L350.596 69.674C350.596 69.6904 350.592 69.7091 350.592 69.7256C350.592 69.9156 350.683 70.0822 350.822 70.1901C350.667 70.4083 350.472 70.8705 350.552 71.7807C350.681 73.2189 351.887 74.8494 352.246 75.8207C352.605 76.792 352.799 77.6225 352.354 78.1903C351.906 78.7604 351.328 78.5469 351.345 78.3545C351.361 78.1621 351.723 77.6976 351.277 77.0548C350.831 76.4119 349.911 76.5105 349.545 76.9609C349.179 77.409 349.168 78.134 349.764 78.7487C350.359 79.3657 351.455 79.727 352.811 79.2014C354.165 78.6759 354.967 76.9046 354.632 75.4993C354.296 74.094 355.031 73.8641 355.354 73.9908C355.678 74.1175 357.63 75.2506 359.559 75.2225C361.485 75.1943 363.244 73.8148 363.589 72.2077C363.908 70.7227 363.235 69.1203 361.569 69.2634C359.587 69.4323 360.021 71.7808 361.283 71.8957C362.24 71.9825 362.414 71.4148 362.508 71.2599C362.615 71.0793 363.223 71.7761 362.479 72.7098C361.665 73.7304 359.723 73.6248 358.421 72.1702C357.187 70.7907 353.832 68.4188 351.73 69.4792C351.655 69.3127 351.504 69.1883 351.321 69.1461C351.53 68.8904 351.781 68.4657 351.781 67.8886C351.781 67.8886 350.104 67.5953 348.842 66.2909C347.579 64.9865 342.73 59.9541 342.73 59.9541C342.73 59.9541 343.898 60.3952 346.636 62.4363C349.374 64.4774 353.316 66.7695 358.266 67.0463C363.826 67.3584 364.976 62.4198 363.826 60.5688C362.54 58.4972 359.854 58.964 359.073 60.0808C358.355 61.106 358.723 62.5254 359.84 62.8374C361.032 63.1706 361.839 62.3518 361.869 61.6104C361.914 60.6157 361.292 60.4679 361.468 60.0949C361.581 59.8532 362.249 59.75 362.996 60.5547C363.744 61.3594 363.887 63.2175 362.625 63.9659C361.363 64.7143 359.868 64.346 358.676 63.6985C357.487 63.0509 354.12 61.9717 352.448 63.7829C352.448 63.7829 351.755 63.682 351.992 63.011C352.105 62.6943 352.837 62.577 353.236 61.9741C353.489 61.5893 353.606 60.9817 353.445 60.0057C353.285 59.0297 353.37 58.9828 353.37 58.9828C353.37 58.9828 351.016 58.6825 349.693 59.2737C348.37 59.8649 347.88 61.2491 348.037 62.2744C348.037 62.2744 345.123 60.2614 343.983 59.4755C343.284 58.9945 342.308 58.279 340.6 59.194C340.6 59.194 340.801 58.4667 339.992 58.0279C339.992 58.0279 339.347 58.6004 338.294 58.5324C337.85 58.5019 336.365 58.3494 334.643 58.3447C334.298 57.5845 333.862 57.1482 333.519 56.9065C333.301 56.7517 332.987 56.8596 332.916 57.1177C332.736 57.784 332.109 58.1945 331.626 58.0326C331.143 57.8731 330.885 57.1693 331.136 56.5288C331.234 56.2801 331.046 56.008 330.779 56.0009C330.338 55.9892 329.683 56.0854 328.9 56.5499C327.422 57.4227 327.372 59.6491 327.835 60.6603C328.297 61.6714 328.736 62.6685 328.224 62.9266C327.659 63.0134 327.438 61.9459 327.229 60.8526C327.021 59.7617 325.69 57.974 323.982 58.1194C323.074 58.1969 322.488 58.4948 322.134 58.7599C321.92 58.9218 321.925 59.2503 322.148 59.3981C322.725 59.7758 322.922 60.4984 322.619 60.9089C322.317 61.3195 321.571 61.3477 321.038 60.9089C320.832 60.7377 320.515 60.8315 320.426 61.0849C320.278 61.5002 320.168 62.1524 320.367 63.0415C320.74 64.7167 322.842 65.451 323.947 65.3243L323.931 65.3266ZM348.154 103.613C347.375 103.702 346.671 103.143 346.582 102.364C346.493 101.586 347.052 100.882 347.83 100.793C348.609 100.703 349.313 101.262 349.402 102.041C349.491 102.82 348.933 103.523 348.154 103.613ZM359.291 89.3882C358.557 88.7735 359.122 87.7811 359.852 88.2128C360.26 88.7876 360.638 89.3999 360.976 90.0521C361.142 90.3735 361.295 90.7114 361.433 91.061C360.938 90.2938 360.138 90.0991 359.289 89.3882H359.291ZM361.407 87.204C361.853 87.5324 361.79 88.3442 361.691 88.9025C361.623 89.2897 361.649 89.6744 361.715 89.9747C361.675 89.8926 361.637 89.8105 361.595 89.7307C361.201 88.9706 360.757 88.2621 360.274 87.6028C360.244 86.9506 360.957 86.8732 361.407 87.204ZM349.21 82.9505C351.624 82.6314 354.043 83.2578 356.171 84.635C356.258 84.7781 356.323 84.9377 356.323 85.1089C356.326 85.6673 354.871 87.3354 356.107 89.4468C356.938 90.8686 358.346 91.0445 359.336 90.9601C360.032 90.9014 360.567 91.3753 360.832 92.0205C361.888 94.5895 360.368 99.1268 357.339 98.3385C357.238 98.3127 357.862 97.9116 358.036 97.3086C358.946 94.1578 354.31 93.3085 353.684 96.2224C353.323 97.9022 354.423 98.8265 355.507 99.2371C356.398 99.5749 357.058 99.5327 357.058 99.5327C355.711 99.9503 354.864 100.565 354.432 101.264C353.684 100.305 352.112 100.457 351.436 100.87C350.758 101.285 350.09 101.682 349.862 101.339C349.752 100.945 350.491 100.699 351.246 100.457C352.004 100.215 353.156 99.1198 352.907 97.9209C352.776 97.2851 352.513 96.8933 352.295 96.6658C352.164 96.5274 351.929 96.5579 351.845 96.7315C351.626 97.1725 351.131 97.3743 350.815 97.196C350.498 97.0177 350.413 96.4898 350.679 96.0746C350.782 95.9127 350.688 95.6968 350.5 95.6546C350.486 95.6523 350.47 95.6499 350.456 95.6452C352.093 94.7373 352.677 92.7478 352.513 91.2064C352.408 90.2257 352.03 89.4093 351.462 88.8627L351.457 88.8556C351.457 88.8556 350.249 87.5887 348.164 87.7788C346.08 87.9688 345.681 89.529 345.618 90.5143C345.555 91.4997 346.392 92.6751 347.859 92.7173C349.325 92.7595 350.029 91.1853 349.773 90.0076C349.517 88.8298 350.479 89.2122 350.688 89.3882C350.897 89.5641 351.666 90.4416 351.631 91.8187C351.596 93.1748 350.646 95.1056 348.513 95.5702C347.312 95.7907 346.061 95.6546 345.027 95.1525C343.706 94.5097 342.805 93.3437 342.425 91.7812C342.026 90.1366 342.444 88.2973 343.605 86.601C344.956 84.6256 347.105 83.225 349.21 82.9458V82.9505ZM328.48 63.7806C329.524 63.4474 330.643 64.0246 330.976 65.0686C331.309 66.1149 330.732 67.2317 329.688 67.5648C328.642 67.898 327.525 67.3208 327.192 66.2768C326.859 65.2305 327.436 64.1137 328.48 63.7806ZM359.174 82.3382C359.434 81.8291 359.286 81.2308 358.904 81.0478C358.519 80.8672 357.963 81.1346 357.736 81.6578C357.642 81.876 357.379 81.9651 357.203 81.808C356.924 81.5593 356.577 81.1159 356.363 80.3675C355.967 78.9692 357.585 76.5386 360.614 75.8606C361.051 75.7621 361.241 75.5392 361.571 76.2313C362.822 78.8495 362.374 81.998 361.041 82.5798C360.328 82.8919 359.765 82.9012 359.394 82.8449C359.16 82.8097 359.064 82.5493 359.171 82.3382H359.174ZM363.573 125.046C363.256 125.757 362.848 126.144 362.536 126.353C362.339 126.485 362.092 126.358 362.029 126.128C361.876 125.577 361.365 125.232 360.959 125.359C360.553 125.483 360.323 126.055 360.506 126.597C360.584 126.822 360.452 127.064 360.213 127.066C359.84 127.069 359.284 126.977 358.622 126.569C357.386 125.804 356.945 122.916 358.723 120.375C358.979 120.009 358.967 119.716 359.681 120.005C362.369 121.096 364.162 123.723 363.568 125.051L363.573 125.046Z" fill="#888888"/>
<path d="M58.0025 91.19C58.467 91.2135 59.1098 91.068 59.4805 90.6269C57.4769 95.4529 58.1761 102.674 62.3944 108.769C62.3944 109.081 62.3146 109.358 62.0753 109.511C61.3034 110.006 60.5104 108.948 59.1474 110.003C57.7866 111.057 58.4482 112.572 58.4482 112.572C58.4482 112.572 58.9503 112.387 59.4359 112.863C59.9216 113.342 59.1661 114.489 61.1157 115.413C63.0653 116.338 63.9029 113.476 63.7457 112.835C63.7457 112.835 64.4965 112.985 64.2267 114.163C63.9545 115.341 63.7363 116.026 64.3017 116.72C64.8671 117.415 65.4701 118.184 65.3364 119.132C65.3364 119.132 66.7229 118.757 67.354 117.002C67.9851 115.247 66.7159 111.807 62.995 108.145C62.995 108.145 62.5985 107.714 62.2536 107.282C59.1732 102.24 58.4506 96.5907 59.6236 92.3443C59.565 92.7501 59.5392 93.2381 59.5556 93.8387C59.7198 100.002 64.8413 100.302 65.7023 102.564C66.1505 103.739 65.4232 104.3 65.4232 104.3C65.4232 104.3 66.8754 104.619 67.2977 103.193C67.3305 103.085 67.3517 102.979 67.3704 102.871C67.6261 102.946 67.8232 103.12 67.8678 103.34C67.9405 103.697 67.5956 104.105 67.1077 104.178C66.9176 104.206 66.8167 104.417 66.9059 104.586C67.056 104.863 67.347 105.234 67.9124 105.557C68.9775 106.165 70.3758 105.407 70.8379 104.762C71.3001 104.117 71.7647 103.491 72.1048 103.718C72.3582 104.04 71.774 104.553 71.1711 105.069C70.5681 105.586 69.9324 107.045 70.6268 108.054C70.9951 108.589 71.3893 108.849 71.6802 108.973C71.8562 109.048 72.0579 108.929 72.0696 108.739C72.1001 108.246 72.4779 107.868 72.8392 107.911C73.2005 107.953 73.482 108.406 73.3999 108.891C73.367 109.081 73.5383 109.243 73.726 109.208C74.0357 109.152 74.4791 108.99 74.96 108.551C75.8656 107.728 75.5771 106.163 75.1078 105.522C74.6386 104.882 74.1858 104.248 74.5049 103.995C74.8873 103.852 75.197 104.567 75.502 105.299C75.807 106.034 76.9964 107.089 78.1718 106.74C78.7959 106.555 79.1642 106.259 79.3707 106.022C79.4974 105.879 79.4458 105.649 79.2675 105.579C78.8076 105.398 78.566 104.922 78.7185 104.591C78.871 104.26 79.3895 104.131 79.8258 104.361C79.9948 104.45 80.2036 104.338 80.2294 104.147C80.2716 103.835 80.2552 103.364 79.9877 102.77C79.4833 101.654 77.9067 101.445 77.1536 101.693C76.4005 101.942 75.6568 102.177 75.5137 101.794C75.4973 101.386 76.2715 101.313 77.0621 101.25C77.8528 101.187 79.2252 100.382 79.2557 99.1573C79.2722 98.5075 79.1056 98.0664 78.9437 97.7943C78.8452 97.63 78.6106 97.6066 78.4909 97.7544C78.1789 98.1344 77.651 98.2189 77.3812 97.9726C77.1138 97.7262 77.1513 97.1937 77.5032 96.8488C77.6393 96.715 77.597 96.4828 77.4258 96.4007C77.1419 96.2646 76.6868 96.1356 76.0416 96.2059C74.824 96.3397 74.1389 97.7755 74.1413 98.5708C74.1459 99.3638 74.1413 100.143 73.7307 100.161C73.3365 100.051 73.5078 99.2911 73.6908 98.5192C73.8269 97.9514 73.6767 96.959 73.1254 96.3139C74.3806 96.4945 75.6592 96.3232 76.7642 95.786C77.8199 95.2722 79.1947 94.1906 79.739 91.9525C80.1355 90.3172 79.8188 88.5272 78.8499 86.8427C81.6488 88.4732 84.9966 88.5788 87.0612 87.4879C89.8225 86.0309 90.1088 83.5675 89.9187 82.2772C89.7287 80.9868 88.6847 80.1188 87.2489 79.9592C85.8154 79.7997 84.6283 80.8038 84.6353 82.1669C84.64 83.4854 85.6535 84.2244 86.7515 84.0555C87.8471 83.8866 88.4032 83.0139 88.2272 82.2373C88.1357 81.8361 88.7293 81.8173 89.0624 82.3241C89.3956 82.8309 89.5574 84.3746 88.2225 85.8949C86.8876 87.4151 85.0623 87.5981 83.3145 87.0069C81.5643 86.4157 80.5719 84.3112 80.5719 84.3112C81.6886 84.2596 81.881 83.6614 81.881 83.6614C81.6863 81.1698 79.9525 80.2197 78.8288 79.6237C77.705 79.0278 76.1354 78.6173 75.2322 76.6489C74.5542 75.1709 75.0797 73.9063 75.4996 73.9063C75.9196 73.9063 75.753 75.5861 77.2686 77.2565C78.7818 78.927 80.9707 78.8472 80.9707 78.8472C80.9707 78.8472 81.0012 78.0917 81.5385 77.6601C82.0757 77.2284 83.5655 76.9891 83.969 77.768C84.3726 78.5445 83.5913 79.422 83.5913 79.422C86.1884 78.2396 85.1139 74.5585 83.5327 73.4254C82.5145 72.6957 83.4013 71.7338 83.4013 71.7338C83.4013 71.7338 83.2816 70.4951 81.4681 70.0845C79.2018 69.5731 78.3361 71.1004 77.2123 70.6077C76.3982 70.2511 76.2105 68.5009 77.7707 66.2205C78.8639 64.6228 80.9097 63.9424 81.691 63.2363C82.4722 62.5301 82.0828 61.6315 82.0828 61.6315C82.4887 62.1899 83.3825 61.9553 83.3825 61.9553C83.6289 60.4515 86.2823 59.5975 86.2823 59.5975L86.6295 59.5083C86.6835 60.7752 87.6383 61.9858 88.4032 62.4081C89.3768 62.943 90.3246 63.4826 90.0665 63.9941C89.663 64.4023 88.8513 63.675 88.0325 62.9242C87.2137 62.1711 85.0811 61.5307 83.7954 62.6662C83.1127 63.2691 82.8195 63.8603 82.6951 64.2826C82.6177 64.5407 82.8195 64.8011 83.0869 64.7847C83.7767 64.7425 84.3632 65.2046 84.3655 65.7161C84.3679 66.2252 83.786 66.6944 83.0963 66.6592C82.8288 66.6451 82.6294 66.9103 82.7092 67.166C82.8382 67.5883 83.1385 68.1771 83.8283 68.7707C85.1257 69.8921 87.2512 69.2282 88.063 68.4681C88.8747 67.7079 89.6794 66.9736 90.0853 67.3748C90.3481 67.8839 89.4073 68.4329 88.4384 68.9795C87.4694 69.5262 86.2025 71.3561 86.8852 72.9303C87.2465 73.7655 87.7204 74.2277 88.0817 74.4788C88.3023 74.6313 88.6143 74.521 88.6823 74.2606C88.856 73.5919 89.4777 73.1767 89.9633 73.3315C90.449 73.4864 90.7141 74.1855 90.4677 74.8307C90.3715 75.0817 90.5616 75.3515 90.8314 75.3562C91.2724 75.3632 91.9246 75.26 92.7036 74.7884C94.1722 73.9016 94.198 71.6728 93.7241 70.6687C93.2502 69.6622 92.8021 68.6698 93.3112 68.4071C93.8766 68.3156 94.1065 69.3784 94.327 70.4693C94.5476 71.5579 95.8966 73.3315 97.6045 73.1673C98.5101 73.0805 99.0967 72.7755 99.4462 72.5057C99.6597 72.3415 99.6503 72.013 99.4251 71.8676C98.8433 71.4969 98.6392 70.7766 98.9371 70.3637C99.2351 69.9508 99.9811 69.9133 100.518 70.3473C100.727 70.5162 101.042 70.4177 101.128 70.1643C101.271 69.7467 101.375 69.0945 101.166 68.2076C100.776 66.5372 98.665 65.824 97.5623 65.9624C96.4597 66.1009 95.3758 66.2229 95.2843 65.6574C95.3711 65.092 96.455 65.2 97.56 65.3266C98.665 65.4533 100.767 64.719 101.14 63.0439C101.337 62.1547 101.227 61.5049 101.081 61.0873C100.992 60.8339 100.676 60.74 100.469 60.9113C99.9366 61.35 99.1882 61.3219 98.8879 60.9113C98.5852 60.5007 98.7823 59.7781 99.3594 59.4004C99.5846 59.2526 99.5893 58.9242 99.3735 58.7623C99.0216 58.4972 98.4327 58.1969 97.5248 58.1218C95.8168 57.9763 94.4866 59.7641 94.2778 60.855C94.069 61.9459 93.8484 63.0134 93.283 62.9289C92.7716 62.6709 93.2103 61.6738 93.6725 60.6626C94.1347 59.6514 94.0854 57.425 92.6074 56.5522C91.8214 56.0924 91.1669 55.9962 90.7258 56.0056C90.4583 56.0126 90.2707 56.2848 90.3692 56.5335C90.6202 57.1763 90.3645 57.8778 89.8789 58.0373C89.3956 58.1969 88.7692 57.7863 88.5885 57.1224C88.5181 56.8643 88.2061 56.7564 87.9856 56.9112C87.643 57.1528 87.2067 57.5892 86.8618 58.3494C85.1374 58.3564 83.6547 58.5089 83.2113 58.537C82.1579 58.6074 81.5127 58.0326 81.5127 58.0326C80.7033 58.4714 80.905 59.1986 80.905 59.1986C79.1971 58.2837 78.2211 58.9992 77.522 59.4802C76.3818 60.2661 73.4679 62.2791 73.4679 62.2791C73.6251 61.2538 73.1348 59.8696 71.8116 59.2784C70.4884 58.6872 68.1352 58.9875 68.1352 58.9875C68.1352 58.9875 68.2197 59.0368 68.0602 60.0104C67.9006 60.9864 68.0156 61.594 68.269 61.9788C68.6678 62.5817 69.3998 62.7014 69.5124 63.0157C69.7517 63.6867 69.0573 63.7876 69.0573 63.7876C67.3845 61.9764 64.0179 63.0556 62.8284 63.7031C61.6389 64.3507 60.1421 64.719 58.8799 63.9706C57.6177 63.2222 57.7608 61.3641 58.5092 60.5594C59.2576 59.7547 59.9239 59.8556 60.0365 60.0995C60.2101 60.4726 59.5908 60.6204 59.6353 61.6151C59.6682 62.3588 60.4752 63.1753 61.6647 62.8421C62.7815 62.5301 63.1498 61.1107 62.4319 60.0855C61.6506 58.9687 58.9644 58.4995 57.6787 60.5735C56.5291 62.4245 57.6787 67.3631 63.2389 67.051C68.1892 66.7742 72.1306 64.4797 74.8685 62.4409C77.6064 60.3998 78.7748 59.9588 78.7748 59.9588C78.7748 59.9588 73.9254 64.9912 72.6632 66.2956C71.401 67.6 69.7236 67.8933 69.7236 67.8933C69.7236 68.4704 69.9746 68.8951 70.1834 69.1508C70.0004 69.193 69.8502 69.3174 69.7752 69.4839C67.6731 68.4235 64.3182 70.7954 63.0841 72.1749C61.7844 73.6295 59.8395 73.735 59.0254 72.7145C58.2817 71.7808 58.8893 71.084 58.9972 71.2646C59.0911 71.4195 59.2647 71.9896 60.2219 71.9004C61.4841 71.7854 61.9181 69.437 59.9356 69.2681C58.2723 69.1273 57.5966 70.7297 57.9157 72.2124C58.2605 73.8195 60.0201 75.199 61.9463 75.2272C63.8724 75.2553 65.8267 74.1222 66.1505 73.9955C66.4742 73.8688 67.2062 74.0987 66.873 75.504C66.5376 76.9093 67.3399 78.6806 68.6936 79.2061C70.0473 79.7317 71.1429 79.3704 71.7412 78.7533C72.3395 78.1363 72.3254 77.4137 71.9594 76.9656C71.5934 76.5175 70.6737 76.4166 70.228 77.0595C69.7822 77.7023 70.1412 78.1668 70.1599 78.3592C70.1764 78.5516 69.5992 78.7627 69.1511 78.195C68.703 77.6249 68.9001 76.7967 69.259 75.8254C69.618 74.8541 70.8239 73.2236 70.9529 71.7854C71.035 70.8752 70.8379 70.413 70.6831 70.1948C70.8215 70.0869 70.913 69.918 70.913 69.7303C70.913 69.7115 70.9083 69.6951 70.9083 69.6787L70.9294 69.688C72.0133 69.9508 72.6538 69.2845 72.6538 69.2845C72.6139 67.9378 72.9283 67.0369 74.6738 65.2821C78.4065 61.5283 80.0816 62.7952 80.0816 62.7952C80.0816 62.7952 79.8493 63.1776 79.3848 63.6726C78.9179 64.1677 76.546 65.5378 74.7606 70.3731C73.1794 74.65 73.2709 79.7152 75.3683 83.3282C74.4157 82.7699 73.3952 82.3992 72.3793 82.2631C69.618 81.8971 66.8496 82.6784 64.48 84.3629C64.48 84.3629 63.9897 84.459 63.6659 84.2197C63.3422 83.9804 61.6882 83.4455 60.2289 84.2549C58.7673 85.0643 58.3239 86.0591 58.3755 87.1735C58.4295 88.2902 59.2576 88.7055 59.0793 89.4797C58.901 90.2516 57.8406 90.031 58.0517 89.1982C58.1808 88.6914 57.0335 88.6069 56.7966 89.6697C56.5713 90.6739 57.4558 91.1642 58.0165 91.1923L58.0025 91.19ZM93.0085 63.7806C94.0549 64.1137 94.6297 65.2305 94.2966 66.2768C93.9634 67.3232 92.8467 67.898 91.8003 67.5648C90.7539 67.2317 90.1792 66.1149 90.5123 65.0686C90.8454 64.0246 91.9622 63.4474 93.0085 63.7806ZM60.053 91.061C60.1914 90.7114 60.3439 90.3736 60.5104 90.0521C60.8506 89.3999 61.2283 88.7876 61.6342 88.2128C62.3662 87.7811 62.9293 88.7712 62.1949 89.3882C61.3456 90.1014 60.5433 90.2938 60.0506 91.061H60.053ZM73.658 100.793C74.4369 100.882 74.9952 101.586 74.9061 102.364C74.8169 103.143 74.1131 103.702 73.3342 103.613C72.5553 103.523 71.9969 102.82 72.0861 102.041C72.1752 101.262 72.8791 100.703 73.658 100.793ZM72.2785 82.9505C74.3829 83.2297 76.5296 84.6303 77.8833 86.6057C79.0446 88.3019 79.4622 90.1413 79.0634 91.7859C78.6833 93.3484 77.7824 94.5144 76.4615 95.1572C75.4269 95.6617 74.1764 95.7954 72.9752 95.5748C70.8426 95.1127 69.8925 93.1795 69.8573 91.8234C69.8221 90.4463 70.5916 89.5688 70.8004 89.3929C71.0092 89.2169 71.9711 88.8345 71.7154 90.0123C71.4597 91.19 72.1635 92.7666 73.6298 92.722C75.0961 92.6798 75.9337 91.5044 75.8703 90.519C75.807 89.5337 75.4081 87.9735 73.3248 87.7835C71.2415 87.5934 70.0332 88.8603 70.0332 88.8603L70.0285 88.8674C69.4608 89.414 69.0831 90.2281 68.9775 91.2111C68.8133 92.7525 69.3974 94.7443 71.035 95.6499C71.0209 95.6523 71.0045 95.6546 70.9904 95.6593C70.8028 95.7015 70.7089 95.9174 70.8121 96.0793C71.0773 96.4945 70.9928 97.0224 70.6761 97.2007C70.3593 97.379 69.8643 97.1796 69.6461 96.7362C69.5617 96.5649 69.3271 96.5321 69.1957 96.6705C68.9775 96.898 68.7147 97.2898 68.5834 97.9256C68.3347 99.1245 69.4889 100.222 70.2444 100.462C71.0022 100.703 71.7389 100.95 71.6286 101.344C71.4034 101.684 70.7324 101.288 70.0544 100.875C69.3787 100.462 67.8068 100.307 67.0584 101.269C66.6267 100.57 65.7821 99.955 64.4331 99.5374C64.4331 99.5374 65.0924 99.5796 65.9839 99.2418C67.0678 98.8312 68.1681 97.9069 67.8068 96.2271C67.1804 93.3109 62.5445 94.1625 63.4548 97.3133C63.6284 97.9139 64.2525 98.3151 64.1516 98.3432C61.1228 99.1315 59.6025 94.5942 60.6582 92.0252C60.9234 91.38 61.4606 90.9061 62.1551 90.9648C63.1451 91.0492 64.5504 90.8709 65.3833 89.4515C66.6197 87.3401 65.1627 85.672 65.1674 85.1136C65.1674 84.9423 65.2331 84.7828 65.3199 84.6397C67.4455 83.2625 69.8667 82.6361 72.2808 82.9552L72.2785 82.9505ZM60.0811 87.204C60.5316 86.8732 61.2448 86.9506 61.2143 87.6028C60.731 88.2621 60.2876 88.9706 59.8934 89.7307C59.8512 89.8105 59.8137 89.8926 59.7738 89.9747C59.8371 89.6744 59.8653 89.2897 59.7972 88.9026C59.6987 88.3442 59.6353 87.5324 60.0811 87.204ZM62.3146 82.3382C62.4225 82.5493 62.3263 82.8097 62.0917 82.8449C61.721 82.9012 61.158 82.8895 60.4447 82.5798C59.1122 81.998 58.6664 78.8495 59.9145 76.2313C60.2453 75.5368 60.4354 75.7621 60.8717 75.8606C63.9005 76.5386 65.5194 78.9692 65.1229 80.3675C64.9094 81.1159 64.5621 81.5593 64.283 81.808C64.107 81.9675 63.8466 81.876 63.7504 81.6578C63.5228 81.1346 62.9668 80.8672 62.582 81.0478C62.1973 81.2285 62.0518 81.8291 62.3122 82.3382H62.3146ZM62.7627 120.373C64.5434 122.916 64.1 125.802 62.8636 126.567C62.202 126.977 61.646 127.069 61.2729 127.064C61.036 127.064 60.9046 126.82 60.9797 126.595C61.1627 126.053 60.9327 125.483 60.5269 125.356C60.121 125.232 59.6095 125.577 59.457 126.126C59.3937 126.356 59.1497 126.482 58.9503 126.351C58.6383 126.144 58.23 125.755 57.9133 125.044C57.3198 123.716 59.1145 121.091 61.8008 119.998C62.5117 119.709 62.4999 120.002 62.758 120.368L62.7627 120.373Z" fill="#888888"/>
</svg>
