<svg width="80" height="81" viewBox="0 0 80 81" fill="none" xmlns="http://www.w3.org/2000/svg">
<path d="M36.8172 35.0193C36.5299 35.2332 36.2413 35.4484 35.9539 35.6624C35.8221 35.7109 35.6666 35.7295 35.5621 35.8129C34.8033 36.4187 34.0657 36.2495 33.328 35.7793C33.073 35.6163 32.818 35.4521 32.517 35.2581C32.4075 35.8054 32.3018 36.2843 32.2197 36.767C32.1612 37.114 31.987 37.1874 31.6524 37.1315C29.7529 36.8093 28.0512 36.089 26.5983 34.7904C26.2388 34.4694 26.1219 34.1448 26.0597 33.6833C25.7674 31.5114 25.429 29.3444 25.0695 27.1812C25.026 26.9188 24.7536 26.6948 24.5869 26.4523L24.608 26.4747C24.0619 26.0119 23.5158 25.5492 22.9697 25.0852L22.9946 25.1088C21.6922 24.1721 20.4197 23.1907 19.0775 22.3137C18.1557 21.7116 17.178 21.2016 16.5796 20.2301C16.1779 19.5758 15.6716 18.8605 16.2152 18.1142C16.719 17.4238 17.5711 17.5743 18.2291 17.8119C19.4606 18.2572 20.6361 18.858 21.8937 19.4203C22.3391 18.8431 22.4311 18.1415 22.0107 17.3156C21.3439 16.0094 20.6846 14.6871 20.5988 13.1782C20.554 12.3809 20.5229 11.5835 20.4806 10.6829C20.3724 11.2787 20.2791 11.795 20.1784 12.3485C19.9632 11.3372 20.1933 10.4391 20.6598 9.58077V9.87683C21.0939 9.33074 21.5131 8.81202 21.9224 8.28584C22.0393 8.13656 22.1264 7.96366 22.2271 7.80195C22.5269 7.64397 22.8192 7.37403 23.129 7.35413C23.6402 7.32054 23.7422 7.05932 23.8766 6.6426C24.1714 5.7196 24.6242 4.88243 25.6131 4.50676C25.7064 4.47193 25.8084 4.45949 25.944 4.47566C24.8891 4.88243 24.3679 5.69223 24.0731 6.88641C25.5969 5.12126 27.3024 4.24304 29.5303 4.90482C29.1247 4.88367 28.718 4.82521 28.3162 4.85257C27.8957 4.88118 27.4803 4.99065 27.0623 5.15112C29.3051 4.61125 31.1511 5.80543 33.114 6.48089L32.2955 6.41122C33.7074 7.14017 34.8556 8.15647 35.8843 9.33199C35.5148 9.05583 35.1441 8.78092 34.7747 8.50477C34.7175 8.54457 34.6603 8.58563 34.603 8.62543C35.8582 10.1468 37.0449 11.698 37.0225 13.7156C36.7998 12.9593 36.5597 12.1445 36.3184 11.3297C36.2351 11.3409 36.1505 11.3521 36.0671 11.3646C36.8583 13.2827 36.4826 15.0018 35.2872 16.5866C35.3929 16.1463 35.4999 15.7072 35.6056 15.2668C35.5534 15.2506 35.4999 15.2345 35.4477 15.217C35.3096 15.5504 35.1715 15.8838 35.0334 16.2172C35.0098 16.16 34.9862 16.104 34.9613 16.0468C34.6428 16.1699 34.3244 16.2943 33.9599 16.4361C33.9624 16.4411 33.9151 16.3515 33.8293 16.1898C33.4288 17.1526 33.6688 17.996 34.0346 18.8145C34.4065 19.6467 34.4252 19.638 33.5905 19.9403C33.532 19.9614 33.4263 19.9776 33.4225 20.005C33.3566 20.6456 32.7906 20.974 32.512 21.4803C32.4473 21.5972 32.3789 21.7141 32.2968 21.8174C32.1102 22.055 31.8788 22.2639 31.7258 22.5202C31.3141 23.2143 30.9658 23.3598 30.2418 22.9892C29.6559 22.6894 29.1048 22.3224 28.5488 21.9915C27.6743 22.7889 27.6196 22.9108 28.2577 23.8126C29.0115 24.8762 28.9643 25.8788 28.2304 26.9013C27.7415 27.583 27.2489 28.2622 26.8695 29.0359C27.5648 28.2124 28.2602 27.3902 29.0974 26.3988C29.0302 28.4575 28.968 30.3508 28.9046 32.2615C29.3798 30.6269 29.3648 28.965 29.3325 27.2957C29.3225 26.7769 29.4581 26.252 29.5551 25.7345C29.6596 25.1785 30.0241 25.217 30.3861 25.4521C30.7742 25.7047 31.1262 26.0107 31.4944 26.2931C31.4584 26.3378 31.4223 26.3826 31.3862 26.4274C31.3128 26.2246 31.2382 26.0219 31.1424 25.7569C32.1998 25.7743 32.7906 26.3577 33.2011 27.0991C33.2994 27.0531 33.435 26.9424 33.4823 26.9722C33.69 27.1029 33.8828 27.2621 34.0607 27.4325C34.4314 27.7895 34.7536 28.205 35.1578 28.516C35.9378 29.1155 36.3582 29.7823 35.73 30.7874C35.8184 30.7998 35.9054 30.8123 35.9938 30.8247C36.1592 30.4428 36.3259 30.0609 36.5025 29.6529C37.0411 29.9191 37.3223 30.4528 37.3832 31.1855C37.6482 31.0971 37.8497 31.03 38.1706 30.923C38.1035 31.219 38.055 31.4342 38.0313 31.5375C38.5724 31.7825 39.1135 32.0288 39.7467 32.3149C38.6906 33.2877 37.7539 34.151 36.816 35.0143L36.8172 35.0193Z" fill="#AAAAAA"/>
<path d="M54.4986 75.3937C61.0193 76.5742 67.3746 77.1501 73.5084 74.2318C74.006 75.0989 73.5943 76.1487 72.5344 76.5592C70.7624 77.2451 69.3634 77.4456 67.2153 77.686C62.0991 78.2584 54.1685 78.0453 53.9264 76.8379C54.1403 76.3329 54.3319 75.8179 54.4986 75.3949V75.3937Z" fill="#AAAAAA"/>
<path d="M22.9711 25.0852C23.5172 25.5479 24.0632 26.0107 24.6093 26.4747C24.0632 26.0119 23.5172 25.5492 22.9711 25.0852Z" fill="#AAAAAA"/>
<path fill-rule="evenodd" clip-rule="evenodd" d="M37.5113 34.4783C37.2803 34.659 37.0492 34.8397 36.8173 35.0193H36.816L35.9527 35.6624C35.6662 35.8813 35.3808 36.1002 35.0595 36.3468L35.0484 36.3553C36.0561 36.7322 37.0295 37.1771 38.0018 37.6215C39.4838 38.299 40.9633 38.9752 42.558 39.4079C42.4784 39.8507 42.0829 39.9577 41.6562 39.954C39.6136 39.939 37.6171 39.6368 35.6778 38.9737C34.0918 38.4314 32.5021 37.8977 30.9086 37.379C30.8756 37.3683 30.8425 37.3574 30.8093 37.3465C30.3894 37.2088 29.9541 37.0661 29.5241 37.0568C28.5787 37.0357 27.7938 36.665 27.0872 36.1015C25.9241 35.1723 24.7747 34.2244 23.639 33.2603C23.4911 33.1351 23.3863 32.9587 23.2744 32.7704C23.2207 32.68 23.1654 32.5869 23.1029 32.4953C23.6276 32.279 23.8947 32.531 24.1573 32.7788C24.1786 32.7988 24.1998 32.8189 24.2212 32.8387C24.6194 33.2075 25.0183 33.5743 25.4732 33.9925C25.6166 34.1242 25.7655 34.2611 25.9216 34.4048C25.9335 34.2746 25.9466 34.1745 25.9572 34.0936C25.9744 33.9619 25.985 33.881 25.9727 33.8039C25.9462 33.6365 25.9198 33.4691 25.8934 33.3017C25.5941 31.4054 25.2949 29.5095 24.9725 27.6179C24.9259 27.3467 24.8251 27.0842 24.7242 26.8217C24.6778 26.7009 24.6314 26.5801 24.5902 26.4585C24.5966 26.4639 24.6029 26.4693 24.6093 26.4747L24.5882 26.4523C24.5888 26.4544 24.5896 26.4564 24.5902 26.4585C24.051 26.0004 23.5118 25.5434 22.9725 25.0865L22.971 25.0852L22.9959 25.1088C22.9133 25.0612 22.8299 25.0148 22.7465 24.9685C22.5623 24.8661 22.3782 24.7638 22.2035 24.6473C21.7947 24.3747 21.3891 24.0971 20.9835 23.8196C20.1919 23.2781 19.4004 22.7366 18.5862 22.2316C17.3348 21.4554 16.1592 20.6356 15.5758 19.0372C15.0347 20.6145 13.8306 21.2949 12.5742 21.9281C12.3652 22.0326 12.0642 22.2378 12.0543 22.4107C12.0224 22.9812 11.7159 23.3898 11.4099 23.798C11.2741 23.9791 11.1384 24.1601 11.0268 24.355C10.2481 25.7159 10.37 26.6787 11.854 27.2248C11.8917 27.2394 11.9271 27.2622 11.9658 27.2873C11.9833 27.2985 12.0014 27.3102 12.0207 27.3218C12.0207 27.3422 12.0225 27.3629 12.0242 27.3835C12.028 27.427 12.0317 27.4696 12.0182 27.5059C11.952 27.6842 11.8829 27.8613 11.8139 28.0385C11.7182 28.2842 11.6225 28.5298 11.5343 28.7784C10.4135 31.948 9.6037 35.1996 8.96058 38.4961C8.12839 42.7566 7.58106 47.0432 7.67062 51.3969C7.69052 52.3622 7.66191 53.3424 7.5114 54.2928C7.19046 56.3155 6.83594 58.3381 6.37444 60.3321C6.15675 61.275 6.30851 61.9778 6.97277 62.6421C7.58728 63.2566 8.16944 63.9047 8.74538 64.5565C8.84738 64.6722 8.93446 64.9061 8.88844 65.033C8.44808 66.2346 9.43203 67.4188 10.3849 67.8256C10.5578 67.899 10.9111 67.7783 11.0641 67.6278C11.3406 67.3575 11.5827 67.053 11.8251 66.7481C11.9219 66.6265 12.0187 66.5047 12.1177 66.3851C12.148 66.3833 12.178 66.3818 12.2078 66.3803C12.2393 66.3787 12.2705 66.3771 12.3018 66.3752C10.9708 68.5943 12.1301 70.1928 13.5918 71.7204C15.3917 73.6015 24.6841 73.5297 26.673 72.8424C29.3384 72.4561 31.0331 70.7104 32.8087 68.8813C33.2175 68.4602 33.6305 68.0347 34.0607 67.6203C34.1166 67.983 34.1781 68.3319 34.238 68.6714C34.3713 69.4277 34.4965 70.1378 34.5334 70.8521C34.5832 71.8149 34.9016 72.157 35.8284 71.8435C36.0416 71.7719 36.2313 71.63 36.4212 71.4881C36.515 71.418 36.6087 71.3479 36.7053 71.2862C36.8197 71.2128 36.937 71.1437 37.0899 71.0536C37.1831 70.9986 37.2897 70.9359 37.4169 70.8596C37.4101 70.8748 37.4036 70.8896 37.3972 70.9041C37.1555 71.451 37.1381 71.4902 36.0548 71.9119C35.6517 72.0687 35.1318 72.1856 34.7536 72.0587C34.5713 71.9974 34.4566 71.7364 34.3281 71.4444C34.2663 71.3039 34.2013 71.1562 34.1242 71.02C34.082 71.2192 34.0401 71.4171 33.9984 71.6139C33.8678 72.2306 33.7393 72.8372 33.6129 73.4445C33.3778 74.5702 33.4313 74.7182 34.4152 75.2942C34.7207 75.4726 35.0359 75.6348 35.3512 75.797C35.6074 75.9287 35.8635 76.0605 36.1145 76.201C36.2789 76.2931 36.4355 76.3989 36.5921 76.5048C36.7614 76.6192 36.9306 76.7335 37.1096 76.8304C37.3084 76.9381 37.5056 77.0526 37.7029 77.1672C38.2376 77.4778 38.7739 77.7893 39.3499 77.9674C41.3054 78.5707 43.3268 78.4612 45.332 78.251C45.881 78.1932 46.4229 78.0728 46.9651 77.9522C47.2166 77.8963 47.4681 77.8404 47.7204 77.7908C47.7322 77.7398 47.7443 77.6886 47.7564 77.6374C47.7685 77.586 47.7807 77.5346 47.7925 77.4835C47.2758 77.0661 46.7592 76.6489 46.2398 76.2294C45.1074 75.3148 43.9616 74.3894 42.772 73.4283C42.8282 73.3992 42.8875 73.3684 42.9564 73.3326C43.0643 73.2766 43.1959 73.2082 43.3766 73.1148C43.0598 72.9533 42.759 72.7995 42.466 72.6497C42.1859 72.5066 41.913 72.3671 41.64 72.2279C41.6525 72.1993 41.6637 72.1719 41.6749 72.1445C42.0157 72.2503 42.3578 72.3573 42.6986 72.4642C43.0892 71.066 42.6028 70.5498 41.1885 70.8222C41.1558 70.8286 41.1229 70.8363 41.0899 70.8441C40.9997 70.8653 40.909 70.8867 40.8215 70.8795C40.7096 70.8708 40.5255 70.8247 40.5056 70.7563C40.2742 69.9502 39.7915 69.3544 39.0725 68.9364C39.051 68.9242 39.04 68.8902 39.0295 68.8576C39.0261 68.847 39.0227 68.8365 39.019 68.827C38.8982 68.5265 38.7775 68.2261 38.6568 67.9257C38.2457 66.9027 37.8347 65.88 37.4193 64.8588C37.2639 64.4769 37.3957 64.2816 37.7453 64.0739C38.371 63.7014 38.9786 63.2983 39.5888 62.8934C39.8387 62.7276 40.0891 62.5615 40.3414 62.3971C40.2812 62.2974 40.2252 62.2105 40.1741 62.1311C40.0771 61.9805 39.9974 61.8568 39.9396 61.7241C38.6073 58.664 37.4542 55.5417 36.6643 52.2913C36.5661 51.8867 36.4684 51.482 36.3707 51.0772C35.8904 49.0878 35.4101 47.0982 34.8705 45.125C34.7217 44.5816 34.4607 44.0697 34.1928 43.5442C34.0688 43.3009 33.9434 43.0548 33.8269 42.8013H38.8362C38.7968 42.8583 38.7569 42.9182 38.7159 42.9795C38.6299 43.1082 38.5396 43.2434 38.4419 43.3723C38.337 43.5103 38.2325 43.6487 38.1281 43.787C37.758 44.2773 37.3879 44.7675 36.9989 45.2419C36.6469 45.6711 36.515 46.1077 36.6195 46.6725C36.8174 47.7446 37.0008 48.8198 37.1843 49.895C37.5197 51.8613 37.8551 53.8274 38.2789 55.7743C38.5464 57.0011 38.9645 58.1954 39.3851 59.3966C39.5748 59.9384 39.765 60.4817 39.942 61.03C42.1525 57.4935 44.2871 54.0764 46.4615 50.5946C46.501 50.6681 46.5371 50.7341 46.5704 50.7951C46.6418 50.9261 46.7008 51.0341 46.7551 51.1444C47.2418 52.1265 47.7294 53.1081 48.217 54.0897C49.4889 56.6503 50.7607 59.2106 52.0169 61.7788C53.1352 64.0652 54.2386 66.359 55.2848 68.6789C55.4465 69.0374 55.487 69.4496 55.5275 69.8625C55.5475 70.0657 55.5675 70.2691 55.602 70.4665C55.6219 70.5834 55.6642 70.7028 55.7226 70.8073C56.362 71.948 57.6408 72.1072 58.5799 71.1718C58.7123 71.0394 58.8574 70.9192 59.0026 70.7989C59.0703 70.7429 59.138 70.6868 59.2044 70.6294C58.1284 72.3933 56.8086 72.4767 55.3084 70.8994C55.253 71.2046 55.1968 71.5035 55.1413 71.798C55.0163 72.4625 54.8954 73.1053 54.7971 73.7517C54.6217 74.9098 54.6491 74.9807 55.7761 75.1101C56.5975 75.2046 57.4219 75.2758 58.2464 75.347C59.3 75.438 60.3537 75.529 61.4012 75.6686C64.7175 76.1102 67.9269 75.64 71.0902 74.6797C71.5723 74.5334 72.0434 74.3506 72.5249 74.1637C72.7478 74.0771 72.9729 73.9897 73.2024 73.9047C72.9113 73.2392 72.4299 72.9357 71.8316 72.871C71.3886 72.8238 70.9431 72.8024 70.4974 72.781C70.0745 72.7608 69.6515 72.7405 69.2305 72.6981C69.1555 72.6905 69.0785 72.6838 69.0006 72.6771C68.5536 72.6384 68.0745 72.5969 67.7515 72.366C66.9218 71.7738 66.0336 71.4094 65.0708 71.1233C64.544 70.9666 64.0567 70.6504 63.5865 70.3452C63.5637 70.3304 63.541 70.3157 63.5184 70.301C63.3095 70.1657 63.1292 69.988 62.9483 69.8098C62.8415 69.7047 62.7346 69.5994 62.6215 69.5024C62.5372 69.4305 62.4539 69.3564 62.3705 69.2823C62.1006 69.0425 61.8297 68.8018 61.5218 68.6279C61.2519 68.4749 60.8874 68.4588 60.5628 68.4488C60.4591 68.4455 60.3539 68.5097 60.2158 68.594C60.1434 68.6381 60.0619 68.6878 59.9669 68.7362C59.6539 68.0556 59.3455 67.3847 59.0398 66.7195C58.6346 65.8381 58.2341 64.9668 57.8336 64.0963C58.0142 63.9795 58.1849 63.8709 58.3481 63.7672C58.7062 63.5395 59.0281 63.3348 59.34 63.116C60.1723 62.5335 60.1672 62.5252 59.6321 61.6494L59.6298 61.6457C59.5539 61.5213 59.4868 61.3932 59.4208 61.2638C58.7853 60.0066 58.1535 58.7475 57.5217 57.4885C55.9894 54.435 54.4573 51.3819 52.8728 48.3555C51.7706 46.2508 50.5317 44.2107 49.2454 42.2117C48.5414 41.1183 47.5574 40.3147 45.9527 41.178C46.5511 40.4727 47.1009 40.5336 47.7142 40.7451C47.9269 40.8185 48.3585 40.7911 48.4157 40.6754C48.5295 40.4447 48.5259 40.1476 48.5225 39.867C48.5221 39.8284 48.5216 39.7902 48.5215 39.7525C48.5215 39.6792 48.4609 39.6059 48.4007 39.5331C48.3751 39.502 48.3495 39.4711 48.3287 39.4402C47.6806 38.4774 46.7016 38.1167 45.6119 38.057C45.2972 38.0396 44.9365 38.2572 44.6503 38.4476C44.339 38.6545 44.0506 38.8961 43.7619 39.1379C43.6411 39.2391 43.5203 39.3403 43.3977 39.439C43.3859 39.4203 43.3738 39.402 43.3616 39.3836C43.3495 39.3653 43.3374 39.3469 43.3256 39.3283L44.0209 38.1005C43.9003 38.1116 43.7958 38.1212 43.7025 38.1297C43.4928 38.1489 43.3395 38.163 43.1862 38.1776C44.1304 37.2521 45.0795 36.3913 46.5125 36.1799C46.4472 36.1354 46.3953 36.0983 46.3512 36.0668C46.2772 36.0139 46.2254 35.9769 46.1692 35.9473C45.8152 35.7605 45.4614 35.5735 45.1075 35.3864C43.5028 34.5381 41.8979 33.6898 40.2804 32.8673C40.0863 32.7677 39.7069 32.8163 39.5228 32.9481C38.8391 33.4399 38.1752 33.9591 37.5113 34.4783ZM29.4735 42.2831C29.5908 42.2767 29.7081 42.2703 29.8239 42.2702C28.8349 42.7731 28.2492 43.6431 27.6702 44.5034C27.6062 44.5985 27.5422 44.6935 27.4778 44.7879C24.6976 48.8581 21.9311 52.9382 19.1758 57.0245C19.1168 57.1121 19.057 57.1999 18.9969 57.288C18.5874 57.8889 18.1686 58.5034 17.9418 59.1728C17.601 60.1779 17.4231 61.2526 17.2987 62.3125C17.229 62.9056 17.2462 63.5088 17.2634 64.1118C17.2711 64.3802 17.2788 64.6486 17.2788 64.916H17.1183V60.9056C17.1009 60.8994 17.0838 60.8928 17.0667 60.8863C17.0496 60.8798 17.0325 60.8732 17.0151 60.867C16.86 61.2582 16.7049 61.6497 16.5497 62.0412C16.3951 62.4315 16.2405 62.8218 16.0858 63.2118C16.051 63.2044 16.0149 63.1957 15.9801 63.187C16.199 62.4033 16.418 61.6184 16.6892 60.6443C16.545 60.7785 16.4115 60.8963 16.2877 61.0055C16.0419 61.2224 15.8346 61.4053 15.6592 61.6146C14.6603 62.8063 14.0147 64.1883 13.5171 65.6524C13.2372 66.4759 12.9126 67.2832 12.5867 68.0893C12.5304 68.23 12.4367 68.356 12.3429 68.4823C12.2998 68.5403 12.2567 68.5983 12.2172 68.6578C12.1855 68.6416 12.1534 68.6258 12.1214 68.6099C12.0894 68.594 12.0574 68.5782 12.0256 68.562C12.5239 67.2689 13.0218 65.9758 13.5291 64.6582C14.0047 63.4231 14.4885 62.1665 14.9887 60.8683C14.5502 61.179 14.1465 61.4647 13.7613 61.7374C13.3324 62.0409 12.9264 62.3283 12.5207 62.616C12.5033 62.5986 12.4857 62.5812 12.468 62.5638C12.4502 62.5464 12.4324 62.5289 12.415 62.5115C12.5976 62.3155 12.7772 62.1163 12.9569 61.9172C13.361 61.4691 13.7651 61.0211 14.2025 60.6095C14.6297 60.2082 15.0734 59.8238 15.517 59.4396C16.1197 58.9176 16.7222 58.3957 17.2825 57.8318C17.7302 57.3807 18.108 56.8597 18.5045 56.3128C18.6897 56.0574 18.8789 55.7964 19.0812 55.5343C17.387 55.3887 14.7598 55.8826 12.3715 57.4201C12.4935 57.3216 12.6127 57.2188 12.7318 57.1161C12.9891 56.8942 13.246 56.6727 13.5308 56.4958C15.24 55.436 17.081 54.6983 19.0912 54.4881C19.6049 54.4346 19.8624 54.1908 20.0988 53.8064C20.7173 52.7979 21.339 51.7912 21.9608 50.7845C23.4173 48.4259 24.8741 46.0672 26.2899 43.6845C26.872 42.7043 27.4393 41.9766 28.713 42.2577C28.9564 42.3115 29.215 42.2973 29.4735 42.2831ZM12.9762 35.7579C13.0065 35.7535 13.0367 35.7492 13.0668 35.7445V35.7482C13.1376 35.9983 13.2078 36.2485 13.2781 36.4985C13.4017 36.9387 13.5253 37.3787 13.6515 37.8181C13.6679 37.8758 13.6833 37.9342 13.6987 37.9929C13.7521 38.1964 13.8061 38.4018 13.9065 38.5794C13.992 38.7297 14.1194 38.8566 14.2468 38.9834C14.3029 39.0392 14.359 39.0951 14.4115 39.1529C14.4627 39.099 14.5158 39.0464 14.5689 38.9939C14.6851 38.879 14.8014 38.7639 14.8979 38.6341C15.4503 37.8943 15.9982 37.1514 16.5461 36.4087C16.8705 35.9689 17.1949 35.5292 17.5201 35.0902C17.7278 34.8103 17.948 34.5404 18.2441 34.2567C17.5811 35.1113 18.0799 35.6686 18.6732 36.1774C19.1211 36.5618 19.1011 36.8877 18.7031 37.3069C18.3824 37.6436 18.1021 38.0191 17.8224 38.3936C17.755 38.484 17.6876 38.5743 17.6196 38.664C16.7812 39.7711 14.6976 39.9527 13.6291 39.0845C12.9934 38.5682 12.4536 38.0296 12.1488 37.1775C12.3418 37.4137 12.5218 37.6343 12.6953 37.8468C12.8817 38.0753 13.0606 38.2944 13.2397 38.5135C13.259 38.5029 13.2783 38.492 13.2975 38.4812C13.3168 38.4703 13.3361 38.4594 13.3554 38.4488C13.2789 38.0021 13.2027 37.5553 13.1264 37.1086C13.0503 36.6622 12.9741 36.2158 12.8976 35.7694C12.924 35.7653 12.9502 35.7616 12.9762 35.7579ZM28.0401 67.7534C27.3845 69.9254 25.8893 71.5785 23.8468 72.6595H23.8455C25.8184 70.9541 26.9118 68.7274 27.7627 66.3341C28.6882 63.733 29.3748 61.0735 29.8264 58.3518C29.8761 58.052 29.9769 57.7609 30.1921 57.4773C30.1921 57.6393 30.2016 57.8037 30.2111 57.9682C30.2318 58.3252 30.2526 58.6826 30.1759 59.0173C30.0301 59.6515 29.8878 60.287 29.7454 60.9226C29.2318 63.2152 28.7179 65.5095 28.0401 67.7534ZM19.814 27.3193C19.5627 27.0611 19.3067 26.7981 19.0439 26.5282L19.0452 26.5269C19.1671 26.5988 19.286 26.6688 19.403 26.7378C19.8614 27.0078 20.2909 27.2608 20.7606 27.5382C20.4484 26.7151 19.8408 26.2115 19.2377 25.7118C19.0524 25.5583 18.8676 25.4051 18.6919 25.2432C19.5962 25.3925 20.3289 25.8365 20.7431 26.6401C20.9577 27.0568 21.1311 27.4948 21.3046 27.9328C21.4791 28.3736 21.6537 28.8145 21.8702 29.2337C22.0677 29.6164 22.3381 29.9615 22.6088 30.3069C22.7472 30.4835 22.8858 30.6603 23.0146 30.8421C23.1998 31.1036 23.3769 31.3708 23.5538 31.6378C23.6252 31.7455 23.6965 31.8532 23.7684 31.9604H20.8588C20.9331 31.929 21.0046 31.897 21.0748 31.8656C21.2127 31.8038 21.3452 31.7445 21.482 31.6967C21.6311 31.6441 21.7834 31.6019 21.9969 31.5429C22.1111 31.5113 22.243 31.4748 22.4013 31.4293C22.0436 31.1794 21.7332 30.9627 21.4314 30.7521C21.2314 30.6126 21.0352 30.4756 20.8315 30.3334H21.7022C21.7209 30.3023 21.7392 30.2709 21.7575 30.2395C21.7759 30.2081 21.7943 30.1766 21.8129 30.1455C21.3674 29.8271 20.9227 29.5078 20.4152 29.1434C20.3219 29.0764 20.2265 29.0079 20.1286 28.9377C20.569 28.9762 20.9173 29.0061 21.2656 29.0359C21.2849 29.0179 21.3042 29.0002 21.3235 28.9824C21.3427 28.9647 21.362 28.947 21.3813 28.929C20.8655 28.3996 20.3503 27.8703 19.814 27.3193ZM41.9137 43.1422L42.0692 42.9842L42.0704 42.9854C42.2402 43.059 42.4096 43.1325 42.5801 43.2064C42.7643 43.2863 42.9497 43.3668 43.1377 43.4482C43.0203 43.8981 42.9046 44.3401 42.7901 44.778C42.6548 45.2952 42.521 45.8066 42.3876 46.3179C42.3702 46.3155 42.3531 46.3127 42.336 46.3099C42.3189 46.3071 42.3018 46.3043 42.2844 46.3018C42.3155 46.1123 42.3445 45.9223 42.3734 45.7324C42.4415 45.2853 42.5096 44.8382 42.6066 44.3973C42.611 44.3773 42.6154 44.3574 42.6198 44.3375C42.7479 43.7614 42.8672 43.2251 41.9137 43.1422ZM42.6302 71.8746L42.4598 72.0214H42.4585C42.308 71.9334 42.1571 71.8451 42.0062 71.7568C41.8542 71.6678 41.7022 71.5789 41.5505 71.4902L41.5903 71.2837C41.6682 71.2933 41.748 71.2985 41.8278 71.3036C42.0167 71.3156 42.2054 71.3277 42.369 71.3994C42.4595 71.4387 42.509 71.5706 42.5585 71.7026C42.5811 71.7629 42.6037 71.8231 42.6302 71.8746Z" fill="#AAAAAA"/>
<path d="M37.4169 79.0454C39.6311 80.2692 41.3898 80.409 43.9185 80.3266C45.2799 80.2823 46.0421 80.1347 47.3733 79.8457C47.9653 79.7172 48.424 79.5081 48.1999 78.6649C48.1884 78.6217 48.1766 78.5771 48.1645 78.5309C48.1334 78.4078 47.8323 78.2585 47.6781 78.2796C47.1208 78.3572 46.5651 78.4498 46.0095 78.5424C45.2196 78.6741 44.4298 78.8058 43.6353 78.8941C41.1163 79.1753 38.7964 78.6777 36.7078 77.1265C36.0591 76.6441 35.3272 76.2739 34.5958 75.9039C34.288 75.7482 33.9802 75.5925 33.6788 75.4285C33.5997 75.3865 33.5085 75.3674 33.4024 75.3452C33.3485 75.3339 33.2906 75.3217 33.2285 75.3054C33.1748 75.8187 33.2285 75.7824 33.2285 76.311C33.2285 77.0484 35.6356 78.0609 37.4169 79.0454Z" fill="#AAAAAA"/>
</svg>
