<svg width="80" height="81" viewBox="0 0 80 81" fill="none" xmlns="http://www.w3.org/2000/svg">
<path d="M23.9566 23.0486C24.9232 22.148 25.7923 21.3285 26.6733 20.5225C27.0441 20.1833 27.4073 20.2538 27.8231 20.5225C28.491 20.9533 29.1739 21.3855 29.9049 21.6842C30.9105 22.094 31.3007 21.7968 31.7465 20.8137C32.0437 20.1593 32.6816 19.6565 32.9563 18.9976C33.2775 18.2291 33.6587 17.6842 34.5067 17.4801C34.6043 17.4561 34.6253 16.7942 34.5503 16.458C34.4257 15.9011 34.1255 15.3818 34.0279 14.8234C33.9559 14.4152 33.9559 13.8914 34.1555 13.5567C35.2617 11.7015 35.2032 9.76228 34.7304 7.76603C34.6989 7.63095 34.6688 7.49586 34.7664 7.31275C34.87 7.52738 34.9495 7.75853 35.0846 7.95065C35.1852 8.09474 35.3548 8.1908 35.4929 8.30787C35.6129 8.16378 35.8156 8.0332 35.8426 7.8726C36.0272 6.7649 35.8666 5.82232 34.7529 5.28198C33.2505 4.55252 31.7735 3.76753 30.3011 2.97804C28.464 1.99342 26.5443 1.88536 24.5555 2.35515C24.4354 2.38367 24.3154 2.41519 24.1938 2.4392C24.1743 2.4437 24.1503 2.41819 24.0212 2.35215C24.2883 2.23658 24.4895 2.14952 24.7671 2.02794C24.5075 2.02794 24.2778 1.9559 24.1473 2.03995C23.4328 2.49624 22.7184 2.95853 22.055 3.48536C21.5897 3.85459 21.1949 4.31688 20.7912 4.75965C19.9326 5.69924 19.4283 6.80093 19.4658 8.08573C19.5004 9.25796 19.5184 10.4422 19.703 11.5949C20.0227 13.5912 19.8426 15.4268 18.4902 17.0328C18.3026 17.255 18.193 17.5416 18.0129 17.8568C20.5 19.1026 22.3191 21.0538 23.9521 23.0516L23.9566 23.0486Z" fill="#AAAAAA"/>
<path d="M38.5487 46.076C41.6091 46.3852 44.5915 46.4362 47.5153 45.5236C47.6339 45.4861 47.7525 45.4441 47.8725 45.4111C48.3483 45.2805 48.7986 45.0553 48.5194 44.4955C48.4189 44.2929 47.9296 44.2824 47.5603 44.1668C47.874 43.2407 47.2496 42.7484 46.3536 42.3597C43.9701 41.3255 44.7176 41.1334 42.6343 42.5863C41.5371 43.3518 40.5675 44.3004 39.5453 45.1724C39.2256 45.4456 38.9209 45.7383 38.5502 46.076H38.5487ZM46.232 44.9037C45.8673 44.4039 45.6451 44.0992 45.423 43.7945L45.4995 43.6174C45.8087 43.7345 46.166 43.7975 46.4046 43.9987C46.4962 44.0767 46.3221 44.47 46.2305 44.9037H46.232Z" fill="#AAAAAA"/>
<path d="M30.7995 50.888L27.4479 53.1514C27.5004 53.2309 27.5529 53.3105 27.6055 53.3915C28.7207 52.6426 29.8359 51.8921 30.951 51.1431C30.9 51.0591 30.8505 50.9735 30.7995 50.8895V50.888Z" fill="#AAAAAA"/>
<path d="M31.4748 77.39C31.7149 77.4156 31.9551 77.4681 32.1937 77.4636C35.8365 77.3795 39.4823 77.363 43.119 77.1724C45.7742 77.0328 47.9641 75.736 49.8297 73.8869C50.226 73.4936 50.4586 73.0358 50.0834 72.4835C50.0414 72.4219 49.9738 72.3379 49.9888 72.2854C50.1464 71.754 50.2185 71.1837 49.6977 70.8625C49.0297 70.4512 48.3153 70.043 47.5648 69.8508C46.0984 69.4756 44.638 69.8643 43.2001 70.178C41.7982 70.4857 40.4068 70.6493 38.9719 70.3897C38.7108 70.3416 38.3235 70.5773 38.0999 70.7919C36.4038 72.4144 34.7393 74.07 33.0523 75.703C32.5209 76.2163 31.9536 76.6921 31.4027 77.1844C31.4267 77.2535 31.4492 77.321 31.4733 77.39H31.4748Z" fill="#AAAAAA"/>
<path d="M58.6027 78.8399C57.322 77.6927 57.4455 76.2971 57.5724 74.8623C57.6411 74.0858 57.7108 73.2978 57.5596 72.5315C57.4194 72.5843 57.278 72.6319 57.1374 72.6791C56.8308 72.782 56.5285 72.8835 56.2537 73.0358C55.6969 73.345 55.3577 73.285 55.0875 72.6696C53.5383 69.1331 51.5476 65.8406 49.5571 62.5483C49.1948 61.9491 48.8325 61.3498 48.4729 60.7491C48.4413 60.6974 48.4029 60.6499 48.3485 60.5826C48.3176 60.5444 48.2816 60.4998 48.2387 60.4444C41.9023 66.4507 35.5989 72.4255 29.2429 78.4497C26.9179 80.6534 11.3083 81.2759 9.32839 78.4677C7.66836 76.6291 6.19296 74.939 5.91229 72.554C5.75688 72.652 5.59766 72.7514 5.41646 72.8645C5.27565 72.9524 5.12157 73.0486 4.94567 73.1589C4.75603 72.5742 4.58719 72.0495 4.41583 71.5171L4.3438 71.2932C4.22474 71.395 4.11768 71.4859 4.00153 71.5846C3.89659 71.6737 3.78422 71.7692 3.64886 71.8846C3.62221 71.7318 3.59421 71.5903 3.56769 71.4564C3.51504 71.1905 3.46821 70.9539 3.44924 70.7154C2.97194 64.8602 2.49613 59.0065 2.03384 53.1499C1.60157 47.6715 1.61208 42.1915 2.55767 36.7716C3.75992 29.8838 6.9329 24.2688 13.2458 21.0778C13.2622 20.9615 13.2689 20.8563 13.2749 20.7614C13.2861 20.5859 13.2951 20.446 13.3584 20.3378C13.5856 19.9488 13.8244 19.5664 14.0631 19.1842C14.3401 18.7406 14.6171 18.2972 14.8759 17.8433C15.2136 17.2489 15.6008 17.1529 16.2312 17.411C18.3671 18.2861 20.2252 19.5514 21.8057 21.2249C22.1735 21.6145 22.5163 22.0269 22.8592 22.4395C23.0131 22.6247 23.167 22.8099 23.3232 22.993C23.3022 23.0186 23.2811 23.0444 23.2601 23.0703C23.2391 23.0962 23.2181 23.1221 23.1971 23.1476C22.6859 23.0823 22.1751 23.0174 21.6643 22.9525C21.1537 22.8876 20.6431 22.8227 20.1322 22.7574C20.5017 23.025 20.8885 23.15 21.2713 23.2737C21.3114 23.2867 21.3514 23.2996 21.3914 23.3127C23.5303 24.0136 25.5385 24.9112 26.9524 26.7874C28.1863 28.4266 28.9552 30.2841 29.7426 32.1865C30.2061 33.3064 30.6761 34.4418 31.2511 35.5574C30.8086 35.4033 30.4275 35.2701 30.0744 35.1466C29.7771 35.0427 29.4996 34.9457 29.2219 34.8489C29.1937 34.9083 29.1655 34.9662 29.1373 35.024L29.1363 35.0261C29.3686 35.1894 29.6015 35.3517 29.8344 35.514C30.417 35.92 30.9993 36.3258 31.5708 36.7461C31.5925 36.7621 31.6144 36.7781 31.6363 36.7942C31.9744 37.0421 32.3288 37.302 32.5614 37.6347C33.1473 38.471 33.7153 39.3201 34.2833 40.1692C34.7295 40.8363 35.1758 41.5035 35.6309 42.1645C35.8785 42.5247 35.9085 42.8174 35.5363 43.0516C34.9554 43.4163 35.0335 43.8065 35.3802 44.2929C35.5696 44.5583 35.7594 44.8235 35.9492 45.0887C36.9509 46.4883 37.9531 47.8885 38.8969 49.327C39.4072 50.103 40.0406 50.3716 40.9051 50.2996C42.1076 50.1998 43.3101 50.1038 44.4933 50.0094C44.787 49.986 45.0795 49.9626 45.3704 49.9394C45.3665 49.9427 45.3606 49.9481 45.3531 49.955C45.3232 49.9824 45.2673 50.0337 45.2038 50.0745C44.4253 50.5668 43.6468 51.0593 42.8683 51.5518C39.1918 53.8775 35.5144 56.2037 31.832 58.5187C31.632 58.6447 31.4014 58.7207 31.1367 58.808C31.0039 58.8518 30.8626 58.8984 30.7123 58.9555C30.6926 58.7969 30.6707 58.6514 30.6502 58.5147C30.6079 58.2338 30.5712 57.9901 30.5712 57.7458C30.5727 57.2565 30.3881 57.0568 29.8852 57.0088C29.5855 56.9804 29.2912 56.8858 28.9471 56.7752C28.7812 56.7218 28.6037 56.6647 28.4083 56.6096C28.585 56.4252 28.7434 56.2562 28.891 56.0987C29.1758 55.7946 29.4206 55.5334 29.6796 55.2872C29.8523 55.1226 30.0243 54.9571 30.1963 54.7916C30.8902 54.124 31.5846 53.4559 32.3243 52.8437C32.9246 52.3469 32.8121 51.9341 32.4293 51.4118C31.7059 50.4242 30.9899 49.4291 30.295 48.4204L30.271 48.3856C29.4034 47.1264 29.3954 47.1147 28.0211 47.784C27.5348 48.0212 27.2451 47.9867 26.9179 47.4869C25.465 45.2715 23.9896 43.0696 22.4706 40.8992C21.637 39.7078 20.7682 38.5408 19.8722 37.3372C19.4713 36.7986 19.0649 36.2527 18.6537 35.694C18.6537 35.7785 18.6508 35.8383 18.6487 35.8817C18.6456 35.9461 18.6442 35.9744 18.6567 35.9942C19.2005 36.8485 19.7448 37.7026 20.289 38.5567C21.92 41.1161 23.551 43.6755 25.1693 46.2426C25.3179 46.4782 25.3764 46.8384 25.3314 47.1176C25.0759 48.6844 24.8002 50.2486 24.5244 51.8128C24.4324 52.3345 24.3405 52.8562 24.2492 53.378C24.2228 53.5268 24.2002 53.6771 24.1713 53.8685C24.1591 53.9493 24.1458 54.0375 24.1307 54.136C22.5522 53.7534 21.0122 53.3797 19.4819 53.0083C18.9168 52.8712 18.3531 52.7344 17.7892 52.5975C19.7374 54.1075 21.7502 55.4899 23.802 56.8092C24.9652 57.5566 26.262 57.8703 27.6669 57.7263C28.1086 57.6803 28.5558 57.6913 29.0295 57.7031C29.2512 57.7086 29.4787 57.7142 29.7142 57.7142C28.6449 58.5979 27.588 59.4716 26.5386 60.3391C24.8967 61.6964 23.2732 63.0384 21.6496 64.3799L21.8552 64.6531C23.0474 63.8448 24.239 63.0361 25.4074 62.2431C26.1939 61.7093 26.9699 61.1826 27.7284 60.6681C27.5153 62.5713 27.2976 64.521 27.08 66.4707C27.1476 66.4827 27.2166 66.4962 27.2841 66.5097C27.3278 66.4395 27.3691 66.3674 27.4105 66.2953C27.5043 66.1319 27.5981 65.9685 27.7179 65.8268C28.0455 65.4362 28.3556 65.0203 28.6658 64.6042C29.3688 63.6611 30.0727 62.7169 30.9839 62.064C32.2597 61.1499 33.5417 60.2442 34.8236 59.3385C39.6649 55.9183 44.5058 52.4983 49.0117 48.6261C50.2815 47.5364 52.5374 47.5709 53.6286 48.8287C54.232 49.5251 54.7558 50.3851 55.0275 51.2617C56.9712 57.5236 60.2642 63.0081 64.4774 67.9792C65.0227 68.6196 65.0157 69.2479 64.4564 69.8643C63.5198 70.8955 63.5918 71.3022 64.8661 71.9822C65.2834 72.2028 65.7217 72.4054 66.1735 72.536C66.5004 72.6305 66.8271 72.7258 67.154 72.8211C68.6968 73.2712 70.2406 73.7215 71.805 74.082C72.5908 74.2627 73.403 74.3298 74.2143 74.3967C74.5482 74.4242 74.8819 74.4518 75.2136 74.4872C75.4655 74.5141 75.719 74.532 75.9724 74.5498C76.4256 74.5817 76.8786 74.6136 77.3224 74.6974C78.3776 74.897 78.4736 75.1446 77.8643 76.0722C77.0087 77.3735 75.934 78.4167 74.31 78.7334C72.3363 79.1183 59.5542 79.6923 58.6027 78.8399Z" fill="#AAAAAA"/>
</svg>
