<svg width="80" height="81" viewBox="0 0 80 81" fill="none" xmlns="http://www.w3.org/2000/svg">
<path d="M43.0081 52.4622C43.0649 52.6688 43.1218 52.8744 43.2042 53.172C42.9673 53.1094 42.7825 53.0924 42.629 53.0156C41.8396 52.6204 41.0351 52.2471 40.2836 51.7875C39.9273 51.5704 38.9658 50.5784 38.4233 50.0312C37.3376 48.9362 37.5164 48.7812 36.0798 47.6178C35.3575 47.0328 35.876 48.2717 36.4674 48.9701C37.0587 49.6685 37.6624 50.3584 38.2565 51.0549C38.9351 51.85 39.7368 52.4669 40.7309 52.8242C40.9943 52.919 41.2417 53.0564 41.616 53.2298C41.9903 53.4032 42.629 53.6701 43.4838 53.9055C43.8382 54.0031 43.9102 54.2362 43.752 54.512C43.6241 54.7366 43.4374 54.9498 43.2279 55.1033C42.6072 55.5591 42.5977 55.5458 42.449 56.2272C41.8425 56.1988 41.2331 56.1277 40.6266 56.1486C38.4783 56.2215 36.4276 56.828 34.3683 57.3635C31.1435 58.2021 27.8845 58.712 24.5383 58.567C24.073 58.5471 23.8835 58.4011 23.8664 57.9529C23.8333 57.0792 23.5736 56.3059 22.9851 55.6169C22.2469 54.7517 22.1294 53.6818 22.1843 52.5797C22.6155 44.0319 24.5658 35.828 27.8143 27.9284C28.3157 26.7097 29.033 25.5801 29.6566 24.4126C30.3602 23.0932 31.6225 21.9491 32.4531 20.675C33.378 19.2564 34.7085 18.1429 36.3015 17.5563C38.1779 16.8645 40.023 17.0825 41.6387 18.4111C43.3976 19.8572 44.8589 21.5137 45.4056 23.7975C45.7904 25.401 45.9667 27.03 45.8491 28.6827C45.8416 28.7832 45.8093 28.8827 45.7904 28.9717C45.5061 28.0449 45.2246 27.1267 44.9432 26.2084C44.8949 26.2179 44.8465 26.2273 44.7982 26.2359C45.4682 28.0279 46.0948 29.6221 45.2969 31.6406C44.7558 30.2286 44.2363 28.9579 43.7969 28.2812C43.3575 27.6046 42.1004 26.875 41.5469 26.875C42.859 27.1909 45.4691 32.9879 45.4559 35.9133C45.2408 35.683 45.1081 35.5409 44.8835 35.3002C45.1394 35.937 45.3507 36.4601 45.5611 36.9832C46.0312 37.5938 46.2188 38.1875 47.1256 39.901C47.4485 40.5111 47.7066 41.0932 47.5483 41.7812C47.4914 42.0285 47.4857 42.0181 47.3654 42.3194C46.8129 41.7698 46.5194 41.3099 45.8491 40.8117C45.1079 40.2608 43.0081 39.5 43.0081 39.5C44.125 40.2412 46.4604 42.0312 47.1256 43C47.8515 43.5942 48.7357 44.4356 48.6267 45.3775C48.5992 45.6116 48.6182 45.8504 48.6125 46.0873C48.603 46.4493 48.6722 46.7507 48.911 47.0729C49.1432 47.3865 49.182 47.8424 49.3052 48.2356C49.2588 48.2688 49.2124 48.302 49.1659 48.3361L47.9236 47.7486C47.9094 47.7751 47.8951 47.8016 47.8809 47.8291C48.2552 48.0243 48.6523 48.1873 48.9944 48.4271C49.2171 48.5825 49.4749 48.8298 49.5194 49.0724C49.7734 50.4361 50.541 51.4065 51.645 52.1921C52.1662 52.5626 52.6628 53.0052 53.0598 53.5037C54.0075 54.6939 53.8635 56.0339 52.6429 56.9228C51.8762 57.481 51.0129 57.9463 50.1306 58.2931C49.6208 58.494 48.9859 58.3699 48.4078 58.4049C48.2022 58.4172 47.9994 58.4675 47.7956 58.5006L47.8051 58.4893C47.1749 58.024 46.8461 57.3388 46.4604 56.6878C44.3301 53.0886 42.2386 49.4695 40.4892 45.6637C39.6316 43.7987 38.8469 41.9129 38.4233 39.8887C38.3399 39.4898 38.0045 39.142 37.7761 38.7762C36.9251 37.4106 36.0599 36.0545 35.225 34.6795C35.0156 34.3345 34.9255 33.9175 34.7313 33.5612C34.6242 33.3651 34.4119 33.2267 34.211 33.0258C34.393 33.5536 34.5626 34.0455 34.7417 34.5676C34.5095 34.3971 34.302 34.2435 34.0944 34.091C35.6477 35.9237 36.6702 38.0323 37.5164 40.2412C37.5458 40.4317 37.5742 40.6222 37.6036 40.8117C37.795 41.4571 38.0092 42.0958 38.1741 42.7478C39.0052 46.0314 40.7214 48.8801 42.539 51.6804C42.6935 51.941 42.8479 52.2006 43.0024 52.4612L43.0081 52.4622ZM45.6511 27.1409C45.7297 26.3638 44.946 24.1975 44.5499 24.0695C44.9195 25.1015 45.3128 26.1989 45.6511 27.1409Z" fill="#AAAAAA"/>
<path d="M47.1958 18.1183C46.6736 18.3864 46.1789 18.6253 45.7004 18.8915C45.3166 19.1048 45.1005 19.0508 44.911 18.6186C44.1623 16.91 43.0233 15.4923 41.5686 14.3286C41.381 14.1779 41.1734 14.0519 40.9441 13.9628C41.5032 14.485 42.0889 14.9825 42.6167 15.534C43.715 16.6807 44.4656 18.0093 44.8892 19.5682C45.1071 20.3708 45.2502 21.3308 46.1647 21.7819C46.1789 21.789 46.7142 22.1269 46.5144 22.3202C46.0501 22.7693 45.8179 22.5059 45.598 22.2064C44.7764 21.0873 43.9738 19.9539 43.1313 18.8508C41.0891 16.1775 37.6709 16.0116 35.424 16.8626C34.1343 17.3507 33.0435 18.2083 32.0324 19.1559C32.9156 18.612 33.8187 18.0965 34.6792 17.5184C36.4873 16.3035 39.7235 16.4343 41.3724 17.8226C41.3781 17.8273 41.3724 17.8453 41.3724 17.8254C40.7053 17.5961 40.0438 17.3014 39.3511 17.145C37.4596 16.7186 35.7718 17.1896 34.2423 18.3732C33.2529 19.1389 32.4143 20.0193 31.822 21.1233C31.5746 21.5848 31.189 21.8103 30.6905 21.8643C30.319 21.9051 30.119 21.7307 30.011 21.363C29.9267 21.0768 29.7883 20.7783 29.594 20.5566C28.8321 19.6866 28.3413 18.7115 28.2503 17.544C28.22 17.1592 28.3413 16.983 28.744 17.0076C29.9712 17.0834 31.0478 16.6267 32.1271 16.1017C33.5098 15.4298 34.936 14.847 36.1016 14.3314C34.085 14.4632 32.2759 15.9472 30.1484 16.6143C31.0383 15.6733 31.4259 14.2566 32.8587 13.8576C32.9137 13.8424 32.9658 13.7771 32.9952 13.7211C33.1639 13.4065 33.3126 13.0805 33.4917 12.7716C33.9296 12.0182 34.1769 11.9007 35.044 12.0533C36.8844 12.3774 38.664 12.9119 40.3689 13.6776C40.6333 13.796 40.7982 13.8026 41.0275 13.5998C41.5222 13.1611 42.0538 12.765 42.5959 12.3319C42.4878 12.2722 42.3656 12.2058 42.2196 12.1253C42.4888 11.9253 42.7427 11.7368 43.045 11.5112C42.8584 11.4582 42.7465 11.4269 42.612 11.389C42.6432 11.3264 42.6518 11.2705 42.6812 11.2554C43.1616 11.0156 43.3872 10.5929 43.4971 10.0983C43.7444 8.99046 43.9586 7.87507 44.2296 6.77295C44.3898 6.12096 44.6305 5.48888 44.839 4.83784C44.621 5.15436 44.3926 5.48509 44.1964 5.76938C44.1993 5.11266 44.8655 4.39529 47.2754 2.391C46.883 2.51988 46.4907 2.64971 46.0557 2.7928C46.4775 2.31045 47.0119 2.20336 47.5568 2.19483C48.0742 2.1863 48.5339 2.07164 48.9954 1.83093C49.7289 1.44808 50.5315 1.55611 51.3133 1.64804C51.4849 1.66794 51.6393 1.83757 51.8165 1.94655C51.7208 1.46798 51.3342 1.4206 50.9627 1.41586C50.4453 1.41018 49.9269 1.45566 49.4095 1.46419C50.7722 1.13251 51.7947 1.0984 52.1729 1.9437C52.7756 1.9039 53.3622 1.8641 53.9497 1.82525C53.9535 1.86505 53.9582 1.9058 53.962 1.9456C53.8625 1.96266 53.7621 1.97972 53.6626 1.99677C54.9978 2.18157 55.917 3.02687 56.75 3.98211C58.4729 5.95702 59.6792 8.22002 60.3852 10.7597C60.2734 10.574 60.1616 10.3873 60.0498 10.2016L59.9332 10.2262C60.0706 11.0924 60.208 11.9585 60.3454 12.8256C60.3303 12.8332 60.316 12.8417 60.3009 12.8493C60.2402 12.7327 60.1805 12.6152 60.0943 12.4484C60.0242 12.9905 59.9967 13.4975 59.882 13.9846C59.7901 14.3779 59.5863 14.7437 59.4442 15.1265C59.2509 15.6439 59.0689 16.1661 58.9059 16.6219C58.9239 16.3604 58.9505 15.9927 58.9799 15.5719C58.7884 16.0097 58.6093 16.4172 58.4312 16.8238C58.4018 16.819 58.3724 16.8152 58.343 16.8105C58.3402 16.7584 58.3364 16.7072 58.3307 16.6096C57.7744 17.0029 57.2883 17.5269 56.5425 17.3952C56.8325 17.2218 57.1319 17.0436 57.4314 16.8655L57.3982 16.7063C56.6145 17.3516 55.9587 17.0522 55.3143 16.5404C55.9786 16.1898 56.5614 15.8041 56.7377 14.9389C56.6079 14.9986 56.516 15.0213 56.4506 15.0753C56.081 15.3776 55.7531 15.752 55.3428 15.9775C54.8358 16.2561 54.487 16.5916 54.3695 17.1687C54.2653 17.6776 54.1364 18.1837 53.9895 18.6821C53.8038 19.3104 53.5574 19.39 52.984 19.046C52.9073 18.9996 52.822 18.9683 52.7424 18.9314C52.2534 19.7378 52.2363 19.7435 51.5019 19.2848C51.4583 19.3985 51.4185 19.5085 51.374 19.6165C51.2697 19.8676 51.102 19.9927 50.8736 19.7719C50.6263 19.5331 50.451 19.6108 50.2415 19.8202C50.0634 19.9975 49.853 20.1415 49.6502 20.2922C49.1043 20.6978 48.4571 20.6144 48.1055 20.0212C47.7947 19.4962 47.5805 18.9133 47.3228 18.3561C47.2972 18.3002 47.2659 18.2462 47.1967 18.1145L47.1958 18.1183Z" fill="#AAAAAA"/>
<path d="M23.9697 60.9532C24.0863 60.2699 24.1905 59.6587 24.3023 58.9982C24.3857 58.9906 24.5231 58.9612 24.6596 58.9688C28.7525 59.2095 32.6843 58.3405 36.5915 57.2696C38.2527 56.8148 39.932 56.4385 41.6738 56.5646C41.9514 56.5845 42.2575 56.6195 42.4916 56.7522C44.7963 58.0552 47.0934 59.3706 49.3782 60.7087C49.8198 60.9674 50.1941 61.3398 50.5997 61.6601C50.577 61.6952 50.5552 61.7302 50.5324 61.7644C50.2349 61.6061 49.9411 61.4403 49.6388 61.2896C47.7207 60.3334 45.797 59.3867 43.8828 58.422C42.936 57.9453 41.9666 58.1045 41.0151 58.3187C37.7713 59.0484 34.5398 59.8321 31.296 60.5608C29.6111 60.939 27.8939 61.0214 26.1683 60.956C25.4461 60.9285 24.7221 60.9513 23.9688 60.9513L23.9697 60.9532Z" fill="#AAAAAA"/>
<path d="M61.5992 69.8308C61.1434 69.4546 60.6942 69.0689 60.2298 68.7031C57.6788 66.695 55.2992 64.4576 52.4344 62.8655C52.0288 62.6409 51.6668 62.3396 51.2935 62.0127C52.6088 61.7871 53.8123 61.4223 54.6093 60.2235C55.2689 60.9503 55.9199 61.6137 56.5093 62.3282C57.2286 63.201 58.1061 64.0274 58.5373 65.0357C59.2149 66.6201 60.118 67.9867 61.3016 69.2034C61.4523 69.3589 61.5622 69.5541 61.6911 69.7313C61.6608 69.7645 61.6305 69.7976 61.6011 69.8308H61.5992Z" fill="#AAAAAA"/>
<path d="M37.5638 62.3775C36.3281 62.1463 35.6827 61.1408 34.7493 60.3201C37.4425 59.6729 39.9879 58.9584 42.5902 58.4987C42.6205 58.5518 42.6508 58.6049 42.6821 58.6589C42.5608 58.802 42.4584 58.9678 42.3163 59.0853C40.8702 60.2813 39.4231 61.4772 37.6917 62.2571C37.6387 62.2808 37.6017 62.3396 37.5562 62.3822C37.5553 62.3822 37.5638 62.3775 37.5638 62.3775Z" fill="#AAAAAA"/>
<path d="M49.3441 59.5364C50.2131 59.5431 52.1103 58.6096 53.4702 57.4772C53.7971 58.1074 54.1307 58.7205 54.4264 59.3497C54.4756 59.4549 54.396 59.6596 54.3174 59.7819C53.619 60.8736 52.5462 61.3436 51.3218 61.5398C51.2233 61.5559 51.0764 61.4763 51.0025 61.3948C50.4424 60.7816 49.8937 60.1562 49.3431 59.5364H49.3441Z" fill="#AAAAAA"/>
<path d="M47.8014 58.5006C48.044 58.5215 48.2866 58.5622 48.5282 58.5594C49.0561 58.5537 49.618 58.6352 50.1061 58.4845C51.194 58.15 52.1995 57.6098 53.0324 56.8081C53.2779 56.5722 53.4731 56.2841 53.7801 56.0405C53.6475 56.3428 53.5811 56.7067 53.3698 56.938C52.3331 58.0742 51.0177 58.7764 49.5527 59.1915C48.8192 59.399 48.28 59.001 47.8118 58.4874C47.8099 58.4893 47.8014 58.5006 47.8014 58.5006Z" fill="#AAAAAA"/>
<path d="M49.7327 48.1343C49.2276 46.8142 48.5898 45.495 48.7149 43.9115C48.9177 44.2034 49.2238 44.4574 49.2816 44.7597C49.4796 45.7793 49.5905 46.8151 49.7308 47.8452C49.745 47.9523 49.7327 48.0641 49.7327 48.1343Z" fill="#AAAAAA"/>
<path d="M51.1333 51.2899C50.3335 50.6797 50.052 49.7642 49.6123 48.809C50.7135 49.3643 50.994 50.2854 51.1333 51.2899Z" fill="#AAAAAA"/>
<path d="M37.5615 62.3803C37.5595 62.3813 37.5574 62.3822 37.5554 62.3832L37.5639 62.3765L37.5615 62.3803Z" fill="#AAAAAA"/>
<path fill-rule="evenodd" clip-rule="evenodd" d="M55.4685 80.3076C57.2583 80.4638 60.0774 80.1226 61.048 79.6153C63.1859 78.498 64.0073 76.9467 64.0044 74.462C64.0025 72.4368 62.5147 70.7709 60.771 69.7398C60.8659 69.8577 60.9586 69.9679 61.048 70.074C61.2337 70.2945 61.4048 70.4977 61.55 70.7178C61.6716 70.9026 61.7963 71.0863 61.9211 71.2701C62.3273 71.8687 62.7347 72.4689 63.0407 73.1163C63.5524 74.1995 63.4576 75.3395 62.9544 76.4397C63.469 74.8173 63.1184 73.3333 62.1565 72.0038C61.5301 71.1386 60.8241 70.3188 60.0774 69.5541C58.4398 67.8767 56.5691 66.4742 54.6435 65.1456C51.8043 63.1877 48.8334 61.4725 45.6067 60.2273C45.3622 60.1325 45.0874 60.0548 44.8315 60.0671C44.7871 60.0692 44.7426 60.0719 44.6983 60.0746C44.2085 60.1045 43.7494 60.1325 43.7512 59.3346C43.6609 59.3719 43.5789 59.4032 43.5032 59.4322C43.3577 59.4877 43.2353 59.5345 43.1219 59.598C42.9267 59.7075 42.7351 59.8242 42.5435 59.9408C42.2357 60.1282 41.9281 60.3156 41.6057 60.4727C40.6537 60.9373 39.6941 61.3847 38.7343 61.8321C38.3432 62.0145 37.9521 62.1968 37.5615 62.3803C37.5234 62.4393 37.4855 62.4994 37.4171 62.6078L37.4123 62.6154C39.4579 62.551 41.2969 63.1903 43.1296 63.8275C43.619 63.9976 44.1079 64.1676 44.6003 64.324C44.0056 64.2187 43.4129 64.1007 42.8204 63.9827C41.6955 63.7588 40.5715 63.535 39.4375 63.3991C37.5753 63.1764 35.9198 62.6182 34.6935 61.156C34.2254 60.5978 33.7601 60.5002 33.0939 60.6812C30.7134 61.3275 28.2826 61.5208 25.8225 61.3853C25.6526 61.3759 25.4827 61.3671 25.3032 61.3578C25.1764 61.3512 25.0449 61.3444 24.9052 61.337C25.452 62.6097 26.2186 63.6151 27.3122 64.3344C29.6226 65.8544 32.1566 66.8391 34.8679 67.3489C35.3203 67.434 35.7816 67.4814 36.2423 67.5287C36.8847 67.5947 37.5259 67.6606 38.1401 67.8284C39.2791 68.1397 40.3988 68.5208 41.5189 68.9019C42.175 69.1252 42.8313 69.3485 43.4915 69.5579C43.8552 69.6733 44.2184 69.7912 44.5818 69.9092C45.9122 70.341 47.2437 70.7733 48.6022 71.0874C49.5176 71.299 50.4621 71.3847 51.4064 71.4704C51.8277 71.5086 52.249 71.5469 52.6677 71.5963C52.6658 71.6209 52.6629 71.6465 52.6601 71.6721C51.4026 71.5571 50.1443 71.443 48.8867 71.3289L48.5852 71.3016C48.5842 71.3357 48.5833 71.3707 48.5833 71.4058C48.987 71.7071 49.3904 72.0085 49.7939 72.3099C50.1974 72.6112 50.6008 72.9126 51.0045 73.2139L50.9344 73.3077C50.7324 73.165 50.5317 73.0203 50.3311 72.8756C49.8738 72.5459 49.4166 72.2162 48.9443 71.9099C48.298 71.4911 47.646 71.0732 46.85 70.9661C46.525 70.9225 46.2009 70.8334 45.891 70.7235C45.262 70.5004 44.6353 70.2709 44.0086 70.0416C42.7989 69.5987 41.5894 69.156 40.3652 68.759C39.3228 68.4207 38.2368 68.0985 37.1536 68.0303C33.9126 67.8275 30.8252 67.1319 27.9405 65.6118C27.8793 65.5793 27.8121 65.558 27.7338 65.5331C27.6956 65.5209 27.6548 65.5079 27.6107 65.4924C28.0704 66.3808 28.8248 66.9326 29.5747 67.4811C29.6983 67.5715 29.8218 67.6618 29.9439 67.7535L29.8415 67.8729C29.2511 67.5678 28.6617 67.2627 28.0343 66.9376C27.0061 68.7912 26.4063 70.714 26.0234 72.7875C26.2425 72.8301 26.456 72.8713 26.6659 72.9117C27.077 72.991 27.4739 73.0676 27.8704 73.1466C28.4841 73.2688 28.7783 73.3793 28.9184 73.2776C29.0554 73.1781 29.045 72.8755 29.0417 72.1819C29.0341 70.4761 29.5724 69.0367 30.8413 67.8464C31.0831 67.9323 31.3333 68.0216 31.5862 68.1119C31.6822 68.1462 31.7787 68.1806 31.8752 68.215C31.7643 68.2795 31.6601 68.289 31.5909 68.2444C31.1673 67.9753 30.8375 68.1752 30.6309 68.5098C30.5389 68.6587 30.4382 68.8083 30.3367 68.959C30.0044 69.4526 29.6643 69.9577 29.5989 70.4885C29.4694 71.5473 29.4964 72.6262 29.5234 73.7029C29.5312 74.0128 29.539 74.3226 29.543 74.6316C29.5487 75.0543 29.8775 75.2286 30.2661 75.2211C30.9124 75.2078 31.5587 75.1812 32.2021 75.1234C32.5158 75.096 32.7262 75.1377 32.9062 75.4343C33.1972 75.9138 33.6482 76.1971 34.2064 76.3014C34.3822 76.3345 34.5574 76.3707 34.7327 76.407C34.9743 76.457 35.2159 76.507 35.4592 76.5487C39.3686 77.2224 43.279 77.8945 47.1893 78.5666C50.1428 79.0742 52.5122 80.0495 55.4685 80.3076Z" fill="#AAAAAA"/>
<path fill-rule="evenodd" clip-rule="evenodd" d="M24.7858 79.9915C24.8142 79.9754 24.8398 79.9605 24.8635 79.9466C24.915 79.9166 24.9578 79.8916 25.0018 79.8702C25.3316 79.712 25.5828 79.5016 25.5989 79.0941C25.6159 78.6696 25.3894 78.3985 25.0388 78.2422C24.5659 78.0308 24.0826 77.8366 23.5879 77.6868C23.1914 77.5671 22.7866 77.4744 22.3818 77.3816C22.2033 77.3407 22.0249 77.2998 21.8471 77.2566C21.8474 77.2483 21.8479 77.24 21.8483 77.2318C21.8491 77.2158 21.8499 77.1999 21.8499 77.1836L22.9312 77.0292C22.636 76.4151 22.1264 76.3465 21.6284 76.2796C21.487 76.2605 21.3465 76.2416 21.2122 76.2104C21.2183 76.1853 21.2243 76.1604 21.2302 76.1355C21.2361 76.1107 21.242 76.0858 21.2482 76.0607H22.3967C22.612 75.3943 22.2632 75.3099 21.9119 75.225C21.7157 75.1775 21.5186 75.1298 21.4188 74.9803C21.6614 74.9595 21.8831 74.9889 22.1039 75.022C22.3749 75.0628 22.5578 74.9832 22.6384 74.6942C22.7199 74.4013 22.5578 74.3047 22.3295 74.2146C22.1874 74.1586 22.0523 74.0838 21.9174 74.009C21.8606 73.9776 21.8039 73.9462 21.7467 73.9161C21.758 73.8977 21.7694 73.8789 21.7808 73.8602C21.7921 73.8415 21.8035 73.8228 21.8149 73.8043C22.8251 74.2308 23.0487 74.1815 23.1738 73.4935C22.9037 73.3485 22.628 73.2006 22.3532 73.0538C22.4583 73.0159 22.5304 73.0358 22.5967 73.0689C23.0345 73.2859 23.3605 73.321 23.7036 72.8168C23.8826 72.5538 24.1734 72.3671 24.4642 72.1802C24.5936 72.0971 24.723 72.014 24.8426 71.9242C24.8706 71.9417 24.8984 71.9593 24.9261 71.9768C24.9538 71.9943 24.9815 72.0118 25.0094 72.0293C25.0094 72.301 25.0034 72.5733 24.9973 72.8455C24.984 73.4403 24.9707 74.035 25.0208 74.624C25.2236 77.0055 27.0791 78.4952 29.4558 78.2498C29.8756 78.2062 30.1201 77.9891 30.1997 77.5817C30.2746 77.1969 30.2348 76.8586 29.8292 76.6596C29.6402 76.5675 29.4541 76.4695 29.268 76.3715C29.1192 76.2931 28.9703 76.2147 28.8199 76.1393C28.5385 75.9981 28.3963 75.8323 28.5963 75.5072C28.7498 75.2561 28.6418 75.1234 28.349 75.1358C28.2953 75.1381 28.2417 75.1331 28.1582 75.1254C28.1074 75.1207 28.0456 75.115 27.9661 75.1092L28.6342 74.8183C28.3199 74.6319 28.0927 74.4964 27.8212 74.3344L27.8031 74.3236C27.9126 74.2473 28.0124 74.1776 28.1066 74.1118C28.2382 74.0199 28.3588 73.9356 28.4797 73.8517C28.1139 73.6584 27.7965 73.574 27.4743 73.5181C27.2525 73.4794 27.0295 73.4483 26.8067 73.4172C26.5763 73.3851 26.346 73.3529 26.1172 73.3125C25.7874 73.2547 25.614 73.067 25.7107 72.7069C25.8153 72.3167 25.9169 71.9256 26.0185 71.5346C26.2573 70.6152 26.496 69.6962 26.774 68.7893C26.9051 68.3616 27.1055 67.9552 27.3105 67.5397C27.4048 67.3485 27.5 67.1555 27.5899 66.9575C27.387 66.8207 27.1849 66.6857 26.9838 66.5514C26.5106 66.2352 26.043 65.9227 25.5828 65.5995C25.2691 65.3797 25.0483 65.427 24.7602 65.6801C23.6874 66.6201 22.9682 67.7848 22.4726 69.1077C22.6763 68.0445 23.1918 67.1243 23.7945 66.2818C23.194 66.0621 22.6054 65.8464 22.0164 65.6306C21.5412 65.4564 21.0659 65.2823 20.5839 65.1058C20.5564 65.1479 20.5255 65.1914 20.4934 65.2365C20.4237 65.3345 20.3488 65.4398 20.293 65.554C20.0859 65.9782 19.851 66.3895 19.6161 66.8009C19.0481 67.7956 18.4799 68.7908 18.3029 69.9701C18.2666 70.2136 18.1364 70.4414 18.0053 70.6706C17.9278 70.8063 17.85 70.9424 17.7911 71.0826C17.6405 71.4411 17.481 71.7972 17.3214 72.1534C16.9257 73.0364 16.5299 73.92 16.2692 74.841C15.7726 76.5951 15.8475 78.3199 17.378 79.6153C18.0054 80.3388 23.1738 80.5576 24.7858 79.9915ZM23.6827 68.2965C23.0715 68.8576 22.8943 69.99 23.3899 70.6609C23.0108 69.8156 23.3131 69.0594 23.6827 68.2965Z" fill="#AAAAAA"/>
</svg>
