<svg width="80" height="81" viewBox="0 0 80 81" fill="none" xmlns="http://www.w3.org/2000/svg">
<path d="M58.8196 45.8266C58.948 45.9773 59.0517 46.1623 59.2084 46.2719C59.6872 46.6068 60.2062 46.8869 60.6712 47.238C61.0772 47.5446 61.4909 47.8752 61.7889 48.2778C61.9885 48.5467 62.0664 48.9612 62.0647 49.3098C62.063 49.7594 61.7196 49.887 61.3359 49.6652C60.923 49.4263 60.5608 49.2027 60.5565 48.6178C60.5548 48.3643 60.3278 48.0388 60.1068 47.8735C59.0251 47.0642 57.9383 46.2548 56.7975 45.5337C56.0986 45.0917 55.3055 45.3478 54.5501 45.5234C53.0256 45.8788 51.5037 46.2454 49.9689 46.5503C49.0054 46.7421 48.0693 46.5109 47.1709 46.1392C46.9927 46.0655 46.8137 45.9927 46.6219 45.9559C47.516 46.4895 48.441 46.9271 49.5159 46.9451C50.9265 46.9682 52.3062 46.7413 53.6551 46.3713C56.1174 45.6955 58.0299 46.6325 59.6975 48.3403C60.1334 48.7865 60.2559 49.3269 60.0298 49.9213C59.5459 51.1923 58.6808 52.0428 57.3268 52.3468C57.2017 52.3751 57.0775 52.4042 56.9525 52.435C56.9405 52.4376 56.9319 52.4539 56.9208 52.4633C58.3845 52.5909 59.8705 51.367 60.5942 49.392C61.0352 49.7774 61.4797 50.1269 61.8746 50.5243C62.1743 50.8257 62.2223 51.1854 61.9268 51.5597C61.5654 52.0171 61.2459 52.5087 60.8811 52.9643C60.0871 53.9544 59.0303 54.0794 57.8766 53.8259C57.1341 53.6623 56.5423 53.2795 56.1371 52.6149C56.0455 52.4641 55.8408 52.2612 55.7098 52.2757C54.9424 52.3596 54.4191 52.0565 54.0311 51.4021C54.0637 51.4946 54.0748 51.6034 54.1313 51.677C54.8619 52.632 54.6623 53.6512 54.1921 54.5847C53.847 55.2682 53.3511 55.9319 52.7738 56.4321C50.6901 58.2375 48.8606 59.488 46.4531 60.8438C45.75 60.8438 45.2812 60.3594 44.7969 59.9531C43.3937 58.7763 41.8438 58.0469 40.4219 57.4844C38.7478 56.8221 37.665 56.8261 36.5559 56.1024C36.2133 55.8788 35.923 55.5757 35.5693 55.2742C35.7012 55.1603 35.792 55.0489 35.9093 54.9864C36.5602 54.6361 36.9054 54.0494 37.2214 53.4122C38.6088 50.6125 39.6143 47.6825 40.2772 44.6318C40.3466 44.3115 40.4203 43.9903 40.4537 43.6657C40.4674 43.5355 40.3783 43.3942 40.3363 43.2581C40.3012 43.2649 40.2661 43.2718 40.2318 43.2786C40.0948 43.6443 39.9398 44.0049 39.8225 44.3766C38.6919 47.9472 36.949 51.2351 35.1273 54.4811C34.8533 54.9684 34.3814 55.3855 33.9163 55.7178C32.5717 56.6779 31.2108 57.62 29.807 58.4902C28.5806 59.2516 27.2873 59.9059 26.2279 60.4943C28.5848 59.9941 30.5145 58.1793 32.7918 56.8989C32.7036 57.7528 32.4415 58.5056 31.9884 59.1822C31.1302 60.4635 29.944 61.349 28.5455 61.9708C26.0977 63.0603 23.5531 63.551 20.8776 63.2067C20.4151 63.1468 19.9586 63.014 19.5089 62.8813C18.9745 62.7237 18.6302 62.3751 18.5386 61.8021C18.4898 61.4955 18.4161 61.1923 18.3544 60.89C19.6537 60.9619 20.9221 61.033 22.1897 61.1032C22.1931 61.0596 22.1965 61.0159 22.1999 60.9722C22.0364 60.9542 21.8736 60.9345 21.71 60.9191C20.5735 60.8163 19.437 60.723 18.3013 60.6099C17.3884 60.5183 16.5559 60.1851 15.8065 59.667C14.4259 58.7146 14.1501 57.3322 14.4241 55.8018C14.8344 53.5142 15.6789 51.361 16.6184 49.249C18.6379 44.7115 21.0797 40.4197 24.1278 36.4869C25.5384 34.6669 27.0646 32.9548 28.8238 31.4603C28.8778 31.4141 28.942 31.3807 28.954 31.3721C28.5275 31.3721 28.0744 31.4578 27.6701 31.355C26.6544 31.0972 26.2416 30.2776 26.4771 29.1419C26.6304 28.4036 26.9396 27.7364 27.4124 27.1472C27.5288 27.0025 27.6308 26.8423 27.7669 26.719C28.3493 26.1871 28.566 25.6047 28.2277 24.8219C28.1061 24.5393 28.1549 24.1385 28.2388 23.8216C28.4161 23.1552 28.8366 22.7998 29.5175 22.8529C30.6207 22.9394 31.7315 23.0593 32.8098 23.2966C34.646 23.6999 36.424 24.3063 38.1515 25.0643C40.0785 25.9096 41.502 27.3031 42.6402 29.0246C43.5446 30.3923 43.5737 30.5122 43.7219 32.3322C43.608 32.1266 43.5498 32.0273 43.4975 31.9245C42.8929 30.7358 42.3088 29.5367 41.6767 28.3634C41.3495 27.7561 40.8288 27.3159 40.201 27.0067C40.8913 27.7904 41.496 28.6229 41.8094 29.6301C41.8411 29.7328 41.788 29.863 41.7735 29.9804C41.615 29.7191 41.5114 29.3877 41.2861 29.2104C40.7106 28.7565 40.1179 28.2966 39.4645 27.9754C38.1095 27.3091 36.6792 27.2894 35.1556 27.7125C35.2806 27.7279 35.3235 27.7407 35.3646 27.7373C35.4639 27.7304 35.5624 27.715 35.6609 27.7056C36.9961 27.5831 38.2928 27.6542 39.5338 28.2657C40.4023 28.694 41.1457 29.2549 41.782 29.9727C41.7007 30.2921 41.5645 30.0129 41.4883 29.9812C40.702 29.6592 39.9475 29.2215 39.133 29.0134C38.1918 28.7728 37.2205 28.8918 36.3135 29.3611C38.4795 28.7248 40.3269 29.3389 41.9233 30.8068C42.689 31.5117 43.3691 32.3056 43.4641 33.5921C42.6068 33.0867 41.842 32.6354 41.0772 32.1849C41.0626 32.2046 41.048 32.2243 41.0335 32.2431C41.0926 32.2962 41.15 32.351 41.2108 32.4007C41.2879 32.4641 41.3658 32.5266 41.4472 32.584C42.2051 33.1167 42.9674 33.6452 43.7228 34.1822C44.2812 34.5795 44.724 35.072 44.9038 35.7546C44.9629 35.9781 44.9407 36.1417 44.6272 36.1272C42.8458 36.0475 41.0617 36.0158 39.2837 35.8985C37.5948 35.7872 35.9735 35.3349 34.3968 34.7251C34.2812 34.6806 34.1638 34.6412 34.0079 34.684C34.4019 34.8844 34.7873 35.1046 35.1907 35.2836C37.8183 36.4449 40.565 37.0599 43.4436 37.0975C44.2675 37.1087 45.1025 37.1275 45.911 37.268C46.9062 37.441 47.5306 38.1398 48.0239 39.1076C44.9706 39.4716 42.0287 39.5042 39.1767 38.318C39.1664 38.3565 39.1553 38.3951 39.145 38.4336C39.2692 38.4979 39.3908 38.5664 39.5167 38.6246C39.6589 38.6897 39.8053 38.7462 39.9501 38.8062C42.0424 39.6652 44.2469 39.9093 46.4797 39.9821C47.3918 40.0112 48.3065 39.9924 49.2195 40.0069C49.8276 40.0164 50.4083 40.1431 50.9162 40.502C51.3624 40.8171 51.5028 41.2111 51.323 41.731C51.0917 42.3982 50.798 43.0302 50.1514 43.4199C50.1796 43.4568 50.2079 43.4944 50.2361 43.5313C50.9162 43.0551 51.5953 42.5797 52.2651 42.1104C52.6574 42.3562 53.0607 42.6191 53.4736 42.8649C55.1385 43.8559 56.806 44.8434 58.4796 45.8206C58.5609 45.8677 58.7202 46.1692 58.8239 45.8154L58.8153 45.8231L58.8196 45.8266ZM49.4422 49.2558C46.6073 47.4419 43.7964 45.6424 40.9735 43.8353C40.2293 47.0787 39.4422 50.2673 37.8577 53.2983C41.7127 51.7207 45.4931 50.2288 49.4422 49.2558ZM29.7359 54.935C29.7496 54.9539 29.7642 54.9727 29.7779 54.9915C29.8918 54.9162 30.0066 54.8417 30.1196 54.7654C31.9062 53.5638 33.4495 52.0847 34.8858 50.4986C36.8394 48.3394 38.4975 45.9765 39.5749 43.2426C39.6632 43.0191 39.6777 42.8795 39.4542 42.7485C38.7913 42.3588 38.1601 41.9057 37.4689 41.576C35.6952 40.7298 33.8966 39.9324 32.1049 39.1231C31.2887 38.7539 30.5119 38.3368 30.0554 37.5181C29.873 37.19 29.7291 36.8406 29.5655 36.4963C29.5578 36.5289 29.5407 36.558 29.5458 36.5828C29.9141 38.2109 30.8065 39.4939 32.1297 40.4891C32.2162 40.5542 32.3327 40.5936 32.4406 40.6167C33.6637 40.872 34.9072 41.0527 36.1054 41.3944C37.0647 41.6685 37.9699 42.1352 38.9352 42.5309C37.6179 46.2745 35.3971 49.3124 32.8663 52.2012C32.3147 51.797 31.8257 51.4372 31.3992 51.1246C30.5119 52.0984 29.6554 53.0876 28.7441 54.0246C27.8209 54.9736 26.7109 55.6878 25.5213 56.2531C24.3565 56.8064 23.154 57.2834 21.8685 57.8367C22.122 57.7793 22.2727 57.7485 22.4218 57.7108C24.9064 57.0796 27.1674 55.9987 29.0773 54.2721C29.837 53.5852 30.499 52.7922 31.2167 52.0582C31.3067 51.9665 31.4925 51.8689 31.5893 51.9032C31.913 52.0171 32.2162 52.1901 32.6342 52.3913C31.615 53.2855 30.6746 54.1111 29.7342 54.9359L29.7359 54.935Z" fill="#AAAAAA"/>
<path d="M19.9243 63.3626C23.3938 63.9236 26.5345 63.426 29.4858 61.8424C31.3512 60.8412 32.7027 59.3792 33.2054 57.2766C33.3913 56.4972 33.9471 56.2266 34.6066 55.9165C34.837 56.3285 35.0682 56.731 35.2901 57.1404C35.5727 57.6628 36.0035 57.9626 36.5987 57.9566C38.1857 57.9412 39.6135 58.497 41.0172 59.1488C45.8339 61.3833 50.0332 64.4914 53.781 68.223C54.3608 68.8002 54.8713 69.4777 55.2884 70.1834C56.8086 72.7519 55.7611 75.7752 52.9965 76.9135C51.5594 77.5053 50.0794 77.4796 48.5789 77.215C46.6621 76.8775 44.8053 76.3217 42.9956 75.6228C39.7788 74.3801 36.5816 73.0868 33.369 71.8338C32.7704 71.6 32.3267 71.2274 32.1126 70.6408C31.6578 69.3963 30.7397 68.8902 29.479 68.6615C27.8286 68.3626 26.1919 67.9506 24.5843 67.4727C23.0752 67.0239 21.7169 66.2506 20.7688 64.9359C20.4425 64.4828 20.2318 63.9458 19.9243 63.3626Z" fill="#AAAAAA"/>
<path d="M44.9476 28.0576C44.581 28.5569 44.2375 29.0246 43.901 29.4819C44.8842 31.0492 44.9535 31.8509 44.1391 32.8521C43.9232 32.2354 44.3626 31.6736 44.1382 31.1229C44.0928 31.3267 44.0483 31.5271 44.0029 31.7284C44.0157 30.973 43.8941 30.263 43.4522 29.6378C43.1969 29.2772 42.9306 28.9235 42.6634 28.5723C41.4181 26.9374 39.9801 25.5054 38.0196 24.7842C37.1906 24.4793 36.6759 23.9937 36.2331 23.2743C35.392 21.9074 34.5655 20.5465 34.3797 18.9072C34.2332 17.6157 34.2761 16.3327 34.7805 15.1199C35.4665 13.4704 36.8591 12.6114 38.441 11.9921C38.5327 11.9562 38.6294 11.9339 38.7237 11.9056C38.7168 11.8662 38.71 11.8268 38.7022 11.7874C38.316 11.85 37.9297 11.9125 37.5435 11.9742C37.5323 11.9613 37.522 11.9493 37.5109 11.9365C37.8218 11.8149 38.137 11.7027 38.441 11.5673C38.6329 11.4825 38.823 11.3806 38.9892 11.2539C39.3283 10.9969 39.6503 10.7194 40.0255 10.5165C39.718 10.8505 39.4105 11.1854 39.0688 11.5571C39.7154 11.1991 40.2721 10.8248 40.8794 10.5713C41.6219 10.2612 42.4244 10.3178 43.2012 10.4625C45.5505 10.9019 47.761 11.7027 49.7394 13.0747C50.3235 13.4798 50.8828 13.9269 51.4935 14.2875C51.8318 14.4879 52.2523 14.5495 52.6642 14.6823C52.4578 14.7465 52.2326 14.8167 52.0099 14.8861C52.3191 15.3092 53.1858 15.5524 54.0192 15.4411C53.7254 15.9104 53.2081 15.7957 52.8441 15.9301C53.1953 16.4997 53.5267 17.0744 53.9018 17.6199C53.9943 17.7553 54.2264 17.7947 54.4251 17.8931C53.7588 18.1038 53.4856 17.6002 53.1045 17.226C53.5567 18.2983 53.9498 19.3637 53.376 20.5482C53.3391 20.2715 53.3074 20.0386 53.2586 19.6746C53.0428 20.3281 52.8955 20.8822 52.3628 21.2393C52.4304 20.8993 52.4904 20.5987 52.5503 20.2981C52.23 20.7297 52.218 21.3061 51.7067 21.5905C51.6022 21.3472 51.502 21.1143 51.371 20.8094C50.882 21.6796 50.3004 22.4315 50.9059 23.4165C51.144 23.8027 51.3145 24.2301 51.5183 24.6378C51.7812 25.1653 51.6288 25.5276 51.0524 25.5893C50.5976 25.6381 50.5128 25.8942 50.5359 26.2565C50.5548 26.5665 50.5291 26.82 50.1608 26.916C50.0872 26.9356 49.9981 27.1035 50.0067 27.1952C50.0366 27.5198 49.951 27.6979 49.5956 27.7621C49.432 27.7921 49.2615 27.9608 49.1605 28.1107C49.0363 28.2957 48.9806 28.5278 48.895 28.7385C48.6278 29.3971 48.2252 29.6318 47.5486 29.3766C46.914 29.1367 46.323 28.7796 45.7149 28.4687C45.464 28.3402 45.219 28.2015 44.9501 28.0559L44.9476 28.0576Z" fill="#AAAAAA"/>
<path d="M59.7342 54.0666C60.6361 53.6195 61.305 52.9771 61.8249 52.0856C62.0098 52.3237 62.1657 52.5361 62.3336 52.7382C63.0736 53.6323 63.59 54.6061 63.9129 55.7538C64.2692 57.0162 64.9064 58.2033 65.4657 59.4023C65.6841 59.8699 65.7629 60.2459 65.5308 60.7598C65.2978 61.2771 65.2927 61.8929 65.1505 62.4564C65.0931 62.6843 64.9501 62.8967 64.8199 63.0988C64.5989 63.4431 64.33 63.7583 64.1322 64.1145C63.9609 64.422 63.7596 64.637 63.405 64.7089C63.029 64.7852 62.6599 64.8982 62.2839 64.9753C62.0064 65.0318 61.7503 65.0626 61.5028 64.804C61.3692 64.6644 61.0609 64.7089 60.869 64.6036C60.696 64.5085 60.5744 64.321 60.4305 64.1736C60.5804 64.0495 60.714 63.8585 60.8845 63.8148C61.3512 63.6949 61.8343 63.6392 62.3096 63.5518C62.3987 63.5356 62.4818 63.4885 62.5468 63.3831C62.2479 63.4576 61.9439 63.5142 61.6527 63.6109C61.2784 63.736 61.0446 63.533 60.947 63.2487C60.8973 63.1039 61.0395 62.7553 61.1671 62.7125C61.6433 62.5506 62.1452 62.4325 62.6462 62.3802C63.4812 62.2929 63.5189 62.3126 63.3613 61.4878C63.2928 61.1281 63.0676 60.7915 62.8809 60.4626C62.6916 60.1286 62.4621 59.8168 62.2514 59.4948C62.0981 59.2601 61.937 59.2636 61.7281 59.4408C61.2502 59.8468 61.09 60.4026 60.9624 60.979C60.8733 61.3824 60.8519 61.8167 60.6798 62.1798C60.5119 62.5344 60.2087 62.8333 59.9269 63.1202C59.8507 63.1981 59.5998 63.2024 59.5047 63.1339C59.4122 63.068 59.3625 62.8547 59.3891 62.7254C59.5338 62.0145 59.7325 61.3131 59.8627 60.5996C59.9612 60.0575 60.0297 59.5017 60.0323 58.9518C60.0357 58.0654 60.1539 57.2286 60.6215 56.4501C61.0643 55.7118 61.0112 55.4463 60.4331 54.8202C60.2113 54.5804 59.9895 54.3415 59.7334 54.0657L59.7342 54.0666Z" fill="#AAAAAA"/>
<path d="M58.8281 45.8189C57.3422 44.8185 55.8579 43.8165 54.3703 42.8204C53.9583 42.5446 53.5395 42.2765 53.1147 42.0213C52.6094 41.7173 52.2017 41.3661 51.9225 40.8C51.412 39.7654 50.4639 39.3166 49.3411 39.2515C49.0225 39.2327 48.8444 39.1051 48.7125 38.8387C48.6123 38.6349 48.4881 38.4413 48.369 38.2469C47.8338 37.3733 47.0998 36.7849 46.0489 36.6847C45.7937 36.6607 45.7311 36.5554 45.7037 36.3122C45.6652 35.9627 45.6164 35.5902 45.4614 35.2827C45.195 34.7534 45.1856 34.2584 45.4202 33.7316C45.5059 33.5389 45.5581 33.3308 45.6635 33.0131C45.8622 33.2315 46.06 33.3736 46.1525 33.5663C46.3495 33.9749 46.4848 34.4117 46.6595 34.8313C46.7075 34.947 46.8026 35.042 46.8754 35.1474C46.9319 35.2973 46.9439 35.5131 47.0527 35.5859C47.7318 36.0415 48.2243 36.6487 48.6063 37.3613C48.3151 36.6291 48.0624 35.8762 47.2771 35.4865C47.1246 35.4112 47.0073 35.2639 46.8745 35.1491L46.6484 34.0383C46.6698 34.0297 46.6904 34.0211 46.7118 34.0126C46.7735 34.1008 46.8651 34.1804 46.8934 34.2781C47.0441 34.8125 47.4398 35.0968 47.9177 35.2878C48.799 35.6407 49.3343 36.2899 49.6477 37.1738C49.9415 38.002 49.9663 37.9934 50.8322 38.0122C52.0886 38.0396 52.7464 38.6563 52.8937 40.0446C52.9434 40.5139 53.1147 40.6536 53.566 40.7101C54.9424 40.8839 55.8194 41.8012 55.9735 43.1673C55.4836 42.9463 55.0049 42.7313 54.527 42.5164C54.5133 42.548 54.4996 42.5806 54.4859 42.6123C55.177 42.9737 55.8365 43.4328 56.5679 43.6726C57.6171 44.0177 58.2843 44.708 58.7922 45.6227C58.823 45.6784 58.8101 45.7581 58.8178 45.8266L58.8264 45.8189H58.8281Z" fill="#AAAAAA"/>
<path d="M23.7775 67.6509C25.8587 68.1596 27.8422 68.6435 29.8361 69.1308C29.7007 70.2793 29.9508 71.3405 30.5495 72.3117C30.7413 72.6235 30.7473 72.9147 30.6523 73.2435C30.5752 73.5108 30.5255 73.7857 30.4681 74.0358C29.9928 73.5861 29.4901 73.1082 28.983 72.6329C28.8691 72.5258 28.7544 72.4076 28.6182 72.3391C28.0777 72.0685 27.7472 71.6959 27.9287 71.1007C26.9138 70.8318 25.9315 70.5585 24.9431 70.3127C24.2922 70.1509 23.8314 69.8605 23.8451 69.0957C23.8528 68.6307 23.804 68.1647 23.7775 67.65V67.6509Z" fill="#AAAAAA"/>
<path d="M35.7021 73.0911C34.9141 73.5561 34.2529 73.9655 33.5686 74.333C33.4513 74.3955 33.1815 74.3407 33.0804 74.2405C32.3011 73.4705 31.5011 72.7125 30.7963 71.8766C30.2378 71.2137 30.0717 70.371 30.1308 69.5025C30.1573 69.1137 30.3577 68.9809 30.6532 69.2336C31.0318 69.5573 31.4343 69.9385 31.6227 70.3813C32.0749 71.4433 32.8303 72.0616 33.9112 72.3837C34.4799 72.5532 35.0203 72.8179 35.7029 73.0919L35.7021 73.0911Z" fill="#AAAAAA"/>
<path d="M44.5518 29.6318C45.6455 31.0929 45.9983 31.7789 44.8293 34.1659C44.3625 33.9166 44.3325 33.8259 44.5304 33.3445C44.6494 33.0559 44.7599 32.7638 44.8695 32.4718C45.1821 31.6376 45.1402 30.8308 44.6811 30.0557C44.6237 29.9581 44.5783 29.8536 44.5329 29.75C44.5244 29.7294 44.5398 29.6977 44.5518 29.6318Z" fill="#AAAAAA"/>
<path d="M34.3754 78.629C34.1047 78.766 33.8469 78.9655 33.5591 79.0289C32.8997 79.1745 31.1259 79.07 30.9255 78.8928C32.0475 78.599 33.2448 79.1394 34.2871 78.4988C34.3163 78.5425 34.3454 78.5861 34.3754 78.629Z" fill="#AAAAAA"/>
<path d="M26.9567 75.5469C26.3942 74.7533 26.2882 74.0509 26.5156 72.8125C26.5706 72.6746 25.8488 72.5687 25.1905 72.4721C24.6386 72.3911 24.1314 72.3167 24.1638 72.2355C24.0464 72.1649 23.9282 72.0978 23.811 72.0312C23.5513 71.8837 23.2961 71.7387 23.0624 71.564C22.6282 71.2394 22.6025 70.908 22.9451 70.4935C22.984 70.5364 23.0217 70.5798 23.0591 70.6229C23.1419 70.7183 23.2234 70.8122 23.3142 70.896C23.3715 70.9486 23.4285 71.0018 23.4855 71.055C23.7165 71.2707 23.9484 71.4872 24.2067 71.6651C24.3054 71.733 24.436 71.7512 24.5683 71.7697C24.653 71.7815 24.7383 71.7933 24.8165 71.8184C25.3464 71.9887 25.874 72.1651 26.3942 72.339C26.5827 72.402 26.7703 72.4647 26.9567 72.5267C27.1794 72.1327 27.3439 71.8415 27.5203 71.5289C27.4626 71.5158 27.4081 71.5036 27.3558 71.4918C27.2403 71.4659 27.1356 71.4423 27.0313 71.4176C26.806 71.3637 26.5804 71.3108 26.3548 71.2579C25.6806 71.0999 25.0064 70.9419 24.3403 70.7564C24.1356 70.699 23.9095 70.5063 23.811 70.3153C23.4024 69.5239 23.3459 68.6726 23.5677 67.8196C23.6328 67.5686 23.59 67.4128 23.3887 67.334C23.2175 67.2672 23.0679 67.1597 22.9176 67.0518C22.6132 66.8331 22.3063 66.6126 21.812 66.725C21.6901 66.7527 21.5879 66.7686 21.5013 66.782C20.7999 66.8705 20.6138 66.8724 20.1322 66.8083C19.8064 66.7077 19.512 66.6168 19.2109 66.5649C18.6525 66.469 18.4127 66.7542 18.5266 67.3211C18.5771 67.5721 18.6474 67.8196 18.7304 68.062C18.8574 68.4323 18.9836 68.8029 19.1098 69.1734C19.5027 70.3274 19.8955 71.4812 20.3123 72.626C20.3695 72.7834 20.4265 72.9409 20.4835 73.0984C20.9061 74.2668 21.3298 75.4379 21.8505 76.5632C22.4972 77.9609 23.5335 79.0375 25.1025 79.3707C26.6553 79.7004 28.2329 79.834 29.8113 79.482C29.8387 79.4762 29.8688 79.483 29.899 79.4899C29.9133 79.4931 29.9275 79.4964 29.9415 79.4983C29.9457 79.522 29.9501 79.5454 29.9545 79.5688C29.9583 79.5884 29.962 79.608 29.9655 79.6276C29.8699 79.6572 29.7745 79.6941 29.6791 79.7309C29.4739 79.8102 29.2687 79.8895 29.0611 79.8965C28.0522 79.9316 27.039 79.9548 26.0318 79.9034C23.7724 79.7886 22.2299 78.5861 21.3898 76.5452C21.2761 76.2691 21.1637 75.9974 21.0527 75.7292C19.8167 72.7411 18.7599 70.1865 18.0777 66.8724C17.9862 66.9084 17.9029 66.9388 17.8276 66.9663C17.2942 67.161 17.1606 67.2098 17.3215 68.062C17.322 68.0647 17.3225 68.0675 17.323 68.0702C17.3439 68.1789 17.3653 68.2898 17.4037 68.3934C18.1001 70.2798 18.765 71.9006 19.4594 73.5933C19.8325 74.5028 20.2142 75.433 20.6138 76.4364C20.6784 76.5987 20.7398 76.758 20.7999 76.9139C21.2638 78.1171 21.6508 79.1208 22.8594 79.7812C23.1377 79.9337 24.5458 80.4966 24.8559 80.5C26.3199 80.5181 27.1591 80.5133 28.2515 80.5071C28.7139 80.5044 29.2216 80.5015 29.8413 80.5C30.1702 80.4991 30.4982 80.3393 30.625 79.9479C30.7697 79.5008 30.8682 79.0529 30.5316 78.6127C30.2345 78.2243 29.8289 77.9882 29.4263 77.7538C29.1418 77.5882 28.8588 77.4234 28.6166 77.2064C27.904 76.5675 27.1486 76.6403 26.3401 76.8253C26.2743 76.8403 26.2105 76.8634 26.1467 76.8865C26.076 76.9121 26.0054 76.9376 25.9324 76.952C25.7438 76.9894 25.5539 77.018 25.3639 77.0466C25.2881 77.058 25.2124 77.0694 25.1368 77.0813C25.1329 77.0621 25.1289 77.0428 25.1248 77.0235C25.1207 77.0043 25.1166 76.985 25.1128 76.9657C25.3349 76.884 25.5569 76.8023 25.7781 76.7209C26.2217 76.5576 26.9243 76.4546 27.3558 76.296L26.9567 75.5469Z" fill="#AAAAAA"/>
<path d="M28.1164 76.296C28.3277 76.5462 28.5405 76.7982 28.7938 76.9983C29.2824 77.384 29.7986 77.7358 30.3148 78.0875C30.5034 78.216 30.692 78.3446 30.8793 78.4748C30.9341 78.5133 31.0078 78.5459 31.0729 78.5459C31.278 78.5461 31.4832 78.5473 31.6884 78.5485C32.353 78.5524 33.0181 78.5563 33.6817 78.5262C34.1287 78.5056 34.4114 78.1125 34.4045 77.6637C34.3994 77.334 34.2015 77.149 33.8958 77.1961C33.0941 77.3201 31.3594 76.5632 30.5547 75.8292C30.0469 75.0469 30.4739 74.8432 29.8113 74.3438C29.5865 74.1743 29.0489 73.3955 28.8906 73.1896C28.6029 72.8162 28.0757 72.3495 27.6406 72.4677C27.519 72.5002 27.4021 73.8636 27.3987 73.9981C27.3953 74.1401 27.4405 74.2824 27.4859 74.4256C27.5104 74.5026 27.5349 74.5799 27.552 74.6576C27.6117 74.926 27.6666 75.1954 27.7169 75.4423C27.8012 75.8563 27.7887 75.9081 28.1164 76.296Z" fill="#AAAAAA"/>
</svg>
